<svg width="79" height="98" viewBox="0 0 79 98" fill="none" xmlns="http://www.w3.org/2000/svg">
<g clip-path="url(#clip0_108_43)">
<mask id="mask0_108_43" style="mask-type:luminance" maskUnits="userSpaceOnUse" x="0" y="0" width="79" height="98">
<path d="M78.9 0H0V98H78.9V0Z" fill="white"/>
</mask>
<g mask="url(#mask0_108_43)">
<path d="M78.7996 20.6C78.4996 19.6 77.9996 18.9 77.4996 18.2C76.9996 17.6 76.6996 17 76.5996 16.5C76.5996 15.9 77.1996 15.1 78.2996 14.1L76.4996 12.1C72.7996 15.4 73.7996 17.6 75.2996 19.7C75.6996 20.3 76.0996 20.8 76.2996 21.4C76.2996 21.5 76.2996 21.8 75.9996 22.3C75.6996 22.8 74.8996 23.7 73.0996 24L73.4996 26.6C76.3996 26.1 77.7996 24.6 78.2996 23.7C78.8996 22.7 79.0996 21.5 78.7996 20.6ZM32.7996 71.9C31.9996 71.9 31.5996 71.1 31.8996 70.4L32.7996 68.9L33.0996 68.3L34.8996 65.2L35.7996 68.5L38.3996 67.8L36.6996 61.3C36.5996 61 36.3996 60.7 36.0996 60.5C35.7996 60.3 35.3996 60.3 35.0996 60.4L28.5996 62.1L29.2996 64.7L32.6996 63.8L29.4996 69.4L29.0996 70C28.8996 70.4 28.7996 70.9 28.7996 71.3C28.7996 72.3 29.2996 73.2 29.9996 73.8C30.5996 74.3 31.2996 74.5 32.0996 74.5H40.3996V71.8H32.7996V71.9ZM69.5996 14C68.9996 13.2 68.1996 12.6 67.5996 12.1C66.9996 11.6 66.3996 11.2 66.1996 10.8C65.9996 10.2 66.2996 9.30001 66.9996 8.00001L64.6996 6.70001C62.1996 11 63.8996 12.8 65.9996 14.3C66.5996 14.7 67.0996 15.1 67.3996 15.6C67.4996 15.7 67.5996 16 67.3996 16.5C67.2996 17.1 66.7996 18.1 65.0996 19L66.2996 21.4C68.8996 20 69.6996 18.1 69.8996 17.1C70.2996 15.9 70.1996 14.8 69.5996 14ZM58.3996 69.9C58.2996 69.8 58.2996 69.7 58.1996 69.6L54.1996 62.6L51.8996 63.9L54.4996 68.4L54.8996 69L55.6996 70.4C56.0996 71.1 55.5996 71.9 54.7996 71.9H48.7996L51.2996 69.4L49.3996 67.5L44.6996 72.2C44.1996 72.7 44.1996 73.6 44.6996 74.1L49.3996 78.8L51.2996 76.9L48.7996 74.4H55.5996C56.3996 74.4 57.0996 74.1 57.6996 73.6C58.2996 73.1 58.6996 72.4 58.7996 71.7C58.7996 71.5 58.7996 71.3 58.7996 71.2C58.7996 70.9 58.5996 70.4 58.3996 69.9ZM32.7996 71.9C31.9996 71.9 31.5996 71.1 31.8996 70.4L32.7996 68.9L33.0996 68.3L34.8996 65.2L35.7996 68.5L38.3996 67.8L36.6996 61.3C36.5996 61 36.3996 60.7 36.0996 60.5C35.7996 60.3 35.3996 60.3 35.0996 60.4L28.5996 62.1L29.2996 64.7L32.6996 63.8L29.4996 69.4L29.0996 70C28.8996 70.4 28.7996 70.9 28.7996 71.3C28.7996 72.3 29.2996 73.2 29.9996 73.8C30.5996 74.3 31.2996 74.5 32.0996 74.5H40.3996V71.8H32.7996V71.9ZM50.8996 52L49.9996 55.3L46.6996 49.5C46.5996 49.4 46.5996 49.3 46.4996 49.2C45.8996 48.3 44.8996 47.8 43.7996 47.8C42.6996 47.8 41.6996 48.3 41.0996 49.2L40.7996 49.7L36.7996 56.7L39.0996 58L41.6996 53.5L41.9996 52.9L42.8996 51.3C43.1996 50.7 44.0996 50.7 44.4996 51.3L45.3996 52.9L45.6996 53.5L47.4996 56.6L44.1996 55.7L43.4996 58.3L49.9996 60C50.0996 60 50.1996 60 50.2996 60C50.8996 60 51.3996 59.6 51.5996 59L53.2996 52.5L50.8996 52ZM58.3996 69.9C58.2996 69.8 58.2996 69.7 58.1996 69.6L54.1996 62.6L51.8996 63.9L54.4996 68.4L54.8996 69L55.6996 70.4C56.0996 71.1 55.5996 71.9 54.7996 71.9H48.7996L51.2996 69.4L49.3996 67.5L44.6996 72.2C44.1996 72.7 44.1996 73.6 44.6996 74.1L49.3996 78.8L51.2996 76.9L48.7996 74.4H55.5996C56.3996 74.4 57.0996 74.1 57.6996 73.6C58.2996 73.1 58.6996 72.4 58.7996 71.7C58.7996 71.5 58.7996 71.3 58.7996 71.2C58.7996 70.9 58.5996 70.4 58.3996 69.9ZM58.3996 69.9C58.2996 69.8 58.2996 69.7 58.1996 69.6L54.1996 62.6L51.8996 63.9L54.4996 68.4L54.8996 69L55.6996 70.4C56.0996 71.1 55.5996 71.9 54.7996 71.9H48.7996L51.2996 69.4L49.3996 67.5L44.6996 72.2C44.1996 72.7 44.1996 73.6 44.6996 74.1L49.3996 78.8L51.2996 76.9L48.7996 74.4H55.5996C56.3996 74.4 57.0996 74.1 57.6996 73.6C58.2996 73.1 58.6996 72.4 58.7996 71.7C58.7996 71.5 58.7996 71.3 58.7996 71.2C58.7996 70.9 58.5996 70.4 58.3996 69.9ZM43.5996 58.4L50.0996 60.1C50.1996 60.1 50.2996 60.1 50.3996 60.1C50.9996 60.1 51.4996 59.7 51.6996 59.1L53.3996 52.6L50.8996 52L49.9996 55.3L46.6996 49.5C46.5996 49.4 46.5996 49.3 46.4996 49.2C45.8996 48.3 44.8996 47.8 43.7996 47.8C42.6996 47.8 41.6996 48.3 41.0996 49.2L40.7996 49.7L36.7996 56.7L39.0996 58L41.6996 53.5L41.9996 52.9L42.8996 51.3C43.1996 50.7 44.0996 50.7 44.4996 51.3L45.3996 52.9L45.6996 53.5L47.4996 56.6L44.1996 55.7L43.5996 58.4ZM31.9996 70.4L32.8996 68.9L33.1996 68.3L34.9996 65.2L35.8996 68.5L38.4996 67.8L36.7996 61.3C36.6996 61 36.4996 60.7 36.1996 60.5C35.8996 60.3 35.4996 60.3 35.1996 60.4L28.6996 62.1L29.3996 64.7L32.7996 63.8L29.5996 69.4L29.0996 70C28.8996 70.4 28.7996 70.9 28.7996 71.3C28.7996 72.3 29.2996 73.2 29.9996 73.8C30.5996 74.3 31.2996 74.5 32.0996 74.5H40.3996V71.8H32.7996C32.0996 71.9 31.5996 71.1 31.9996 70.4ZM73.9996 32.2C73.6996 31.9 73.3996 31.7 72.9996 31.7H65.1996C64.5996 26.2 61.9996 21.6 57.9996 19.2L60.6996 16.2C61.3996 15.4 61.5996 14.4 61.1996 13.4C60.7996 12.4 59.7996 11.7 58.6996 11.8L56.0996 12L53.9996 10.6C53.0996 10 51.8996 10 51.0996 10.7C50.2996 11.4 49.8996 12.4 50.1996 13.4L51.0996 17.4C48.1996 17.5 45.3996 18.5 42.6996 20.4C39.0996 23 36.4996 27 35.0996 31.7H26.3996L50.1996 8.00001C50.6996 7.50001 50.6996 6.60001 50.1996 6.10001L46.1996 2.10001C43.4996 -0.599987 38.9996 -0.599987 36.2996 2.10001L28.8996 9.60001L26.6996 7.40001C25.0996 5.80001 22.4996 5.80001 20.8996 7.40001L7.29961 20.8C5.69961 22.4 5.69961 25 7.29961 26.6L9.49961 28.8L1.99961 36.2C-0.700391 38.9 -0.700391 43.4 1.99961 46.1L5.99961 50.1C6.29961 50.4 6.59961 50.5 6.99961 50.5C7.29961 50.5 7.69961 50.4 7.99961 50.1L14.7996 43.3L22.0996 92.9L22.1996 93.7C22.2996 94.2 22.4996 94.8 22.7996 95.2C23.6996 96.8 25.4996 97.9 27.4996 97.9H60.0996C62.6996 97.9 64.8996 96.1 65.3996 93.6C65.3996 93.4 65.4996 93.2 65.4996 93.1L74.3996 33.2C74.3996 32.8 74.2996 32.4 73.9996 32.2ZM55.0996 14.5C55.2996 14.7 55.6996 14.8 55.9996 14.7L58.6996 14.5L55.4996 18C55.4996 18 55.3996 18 55.2996 17.9H55.1996C54.9996 17.8 54.8996 17.8 54.6996 17.7C54.5996 17.7 54.4996 17.6 54.2996 17.6H54.1996C54.0996 17.6 53.9996 17.6 53.8996 17.5L52.8996 12.9L55.0996 14.5ZM44.1996 22.5C46.8996 20.5 49.7996 19.7 52.5996 20.1C52.6996 20.1 52.6996 20.1 52.7996 20.1C52.9996 20.1 53.0996 20.1 53.2996 20.2C53.2996 20.2 53.2996 20.2 53.3996 20.2C53.5996 20.2 53.7996 20.3 53.9996 20.3C54.0996 20.3 54.2996 20.4 54.3996 20.4H54.4996C54.5996 20.4 54.6996 20.5 54.8996 20.5C54.8996 20.5 54.8996 20.5 54.9996 20.5C59.0996 22 61.9996 26.2 62.5996 31.5H37.8996C39.0996 27.9 41.2996 24.7 44.1996 22.5ZM9.19961 24.7C8.59961 24.1 8.59961 23.2 9.19961 22.7L22.6996 9.20001C23.2996 8.60001 24.1996 8.60001 24.6996 9.20001L26.8996 11.4L11.3996 26.9L9.19961 24.7ZM6.99961 47.3L3.89961 44.2C2.19961 42.5 2.19961 39.8 3.89961 38.1L38.0996 3.90001C38.8996 3.10001 39.9996 2.60001 41.1996 2.60001C42.2996 2.60001 43.3996 3.00001 44.1996 3.90001L47.2996 7.00001L6.99961 47.3ZM63.4996 88.4L62.9996 91.9C62.6996 93.9 60.9996 95.3 58.9996 95.3H28.5996C26.5996 95.3 24.8996 93.8 24.5996 91.9L24.0996 88.4L17.0996 41L23.6996 34.4H71.3996L63.4996 88.4ZM54.3996 68.4L54.7996 69L55.5996 70.4C55.9996 71.1 55.4996 71.9 54.6996 71.9H48.6996L51.1996 69.4L49.2996 67.5L44.5996 72.2C44.0996 72.7 44.0996 73.6 44.5996 74.1L49.2996 78.8L51.1996 76.9L48.6996 74.4H55.4996C56.2996 74.4 56.9996 74.1 57.5996 73.6C58.1996 73.1 58.5996 72.4 58.6996 71.7C58.6996 71.5 58.6996 71.3 58.6996 71.2C58.6996 70.7 58.5996 70.2 58.3996 69.7C58.2996 69.6 58.2996 69.5 58.1996 69.4L54.1996 62.4L51.8996 63.7L54.3996 68.4ZM41.6996 53.6L41.9996 53L42.8996 51.4C43.1996 50.8 44.0996 50.8 44.4996 51.4L45.3996 53L45.6996 53.6L47.4996 56.7L44.1996 55.8L43.4996 58.4L49.9996 60.1C50.0996 60.1 50.1996 60.1 50.2996 60.1C50.8996 60.1 51.3996 59.7 51.5996 59.1L53.2996 52.6L50.8996 52L49.9996 55.3L46.6996 49.5C46.5996 49.4 46.5996 49.3 46.4996 49.2C45.8996 48.3 44.8996 47.8 43.7996 47.8C42.6996 47.8 41.6996 48.3 41.0996 49.2L40.7996 49.7L36.7996 56.7L39.0996 58L41.6996 53.6ZM32.6996 63.9L29.4996 69.5L29.0996 70C28.8996 70.4 28.7996 70.9 28.7996 71.3C28.7996 72.3 29.2996 73.2 29.9996 73.8C30.5996 74.3 31.2996 74.5 32.0996 74.5H40.3996V71.8H32.7996C31.9996 71.8 31.5996 71 31.8996 70.3L32.7996 68.8L33.0996 68.2L34.8996 65.1L35.7996 68.4L38.3996 67.7L36.6996 61.2C36.5996 60.9 36.3996 60.6 36.0996 60.4C35.7996 60.2 35.3996 60.2 35.0996 60.3L28.5996 62L29.2996 64.6L32.6996 63.9ZM32.7996 71.9C31.9996 71.9 31.5996 71.1 31.8996 70.4L32.7996 68.9L33.0996 68.3L34.8996 65.2L35.7996 68.5L38.3996 67.8L36.6996 61.3C36.5996 61 36.3996 60.7 36.0996 60.5C35.7996 60.3 35.3996 60.3 35.0996 60.4L28.5996 62.1L29.2996 64.7L32.6996 63.8L29.4996 69.4L29.0996 70C28.8996 70.4 28.7996 70.9 28.7996 71.3C28.7996 72.3 29.2996 73.2 29.9996 73.8C30.5996 74.3 31.2996 74.5 32.0996 74.5H40.3996V71.8H32.7996V71.9ZM50.8996 52L49.9996 55.3L46.6996 49.5C46.5996 49.4 46.5996 49.3 46.4996 49.2C45.8996 48.3 44.8996 47.8 43.7996 47.8C42.6996 47.8 41.6996 48.3 41.0996 49.2L40.7996 49.7L36.7996 56.7L39.0996 58L41.6996 53.5L41.9996 52.9L42.8996 51.3C43.1996 50.7 44.0996 50.7 44.4996 51.3L45.3996 52.9L45.6996 53.5L47.4996 56.6L44.1996 55.7L43.4996 58.3L49.9996 60C50.0996 60 50.1996 60 50.2996 60C50.8996 60 51.3996 59.6 51.5996 59L53.2996 52.5L50.8996 52ZM58.3996 69.9C58.2996 69.8 58.2996 69.7 58.1996 69.6L54.1996 62.6L51.8996 63.9L54.4996 68.4L54.8996 69L55.6996 70.4C56.0996 71.1 55.5996 71.9 54.7996 71.9H48.7996L51.2996 69.4L49.3996 67.5L44.6996 72.2C44.1996 72.7 44.1996 73.6 44.6996 74.1L49.3996 78.8L51.2996 76.9L48.7996 74.4H55.5996C56.3996 74.4 57.0996 74.1 57.6996 73.6C58.2996 73.1 58.6996 72.4 58.7996 71.7C58.7996 71.5 58.7996 71.3 58.7996 71.2C58.7996 70.9 58.5996 70.4 58.3996 69.9ZM50.8996 52L49.9996 55.3L46.6996 49.5C46.5996 49.4 46.5996 49.3 46.4996 49.2C45.8996 48.3 44.8996 47.8 43.7996 47.8C42.6996 47.8 41.6996 48.3 41.0996 49.2L40.7996 49.7L36.7996 56.7L39.0996 58L41.6996 53.5L41.9996 52.9L42.8996 51.3C43.1996 50.7 44.0996 50.7 44.4996 51.3L45.3996 52.9L45.6996 53.5L47.4996 56.6L44.1996 55.7L43.4996 58.3L49.9996 60C50.0996 60 50.1996 60 50.2996 60C50.8996 60 51.3996 59.6 51.5996 59L53.2996 52.5L50.8996 52Z" fill="url(#paint0_linear_108_43)"/>
</g>
</g>
<defs>
<linearGradient id="paint0_linear_108_43" x1="78.9375" y1="48.9875" x2="-0.0253906" y2="48.9875" gradientUnits="userSpaceOnUse">
<stop stop-color="#3377FE"/>
<stop offset="1" stop-color="#04E9EC"/>
</linearGradient>
<clipPath id="clip0_108_43">
<rect width="79" height="98" fill="white"/>
</clipPath>
</defs>
</svg>
