<svg width="17" height="14" viewBox="0 0 17 14" fill="none" xmlns="http://www.w3.org/2000/svg">
<g clip-path="url(#clip0_107_23)">
<path d="M16.0944 3.35702L16.6652 3.50996L16.8171 2.93976L16.2474 2.78624L16.0944 3.35702ZM0.46599 11.6986C0.330435 11.7769 0.231522 11.9058 0.19101 12.057C0.150498 12.2082 0.171707 12.3693 0.249969 12.5048C0.328232 12.6404 0.457139 12.7393 0.60833 12.7798C0.759522 12.8203 0.920614 12.7991 1.05617 12.7208L0.46599 11.6986ZM14.073 13.1844L16.6652 3.50996L15.5236 3.20408L12.9314 12.8785L14.073 13.1844ZM16.2474 2.78624L6.57293 0.193985L6.26705 1.33556L15.9415 3.92781L16.2474 2.78624ZM15.7993 2.84592L0.46599 11.6986L1.05617 12.7208L16.3895 3.86813L15.7993 2.84592Z" fill="#3377FE"/>
</g>
<defs>
<clipPath id="clip0_107_23">
<rect width="17" height="14" fill="white"/>
</clipPath>
</defs>
</svg>
