<svg width="129" height="106" viewBox="0 0 129 106" fill="none" xmlns="http://www.w3.org/2000/svg">
<g clip-path="url(#clip0_108_49)">
<path d="M52.6 105.8H25C24.1 105.8 23.3 105.1 23.3 104.1V50.4C23.3 49.5 24 48.7 25 48.7H46.4C47.3 48.7 48.1 49.4 48.1 50.4C48.1 51.4 47.4 52.1 46.4 52.1H26.7V102.5H52.6C53.5 102.5 54.3 103.2 54.3 104.2C54.3 105.2 53.6 105.8 52.6 105.8ZM102 105.8H74.4C73.5 105.8 72.7 105.1 72.7 104.1C72.7 103.1 73.4 102.4 74.4 102.4H100.3V53.1L80.6 63.1C79.8 63.5 78.8 63.2 78.3 62.4C77.9 61.6 78.2 60.6 79 60.1L99.2 49.8C100.1 49.3 101.2 49.4 102.1 50C103 50.5 103.5 51.5 103.5 52.5V104.2C103.6 105.1 102.9 105.8 102 105.8ZM79.8 105.8H46.4C45.5 105.8 44.7 105.1 44.7 104.1V24.3C44.7 23.4 45.4 22.6 46.4 22.6H79.8C80.7 22.6 81.5 23.3 81.5 24.3V104.2C81.5 105.1 80.8 105.8 79.8 105.8ZM48.1 102.4H78.2V25.9H48.1V102.4ZM54.1 36.8H52.3C51.4 36.8 50.6 36.1 50.6 35.1C50.6 34.1 51.3 33.4 52.3 33.4H54.1C55 33.4 55.8 34.1 55.8 35.1C55.8 36.1 55.1 36.8 54.1 36.8ZM73.9 36.8H61.2C60.3 36.8 59.5 36.1 59.5 35.1C59.5 34.1 60.2 33.4 61.2 33.4H73.9C74.8 33.4 75.6 34.1 75.6 35.1C75.6 36.1 74.9 36.8 73.9 36.8ZM54.1 48.4H52.3C51.4 48.4 50.6 47.7 50.6 46.7C50.6 45.7 51.3 45 52.3 45H54.1C55 45 55.8 45.7 55.8 46.7C55.8 47.7 55.1 48.4 54.1 48.4ZM73.9 48.4H61.2C60.3 48.4 59.5 47.7 59.5 46.7C59.5 45.7 60.2 45 61.2 45H73.9C74.8 45 75.6 45.7 75.6 46.7C75.6 47.7 74.9 48.4 73.9 48.4ZM54.1 60H52.3C51.4 60 50.6 59.3 50.6 58.3C50.6 57.3 51.3 56.6 52.3 56.6H54.1C55 56.6 55.8 57.3 55.8 58.3C55.8 59.3 55.1 60 54.1 60ZM73.9 60H61.2C60.3 60 59.5 59.3 59.5 58.3C59.5 57.3 60.2 56.6 61.2 56.6H73.9C74.8 56.6 75.6 57.3 75.6 58.3C75.6 59.3 74.9 60 73.9 60ZM54.1 71.6H52.3C51.4 71.6 50.6 70.9 50.6 69.9C50.6 68.9 51.3 68.2 52.3 68.2H54.1C55 68.2 55.8 68.9 55.8 69.9C55.8 70.9 55.1 71.6 54.1 71.6ZM73.9 71.6H61.2C60.3 71.6 59.5 70.9 59.5 69.9C59.5 68.9 60.2 68.2 61.2 68.2H73.9C74.8 68.2 75.6 68.9 75.6 69.9C75.6 70.9 74.9 71.6 73.9 71.6ZM54.1 83.3H52.3C51.4 83.3 50.6 82.6 50.6 81.6C50.6 80.6 51.3 79.9 52.3 79.9H54.1C55 79.9 55.8 80.6 55.8 81.6C55.8 82.6 55.1 83.3 54.1 83.3ZM73.9 83.3H61.2C60.3 83.3 59.5 82.6 59.5 81.6C59.5 80.6 60.2 79.9 61.2 79.9H73.9C74.8 79.9 75.6 80.6 75.6 81.6C75.6 82.6 74.9 83.3 73.9 83.3ZM54.1 94.9H52.3C51.4 94.9 50.6 94.2 50.6 93.2C50.6 92.2 51.3 91.5 52.3 91.5H54.1C55 91.5 55.8 92.2 55.8 93.2C55.8 94.2 55.1 94.9 54.1 94.9ZM73.9 94.9H61.2C60.3 94.9 59.5 94.2 59.5 93.2C59.5 92.2 60.2 91.5 61.2 91.5H73.9C74.8 91.5 75.6 92.2 75.6 93.2C75.6 94.2 74.9 94.9 73.9 94.9ZM40.5 61.8H31.6C30.7 61.8 29.9 61.1 29.9 60.1C29.9 59.1 30.6 58.4 31.6 58.4H40.5C41.4 58.4 42.2 59.1 42.2 60.1C42.2 61.1 41.5 61.8 40.5 61.8ZM40.5 73.4H31.6C30.7 73.4 29.9 72.7 29.9 71.7C29.9 70.7 30.6 70 31.6 70H40.5C41.4 70 42.2 70.7 42.2 71.7C42.2 72.7 41.5 73.4 40.5 73.4ZM40.5 85.1H31.6C30.7 85.1 29.9 84.4 29.9 83.4C29.9 82.4 30.6 81.7 31.6 81.7H40.5C41.4 81.7 42.2 82.4 42.2 83.4C42.2 84.4 41.5 85.1 40.5 85.1ZM40.5 96.7H31.6C30.7 96.7 29.9 96 29.9 95C29.9 94 30.6 93.3 31.6 93.3H40.5C41.4 93.3 42.2 94 42.2 95C42.2 96 41.5 96.7 40.5 96.7ZM94.3 71.5H86.6C85.7 71.5 84.9 70.8 84.9 69.8C84.9 68.8 85.6 68.1 86.6 68.1H94.3C95.2 68.1 96 68.8 96 69.8C96 70.8 95.2 71.5 94.3 71.5ZM94.3 79.3H86.6C85.7 79.3 84.9 78.6 84.9 77.6C84.9 76.6 85.6 75.9 86.6 75.9H94.3C95.2 75.9 96 76.6 96 77.6C96 78.6 95.2 79.3 94.3 79.3ZM94.3 87.1H86.6C85.7 87.1 84.9 86.4 84.9 85.4C84.9 84.4 85.6 83.7 86.6 83.7H94.3C95.2 83.7 96 84.4 96 85.4C96 86.4 95.2 87.1 94.3 87.1ZM94.3 95H86.6C85.7 95 84.9 94.3 84.9 93.3C84.9 92.3 85.6 91.6 86.6 91.6H94.3C95.2 91.6 96 92.3 96 93.3C95.9 94.2 95.2 95 94.3 95ZM72 25.9C71.1 25.9 70.3 25.2 70.3 24.2V20.4H54.3V24.2C54.3 25.1 53.6 25.9 52.6 25.9C51.6 25.9 50.9 25.2 50.9 24.2V18.7C50.9 17.8 51.6 17 52.6 17H72C72.9 17 73.7 17.7 73.7 18.7V24.2C73.7 25.2 72.9 25.9 72 25.9ZM62.3 20.5C61.4 20.5 60.6 19.8 60.6 18.8V1.7C60.6 0.8 61.3 0 62.3 0C63.3 0 64 0.7 64 1.7V18.8C64 19.7 63.3 20.5 62.3 20.5ZM126.6 105.8H1.7C0.8 105.8 0 105.1 0 104.1C0 103.1 0.7 102.4 1.7 102.4H126.6C127.5 102.4 128.3 103.1 128.3 104.1C128.3 105.1 127.5 105.8 126.6 105.8ZM118.4 105.8C117.5 105.8 116.7 105.1 116.7 104.1V84.4C116.7 83.5 117.4 82.7 118.4 82.7C119.4 82.7 120.1 83.4 120.1 84.4V104.1C120 105 119.3 105.8 118.4 105.8ZM118.9 95.2C114.1 95.2 110.1 91.2 110.1 86.4C110.1 81.6 114.1 77.6 118.9 77.6C123.7 77.6 127.7 81.6 127.7 86.4C127.7 91.2 123.8 95.2 118.9 95.2ZM118.9 81C115.9 81 113.5 83.4 113.5 86.4C113.5 89.4 115.9 91.8 118.9 91.8C121.9 91.8 124.3 89.4 124.3 86.4C124.4 83.4 121.9 81 118.9 81ZM118.4 91.4C117.9 91.4 117.4 91.2 117.1 90.7C116.5 90 116.7 88.9 117.4 88.3L121.2 85.5C121.9 84.9 123 85.1 123.6 85.8C124.2 86.5 124 87.6 123.3 88.2L119.5 91C119.1 91.2 118.7 91.4 118.4 91.4ZM8.7 105.8C7.8 105.8 7 105.1 7 104.1V84.2C7 83.3 7.7 82.5 8.7 82.5C9.7 82.5 10.4 83.2 10.4 84.2V104.1C10.4 105 9.7 105.8 8.7 105.8ZM9.3 95C4.5 95 0.5 91 0.5 86.2C0.5 81.4 4.5 77.4 9.3 77.4C14.1 77.4 18.1 81.4 18.1 86.2C18.1 91 14.2 95 9.3 95ZM9.3 80.8C6.3 80.8 3.9 83.2 3.9 86.2C3.9 89.2 6.3 91.6 9.3 91.6C12.3 91.6 14.7 89.2 14.7 86.2C14.7 83.2 12.3 80.8 9.3 80.8ZM8.7 91.2C8.2 91.2 7.7 91 7.4 90.5C6.8 89.8 7 88.7 7.7 88.1L11.5 85.3C12.2 84.7 13.3 84.9 13.9 85.6C14.5 86.3 14.3 87.4 13.6 88L9.8 90.8C9.5 91.1 9.1 91.2 8.7 91.2Z" fill="url(#paint0_linear_108_49)"/>
</g>
<defs>
<linearGradient id="paint0_linear_108_49" x1="128.3" y1="52.9" x2="0" y2="52.9" gradientUnits="userSpaceOnUse">
<stop stop-color="#3377FE"/>
<stop offset="1" stop-color="#04E9EC"/>
</linearGradient>
<clipPath id="clip0_108_49">
<rect width="129" height="106" fill="white"/>
</clipPath>
</defs>
</svg>
