<svg width="18" height="18" viewBox="0 0 18 18" fill="none" xmlns="http://www.w3.org/2000/svg">
<path d="M10.5801 1.00008C12.2158 1.17243 13.7437 1.89789 14.911 3.05651C16.0784 4.21512 16.8153 5.73747 17 7.37179M10.5801 4.21001C11.3694 4.36564 12.0936 4.75492 12.6589 5.32731C13.2241 5.89971 13.6043 6.6288 13.7499 7.41994M16.9599 12.9731V15.3806C16.9608 15.6041 16.915 15.8253 16.8255 16.0301C16.7359 16.2348 16.6046 16.4187 16.4399 16.5697C16.2752 16.7208 16.0808 16.8359 15.8691 16.9075C15.6574 16.9791 15.4331 17.0057 15.2105 16.9855C12.7412 16.7169 10.3692 15.8731 8.28503 14.5219C6.3461 13.2898 4.70222 11.646 3.47014 9.70702C2.11419 7.61337 1.27022 5.22989 1.00651 2.74949C0.98646 2.52758 1.01283 2.30392 1.08395 2.09276C1.15507 1.8816 1.26938 1.68756 1.4196 1.52299C1.56983 1.35843 1.75267 1.22695 1.95649 1.13692C2.16031 1.04689 2.38064 1.00029 2.60345 1.00008H5.0109C5.40035 0.996245 5.77791 1.13416 6.0732 1.3881C6.36849 1.64205 6.56136 1.99471 6.61587 2.38035C6.71721 3.15084 6.90566 3.90734 7.17761 4.63533C7.28558 4.92255 7.30894 5.23471 7.24494 5.53481C7.18094 5.83491 7.03225 6.11038 6.81649 6.32857L5.79734 7.34772C6.93972 9.35677 8.60318 11.0202 10.6122 12.1626L11.6314 11.1435C11.8496 10.9277 12.125 10.779 12.4251 10.715C12.7252 10.651 13.0374 10.6744 13.3246 10.7823C14.0526 11.0543 14.8091 11.2427 15.5796 11.3441C15.9694 11.3991 16.3254 11.5954 16.5799 11.8958C16.8344 12.1961 16.9696 12.5796 16.9599 12.9731Z" stroke="white" stroke-linecap="round" stroke-linejoin="round"/>
</svg>
