<svg width="115" height="68" viewBox="0 0 115 68" fill="none" xmlns="http://www.w3.org/2000/svg">
<g clip-path="url(#clip0_95_304)">
<path d="M35.2823 44.9403C34.157 44.7442 33.1802 44.4128 32.3499 43.9577C31.5196 43.4967 30.8648 42.9026 30.3905 42.1845C29.9144 41.459 29.6764 40.5771 29.6764 39.5449V37.9775V36.6939C29.6764 36.2996 29.684 35.9245 29.703 35.555C29.7201 35.1893 29.7297 34.8122 29.7297 34.4199C29.7297 33.2334 29.7201 32.2793 29.703 31.5479C29.684 30.8166 29.6592 30.2719 29.6212 29.9062C30.0324 29.9367 30.4475 29.9633 30.8779 29.9844C31.3044 30.0072 31.7233 30.0167 32.1308 30.0167C32.5402 30.0167 32.9592 30.0072 33.3856 29.9844C33.8042 29.9638 34.2226 29.9377 34.6405 29.9062C34.4348 31.3213 34.311 32.6412 34.273 33.86C34.234 35.0976 34.2143 36.3357 34.2139 37.5738C34.2139 38.8993 34.3435 39.9773 34.6042 40.7942C34.8689 41.6133 35.2556 42.2417 35.7695 42.6873C36.2836 43.1368 36.9139 43.4301 37.6623 43.5749C38.4067 43.7195 39.2789 43.7957 40.2653 43.7957C41.4801 43.7957 42.4245 43.5749 43.1139 43.1387C43.8013 42.6987 44.3174 42.116 44.6714 41.3827C45.0256 40.6552 45.2427 39.821 45.3245 38.8764C45.4027 37.9318 45.4427 36.9528 45.4427 35.9301C45.4427 34.9227 45.4216 33.919 45.376 32.9172C45.3342 31.9173 45.2656 30.9098 45.1817 29.9061C45.4617 29.9366 45.7359 29.9632 45.9968 29.9843C46.2596 30.0071 46.5033 30.0166 46.7205 30.0166C46.9851 30.0166 47.2383 30.0071 47.4821 29.9843C47.726 29.9632 47.9752 29.9366 48.24 29.9061C48.2 30.226 48.1638 30.6547 48.1258 31.2013C48.0824 31.8236 48.0443 32.4464 48.0116 33.0695C47.9696 33.8505 47.9372 34.6321 47.9145 35.414C47.8848 36.3151 47.8702 37.2167 47.8707 38.1183C47.8707 40.6607 47.109 42.4816 45.5914 43.5823C44.0718 44.685 41.844 45.2372 38.9096 45.2372C37.615 45.2375 36.4058 45.1385 35.2823 44.9403ZM110.232 32.7383C110.187 31.7929 110.121 30.8487 110.034 29.9062C110.377 29.9367 110.746 29.9633 111.152 29.9844C111.553 30.0072 112.007 30.0167 112.513 30.0167C113.016 30.0167 113.467 30.0072 113.869 29.9844C114.273 29.9633 114.648 29.9367 114.991 29.9062C114.921 30.8493 114.868 31.7934 114.831 32.7383C114.794 33.6772 114.779 34.7515 114.779 35.9645V38.9373C114.779 40.1524 114.794 41.2246 114.831 42.1674C114.867 43.1062 114.922 44.03 114.991 44.9346C114.648 44.908 114.273 44.8945 113.869 44.8945H111.152C110.746 44.8945 110.377 44.9079 110.034 44.9346C110.122 44.03 110.186 43.1062 110.232 42.1674C110.274 41.2246 110.297 40.1524 110.297 38.9373V35.9645C110.297 34.7514 110.274 33.6772 110.232 32.7383ZM18.8249 33.5686C18.2593 32.6563 17.4614 31.9307 16.4313 31.3937C15.3973 30.8528 14.1672 30.4719 12.7429 30.2433C11.3166 30.0167 9.7363 29.9062 7.99016 29.9062C6.65539 29.9062 5.57188 29.9253 4.74171 29.9633C3.91341 30.0015 3.16498 30.0167 2.5005 30.0167C1.9902 30.0167 1.53512 30.0072 1.13155 29.9844C0.729718 29.9633 0.350796 29.9367 0.0100098 29.9062C0.0803528 30.6833 0.13372 31.4622 0.177554 32.2336C1.17154 31.5594 4.22769 31.3195 4.80647 31.2814V31.2718C5.27306 31.2414 5.72989 31.2166 6.18124 31.1938C6.63435 31.1747 7.22662 31.1632 7.95598 31.1632C8.99752 31.1632 9.94768 31.2965 10.795 31.5651C11.6424 31.8355 12.3678 32.2222 12.9734 32.725C13.5769 33.226 14.0492 33.8353 14.3806 34.5533C14.7119 35.2656 14.8795 36.0771 14.8795 36.9778C14.8795 39.2518 14.213 40.9525 12.8839 42.0724C11.551 43.1941 9.74769 43.756 7.46858 43.756C6.84398 43.756 6.3203 43.7465 5.89383 43.7332C5.47107 43.7142 5.11122 43.6989 4.80647 43.6818C4.80647 43.5772 4.79892 43.3561 4.78369 43.0057C4.76546 42.6207 4.75659 42.2353 4.75706 41.8498V34.4395L4.72846 33.1311C4.72846 32.6912 4.74183 32.3007 4.77031 31.9484C4.77613 31.855 4.78369 31.7732 4.78555 31.697C4.14199 32.3788 1.14864 35.2204 0.272779 36.0468V38.9378C0.272779 40.1529 0.248013 41.2251 0.208017 42.1679C0.161286 43.0916 0.0952688 44.0142 0.0100098 44.9351C0.350912 44.9085 0.729718 44.895 1.13155 44.895H2.5005C3.28695 44.895 4.21803 44.8988 5.29202 44.916C6.36414 44.9256 7.65891 44.9351 9.17646 44.9351C10.6123 44.9351 11.9643 44.7503 13.2247 44.3847C14.4947 44.0229 15.6049 43.4935 16.5664 42.8021C17.5262 42.1089 18.2859 41.2766 18.8419 40.294C19.3998 39.3207 19.6778 38.2256 19.6778 37.0145C19.6778 35.6274 19.3941 34.4828 18.8249 33.5686ZM100.214 41.8341C99.502 40.6113 95.0025 32.3764 93.7115 29.8262C93.4164 29.3101 92.5975 27.6665 92.5384 27.6665C92.5194 27.6665 91.6644 29.4168 91.4036 29.8262C89.5812 33.2505 84.1259 42.693 83.7183 43.3596C83.4008 43.8884 83.0771 44.4135 82.7471 44.9346C83.0308 44.908 83.2936 44.8945 83.5354 44.8945H84.9808C85.2111 44.8945 85.4511 44.9079 85.6929 44.9346C85.9785 44.2204 86.2927 43.4967 86.6374 42.7501C86.9783 42.0151 90.4018 35.4426 91.4035 34.0428C92.8658 36.3739 95.5544 42.0151 95.8992 42.7501C96.2355 43.4772 96.5694 44.2053 96.9007 44.9346C97.3292 44.908 97.7595 44.8945 98.1955 44.8945H100.774C101.206 44.8945 101.671 44.9079 102.156 44.9346C101.572 44.0871 100.924 43.0549 100.214 41.8341ZM69.9209 42.0531C69.7399 42.4188 69.4982 42.7273 69.1955 42.9845C68.8802 43.2414 68.519 43.4359 68.131 43.5578C67.7236 43.691 67.299 43.7558 66.8534 43.7558C66.5107 43.7558 64.0048 43.7538 63.761 43.7463C63.5155 43.7387 63.2546 43.733 62.9707 43.7158C62.9118 40.7542 62.8737 34.0162 63.0241 31.2242C63.2278 31.1937 63.4126 31.1746 63.5878 31.1671C63.761 31.1632 66.2802 31.1575 66.7278 31.1575C67.337 31.1575 67.8455 31.228 68.2511 31.3671C68.6548 31.5022 68.9918 31.689 69.2546 31.9118C69.5211 32.1384 69.7022 32.4088 69.8144 32.725C69.9287 33.0412 69.9819 33.3725 69.9819 33.721C69.9819 34.1914 69.881 34.6027 69.6791 34.9532C69.4798 35.2959 69.2082 35.5911 68.8832 35.818C68.5596 36.0428 68.1882 36.2141 67.7731 36.3322C67.3618 36.4491 66.9363 36.5087 66.5087 36.5092H64.2524V37.7719C65.0636 37.7604 66.2536 37.7586 66.4441 37.7586C67.6647 37.7586 68.5939 38.0119 69.2394 38.5146C69.8734 39.0156 70.1971 39.7736 70.1971 40.7925C70.197 41.2705 70.1038 41.6951 69.9209 42.0531ZM74.3557 38.9641C73.9577 38.5032 73.4799 38.1281 72.9105 37.8405C72.3487 37.5472 71.7527 37.3339 71.1262 37.193C70.5016 37.0558 69.9552 36.9777 69.4982 36.9645V36.9224C69.9627 36.8654 70.4844 36.7568 71.0633 36.5949C71.6422 36.4349 72.183 36.214 72.6858 35.9283C73.1808 35.6427 73.5996 35.2847 73.9462 34.8523C74.291 34.4219 74.468 33.9058 74.468 33.3078C74.468 32.7079 74.3196 32.1917 74.0299 31.7594C73.7329 31.3272 73.3141 30.9768 72.7637 30.7082C72.221 30.4358 71.5736 30.2341 70.8234 30.1025C70.0788 29.9711 69.2466 29.9064 68.3383 29.9064C67.4682 29.9064 64.3416 29.9254 63.3933 29.9635C62.4413 30.0016 61.5291 30.0168 60.6588 30.0168C60.1562 30.0168 59.6992 30.0073 59.2936 29.9845C58.8919 29.9635 58.5148 29.9368 58.1721 29.9064C58.2636 30.853 58.3245 31.7976 58.3701 32.7384C58.4159 33.6773 58.4387 34.7516 58.4387 35.9646V38.9374C58.4387 40.1526 58.4159 41.2248 58.3701 42.1675C58.3244 43.1063 58.2636 44.0301 58.1721 44.9348C58.5148 44.9081 58.9699 44.8946 59.5488 44.8946H61.2282C61.9957 44.8946 62.7269 44.8985 63.4237 44.9157C64.1169 44.9252 67.0837 44.9348 67.891 44.9348C68.8012 44.9348 69.677 44.8623 70.5206 44.7252C71.3717 44.59 72.1201 44.3462 72.7752 43.9939C73.432 43.6453 73.9576 43.192 74.3556 42.6416C74.7421 42.0874 74.9384 41.4151 74.9384 40.6325C74.9385 39.9773 74.7422 39.4211 74.3557 38.9641Z" fill="white"/>
<path d="M92.5386 27.6476L82.8369 11.4175L91.8494 20.0087L109.31 0L92.5386 27.6476Z" fill="white"/>
<path d="M21.1097 63.174C20.7556 63.1626 20.4033 63.1608 20.0491 63.1608C19.695 63.1608 19.3427 63.1608 18.9885 63.1703C18.6343 63.1779 18.2802 63.1912 17.9259 63.2083V64.0025C17.9259 64.7777 17.9335 65.4633 17.9545 66.0613C17.9736 66.6649 18.004 67.2497 18.044 67.8268C17.8722 67.8055 17.6993 67.7948 17.5262 67.7945H16.2676C16.0957 67.7947 15.924 67.8055 15.7534 67.8268C15.7914 67.2497 15.8199 66.6631 15.839 66.0594C15.8581 65.4596 15.8696 64.7778 15.8696 64.0007V62.1038C15.8696 61.3306 15.8581 60.6468 15.839 60.043C15.8197 59.4395 15.7912 58.8364 15.7534 58.2338C15.9096 58.2566 16.0808 58.2756 16.2676 58.2946C16.456 58.3137 16.6654 58.3175 16.8977 58.3175C17.13 58.3175 17.3376 58.3137 17.5262 58.2946C17.7147 58.2756 17.886 58.2566 18.044 58.2338C17.996 58.8308 17.9637 59.429 17.947 60.0278C17.9299 60.6259 17.9259 61.3077 17.9259 62.0771C18.1658 62.0884 18.4591 62.098 18.8 62.1037C19.1409 62.1112 19.5617 62.1131 20.0624 62.1131C20.5651 62.1131 20.9745 62.1112 21.2925 62.1037C21.6086 62.0979 21.9017 62.0883 22.1742 62.0771C22.1742 61.3077 22.1627 60.6259 22.1456 60.0278C22.1244 59.4294 22.0953 58.8314 22.058 58.2338C22.2142 58.2566 22.3854 58.2756 22.572 58.2946C22.7606 58.3137 22.9682 58.3175 23.2043 58.3175C23.4329 58.3175 23.6423 58.3137 23.8309 58.2946C24.0213 58.2756 24.1907 58.2566 24.3507 58.2338C24.3069 58.8413 24.2784 59.4469 24.2574 60.043C24.2383 60.6506 24.2326 61.3362 24.2326 62.1132V64.0083C24.2326 64.7796 24.2383 65.4633 24.2574 66.0613C24.2784 66.6669 24.3069 67.2535 24.3507 67.8268C24.1783 67.8055 24.0047 67.7948 23.8309 67.7945H22.572C22.3855 67.7945 22.2142 67.8077 22.058 67.8268C22.096 67.2497 22.1246 66.665 22.1456 66.0613C22.1649 65.3752 22.1744 64.6888 22.1742 64.0025V63.2083C21.818 63.1988 21.4657 63.1855 21.1097 63.174ZM37.4227 61.123C37.2742 60.6468 37.0704 60.2375 36.8056 59.9022C36.5372 59.5671 36.2211 59.3137 35.8441 59.1291C35.465 58.95 35.0595 58.8566 34.6101 58.8566C34.1378 58.8566 33.7133 58.9728 33.3401 59.1976C32.9649 59.4281 32.645 59.7347 32.3861 60.127C32.1271 60.5135 31.9291 60.9745 31.7958 61.4983C31.6587 62.0201 31.5941 62.5819 31.5941 63.1741C31.5941 63.9207 31.6721 64.5416 31.8283 65.052C31.9863 65.5642 32.2035 65.9775 32.4701 66.288C32.7385 66.5984 33.049 66.8212 33.3993 66.9622C33.7534 67.1031 34.1228 67.1717 34.5151 67.1717C34.9322 67.1717 35.3302 67.0822 35.7091 66.9051C36.0899 66.7281 36.4232 66.4614 36.7049 66.0977C36.9885 65.7376 37.2153 65.2768 37.3865 64.7207C37.558 64.1626 37.6494 63.5037 37.6494 62.7419C37.6493 62.1418 37.5692 61.5991 37.4227 61.123ZM29.6841 61.1173C29.9392 60.5117 30.3012 59.9841 30.7638 59.5289C31.2284 59.0718 31.7921 58.7157 32.4527 58.4586C33.1115 58.1958 33.8447 58.0625 34.654 58.0625C35.3966 58.0625 36.0898 58.1691 36.7352 58.371C37.375 58.5767 37.9291 58.8814 38.4033 59.2928C38.8756 59.6985 39.2525 60.2147 39.5267 60.8411C39.8028 61.4715 39.9379 62.2009 39.9379 63.037C39.9379 63.7341 39.8065 64.3834 39.5399 64.9891C39.2735 65.5927 38.9096 66.1165 38.4375 66.5717C37.973 67.0193 37.4093 67.3716 36.7581 67.6211C36.1088 67.8743 35.3909 68.0001 34.6101 68.0001C33.879 68.0001 33.1878 67.9067 32.5461 67.7297C31.8948 67.5449 31.3312 67.2498 30.8552 66.8479C30.3772 66.4422 29.9983 65.928 29.7165 65.2996C29.4385 64.6768 29.3014 63.9246 29.3014 63.0503C29.3014 62.3628 29.429 61.7171 29.6841 61.1173ZM44.9859 60.0431C44.9659 59.4396 44.9367 58.8365 44.8983 58.2339C45.0563 58.2567 45.2277 58.2758 45.4143 58.2947C45.6029 58.3138 45.8104 58.3176 46.0466 58.3176C46.2769 58.3176 46.4865 58.3138 46.6749 58.2947C46.8597 58.2758 47.0329 58.2567 47.1909 58.2339C47.1512 58.8352 47.1207 59.4371 47.0996 60.0393C47.0825 60.6468 47.0748 61.3306 47.0748 62.1V63.9969C47.0748 64.5264 47.0748 65.0386 47.0823 65.5319C47.088 66.0271 47.0956 66.4499 47.1051 66.8175C47.6326 66.8175 48.1638 66.8023 48.697 66.7775C49.2264 66.7509 49.7556 66.705 50.2984 66.6442C50.2793 66.7433 50.2621 66.8365 50.2565 66.9223C50.247 67.0023 50.2413 67.1242 50.2413 67.2728C50.2413 67.4174 50.247 67.5356 50.2565 67.6193C50.2622 67.705 50.2793 67.7735 50.2984 67.8269C50.0488 67.8174 49.7367 67.8117 49.371 67.8058C49.0035 67.7983 48.4989 67.7945 47.857 67.7945H45.6463C45.4369 67.7945 45.2769 67.7982 45.1703 67.8058C45.0598 67.8117 44.9723 67.8174 44.898 67.8269C44.936 67.2499 44.9665 66.6632 44.9855 66.0595C45.0046 65.4597 45.0141 64.7779 45.0141 64.0008V62.1039C45.0145 61.3306 45.005 60.6468 44.9859 60.0431ZM57.3896 65.0272V65.8652C57.3896 66.1337 57.3916 66.3775 57.3953 66.6022C57.401 66.827 57.4068 66.9717 57.4068 67.0383C57.5439 67.0459 57.7115 67.0498 57.9058 67.0574C58.1038 67.0669 58.3398 67.0707 58.6293 67.0707C59.6767 67.0707 60.5068 66.7126 61.1219 65.9966C61.7368 65.2805 62.0434 64.1949 62.0434 62.7513C62.0434 62.1743 61.9654 61.6582 61.8131 61.1992C61.6551 60.7459 61.4437 60.3592 61.1619 60.0374C60.8857 59.7155 60.5505 59.4718 60.1602 59.3004C59.7719 59.1271 59.3339 59.0394 58.854 59.0394C58.5151 59.0394 58.2465 59.049 58.0373 59.0605C57.8277 59.0776 57.6202 59.0967 57.407 59.11C57.407 59.1748 57.4011 59.3233 57.3954 59.5424C57.3915 59.7944 57.3896 60.0465 57.3898 60.2985V65.0272H57.3896ZM55.3027 60.0431C55.284 59.4396 55.2542 58.8364 55.2132 58.2339C55.3731 58.2567 55.5426 58.2758 55.7273 58.2947C55.9158 58.3138 56.1233 58.3176 56.3538 58.3176C56.6604 58.3176 57.0032 58.3061 57.3896 58.2758C57.7704 58.2491 58.2712 58.2339 58.8806 58.2339C59.6803 58.2339 60.4078 58.3082 61.0646 58.4509C61.7197 58.5957 62.2813 58.8413 62.7574 59.1822C63.2297 59.5288 63.5973 59.9916 63.8581 60.5725C64.119 61.1592 64.2504 61.8867 64.2504 62.7742C64.2504 63.5456 64.1208 64.2445 63.8656 64.8652C63.6087 65.488 63.2621 66.027 62.8184 66.4669C62.3765 66.9068 61.8662 67.2458 61.2836 67.4781C60.7047 67.7142 60.0858 67.8267 59.4252 67.8267C58.7284 67.8267 58.1304 67.8247 57.6372 67.8114C57.2095 67.8008 56.7816 67.7951 56.3538 67.7943H55.7273C55.5426 67.7943 55.3731 67.8076 55.2132 67.8267C55.2549 67.2496 55.2835 66.6629 55.3027 66.0593C55.3198 65.4595 55.3275 64.7777 55.3275 64.0006V62.1037C55.3275 61.3306 55.3198 60.6468 55.3027 60.0431ZM69.262 60.0431C69.2421 59.4396 69.2129 58.8365 69.1744 58.2339C69.3343 58.2567 69.5076 58.2758 69.6923 58.2947C69.8751 58.3138 70.0845 58.3176 70.3207 58.3176C70.553 58.3176 70.7643 58.3138 70.9472 58.2947C71.1357 58.2758 71.3071 58.2567 71.4671 58.2339C71.4286 58.8365 71.3994 59.4396 71.3794 60.0431C71.3584 60.7299 71.3483 61.4169 71.3489 62.1039V64.0008C71.3489 64.7779 71.3603 65.4597 71.3794 66.0595C71.3985 66.6632 71.4289 67.2499 71.4671 67.8269C71.2946 67.8057 71.121 67.7949 70.9472 67.7946H69.6923C69.5076 67.7946 69.3343 67.8078 69.1744 67.8269C69.2125 67.2499 69.243 66.6632 69.262 66.0595C69.2811 65.4597 69.2925 64.7779 69.2925 64.0008V62.1039C69.2925 61.3306 69.2811 60.6468 69.262 60.0431ZM77.0329 59.3918C77.0158 58.9576 77.0044 58.569 76.9929 58.2339C77.2519 58.291 77.4612 58.3177 77.6212 58.3177C77.7754 58.3177 77.9869 58.2911 78.2477 58.2339C79.2588 59.3556 80.2586 60.4735 81.2487 61.5591C82.2389 62.6485 83.2501 63.755 84.2936 64.8787V62.3132C84.2936 61.8524 84.2897 61.4068 84.2859 60.9687C84.2822 60.5192 84.2764 60.1173 84.2707 59.744C84.2673 59.4228 84.2597 59.1015 84.2479 58.7805C84.2327 58.5118 84.2194 58.3272 84.1984 58.2339C84.4611 58.291 84.6706 58.3177 84.8306 58.3177C84.9885 58.3177 85.1962 58.2911 85.4571 58.2339C85.4057 59.0833 85.3676 59.845 85.3372 60.5306C85.3048 61.2124 85.2838 61.8601 85.2648 62.4676C85.2465 63.0648 85.2338 63.6621 85.2268 64.2596C85.2209 64.85 85.2192 65.4824 85.2192 66.1508V67.8268C85.0307 67.8077 84.8423 67.7945 84.648 67.7945C84.4461 67.7945 84.2652 67.8077 84.1052 67.8268C82.1348 65.5282 80.1069 63.2795 78.0234 61.083C78.0119 61.3515 78.0005 61.622 77.9986 61.8904C77.9928 62.1629 77.9871 62.4389 77.9871 62.717V64.3396C77.9871 64.8938 77.9908 65.3698 77.9986 65.7622C78.0005 66.1507 78.0061 66.484 78.0176 66.7526C78.0251 67.025 78.0328 67.2421 78.0423 67.4172C78.0519 67.5887 78.0614 67.7297 78.0747 67.8267C77.9605 67.8076 77.8519 67.7943 77.7396 67.7943H77.4196C77.2064 67.7943 76.9969 67.8076 76.7818 67.8267C76.8008 67.7524 76.8219 67.4857 76.8561 67.0305C76.8788 66.5734 76.9074 66.0211 76.9437 65.3641C76.9742 64.7071 77.0046 63.9966 77.0274 63.2273C77.0503 62.4579 77.0599 61.7189 77.0599 61.0086C77.0596 60.3669 77.0518 59.8317 77.0329 59.3918ZM97.9863 59.3117C97.5407 59.0527 96.998 58.9251 96.3562 58.9251C95.9297 58.9251 95.5032 59.0185 95.0804 59.1938C94.6559 59.3766 94.2826 59.6489 93.955 60.0107C93.6199 60.3726 93.3533 60.8277 93.1496 61.3686C92.9477 61.9152 92.843 62.5533 92.843 63.2865C92.843 63.8445 92.919 64.3605 93.0733 64.8292C93.2238 65.3053 93.4446 65.7147 93.7341 66.0614C94.0255 66.4119 94.3759 66.6823 94.7947 66.8783C95.2117 67.0707 95.6916 67.1716 96.2285 67.1716C96.3485 67.1716 96.4876 67.1621 96.6398 67.1468C96.7881 67.1365 96.936 67.1219 97.0835 67.103C97.2319 67.0821 97.3653 67.0573 97.4832 67.025C97.6032 66.9907 97.6907 66.9564 97.7479 66.922C97.7632 66.8097 97.7707 66.6688 97.7746 66.503C97.7784 66.3355 97.7822 66.1487 97.7822 65.945C97.7822 65.1927 97.7669 64.6403 97.7403 64.2861C97.7194 64.0418 97.6997 63.7974 97.6812 63.5529C97.7708 63.5718 97.8983 63.5909 98.0545 63.6024C98.2049 63.6177 98.4258 63.6234 98.719 63.6234C99.0522 63.6234 99.2998 63.6177 99.4655 63.6024C99.5946 63.5942 99.7232 63.5776 99.8502 63.5529C99.8311 63.6289 99.8139 63.7491 99.8007 63.9166C99.7848 64.1087 99.7734 64.3011 99.7664 64.4937C99.7564 64.7259 99.7488 64.9583 99.7435 65.1907C99.7397 65.4363 99.736 65.6726 99.736 65.8935V66.3544C99.736 66.5867 99.7397 66.802 99.7435 67.0018C99.7456 67.2018 99.7568 67.3428 99.774 67.4246C99.1615 67.601 98.539 67.7409 97.9099 67.8438C97.2873 67.9466 96.6645 67.9999 96.0514 67.9999C95.2556 67.9999 94.5185 67.8895 93.8427 67.68C93.1744 67.4762 92.5898 67.1695 92.1042 66.7659C91.6148 66.3621 91.2359 65.8708 90.9616 65.2994C90.6836 64.7281 90.5504 64.0862 90.5504 63.3702C90.5504 62.4922 90.6933 61.717 90.9902 61.0523C91.2835 60.3896 91.6833 59.8336 92.1993 59.3935C92.7173 58.9554 93.3305 58.6222 94.0368 58.3994C94.7433 58.1746 95.505 58.0623 96.3239 58.0623C97.0322 58.0623 97.6434 58.1366 98.1576 58.2832C98.6774 58.4242 99.1839 58.6297 99.6885 58.8964C99.6138 59.1337 99.5414 59.3718 99.4714 59.6105C99.3988 59.8438 99.3398 60.081 99.2944 60.321H99.1001C98.8081 59.9063 98.4276 59.5616 97.9863 59.3117Z" fill="white"/>
</g>
<defs>
<clipPath id="clip0_95_304">
<rect width="115" height="68" fill="white"/>
</clipPath>
</defs>
</svg>
