<?xml version="1.0" encoding="utf-8"?>
<!-- Generator: Adobe Illustrator 27.3.1, SVG Export Plug-In . SVG Version: 6.00 Build 0)  -->
<svg version="1.1" id="Layer_1" xmlns="http://www.w3.org/2000/svg" xmlns:xlink="http://www.w3.org/1999/xlink" x="0px" y="0px"
	 viewBox="0 0 87.3 87.5" style="enable-background:new 0 0 87.3 87.5;" xml:space="preserve">
<g>
	<path d="M83,34.1h-5.6c-0.7-2.5-1.7-5-3-7.2l4-4v0c1.7-1.7,1.7-4.4,0-6.1l-7.7-7.7c-1.7-1.6-4.4-1.6-6.1,0l-4,4
		c-2.3-1.3-4.7-2.3-7.2-3V4.5c0-2.4-1.9-4.3-4.3-4.3C23-2.1,0,17.3,0,43.8c0,11.6,4.6,22.6,12.8,30.8c8.2,8.2,19.2,12.8,30.8,12.8
		H49c2.4,0,4.3-1.9,4.3-4.3v-5.6c2.5-0.7,5-1.7,7.3-3l4,4c1.7,1.6,4.4,1.6,6.1,0l7.7-7.7c1.7-1.7,1.7-4.4,0-6.1l-4-4v0
		c1.3-2.3,2.3-4.7,3-7.2H83c2.4,0,4.3-1.9,4.3-4.3V38.4C87.2,36,85.3,34.1,83,34.1L83,34.1z M84.1,49.3c0,0.6-0.5,1.2-1.2,1.2h-6.8
		c-0.7,0-1.3,0.5-1.5,1.2c-0.8,3-2,6-3.6,8.6c-0.4,0.6-0.3,1.4,0.2,1.9l4.8,4.8c0.5,0.5,0.5,1.2,0,1.7l-7.7,7.7
		c-0.5,0.4-1.2,0.4-1.7,0l-4.8-4.8c-0.5-0.5-1.3-0.6-1.9-0.2c-2.7,1.6-5.6,2.8-8.6,3.6c-0.7,0.2-1.2,0.8-1.2,1.5v6.8
		c0,0.6-0.5,1.2-1.2,1.2C24.6,86.5,3.2,68.7,3.1,43.8C3.2,18.9,24.6,1.1,49,3.3c0.6,0,1.2,0.5,1.2,1.2v6.8c0,0.7,0.5,1.3,1.2,1.5
		c3,0.8,6,2,8.6,3.6c0.6,0.4,1.4,0.3,1.9-0.2l4.8-4.8c0.5-0.4,1.2-0.4,1.7,0l7.7,7.7h0c0.5,0.5,0.5,1.2,0,1.7l-4.8,4.8v0
		c-0.5,0.5-0.6,1.3-0.2,1.9c1.6,2.7,2.8,5.6,3.6,8.6c0.2,0.7,0.8,1.2,1.5,1.2H83c0.7,0,1.2,0.5,1.2,1.2L84.1,49.3z"/>
	<path d="M53,27.1c-0.8-0.4-1.7,0-2.1,0.7c-0.4,0.8-0.1,1.7,0.7,2.1c3.5,1.7,6.2,4.7,7.6,8.3c1.4,3.6,1.4,7.6,0,11.3
		c-1.4,3.6-4.1,6.6-7.6,8.3c-0.8,0.4-1.1,1.3-0.7,2.1c0.4,0.8,1.3,1.1,2.1,0.7c4.2-2.1,7.5-5.6,9.2-10c1.7-4.4,1.7-9.2,0-13.5
		C60.5,32.7,57.2,29.2,53,27.1L53,27.1z"/>
	<path d="M45.1,74.7c-10.4,0-20-5.2-25.7-13.9l4.5-2.6v0c0.7-0.4,1-1.4,0.6-2.1c-0.4-0.7-1.4-1-2.1-0.6l-4.5,2.6
		c-4.6-8.8-4.7-19.3-0.2-28.2c0.6,0.2,4.7,2.9,5.2,2.8c0.7,0,1.3-0.5,1.5-1.2c0.2-0.7-0.1-1.4-0.7-1.8l-4.5-2.6
		C24.8,18.4,34.6,13,45.1,13c0.9,0,1.5-0.7,1.5-1.6c0-0.9-0.7-1.5-1.5-1.6C0,11.7,0.1,76,45.1,77.8c0.9,0,1.5-0.7,1.5-1.6
		C46.6,75.4,45.9,74.7,45.1,74.7L45.1,74.7z"/>
	<path d="M46.8,37.1v-8.5c0-0.9-0.7-1.5-1.6-1.5c-0.8,0-1.5,0.7-1.6,1.5v8.5c-2.2,0.5-4.1,2.1-4.9,4.2s-0.7,4.5,0.5,6.5l-4.8,4.8
		c-0.6,0.6-0.6,1.6,0,2.2c0.6,0.6,1.6,0.6,2.2,0l4.8-4.8c1.8,1.1,3.9,1.4,5.9,0.8c2-0.6,3.6-2.1,4.4-4c0.8-1.9,0.7-4.1-0.3-6
		C50.5,38.9,48.8,37.6,46.8,37.1L46.8,37.1z M45.2,48L45.2,48c-2.2,0-3.9-1.8-3.9-4c0-2.2,1.7-3.9,3.9-4c2.2,0,3.9,1.8,3.9,4
		C49.1,46.2,47.4,47.9,45.2,48L45.2,48z"/>
</g>
</svg>
