<svg width="90" height="90" viewBox="0 0 90 90" fill="none" xmlns="http://www.w3.org/2000/svg">
<g clip-path="url(#clip0_108_57)">
<path d="M19.028 32.2901H15.606V28.6101H19.028V32.2901ZM26.906 28.6101H23.484V32.2901H26.906V28.6101ZM19.028 36.6361H15.606V40.3161H19.028V36.6361ZM26.906 36.6361H23.484V40.3161H26.906V36.6361ZM39.291 32.2901H42.713V28.6101H39.291V32.2901ZM47.168 32.2901H50.59V28.6101H47.168V32.2901ZM39.291 40.5161H42.713V36.8371H39.291V40.5161ZM47.168 40.5161H50.59V36.8371H47.168V40.5161ZM67.328 28.6101H63.906V32.2901H67.328V28.6101ZM67.328 36.8371H63.906V40.5161H67.328V36.8371ZM19.028 44.6631H15.606V48.3421H19.028V44.6631ZM90 61.7121V64.4481C89.9997 64.7657 89.8735 65.0703 89.649 65.2951L88.5 66.4481C88.2753 66.6726 87.9707 66.7988 87.653 66.7991H86.371C86.1472 67.5177 85.8587 68.2146 85.509 68.8811L86.409 69.7811C86.6331 70.006 86.759 70.3106 86.759 70.6281V72.2581C86.759 72.5756 86.6331 72.8802 86.409 73.1051L84.474 75.0391C84.2493 75.2636 83.9447 75.3898 83.627 75.3901H82C81.6823 75.3898 81.3777 75.2636 81.153 75.0391L80.253 74.1391C79.5856 74.4887 78.8877 74.7769 78.168 75.0001V76.2801C78.1677 76.5977 78.0415 76.9023 77.817 77.1271L76.665 78.2801C76.4403 78.5046 76.1357 78.6308 75.818 78.6311H75.647V83.3191C75.647 83.6373 75.5206 83.9426 75.2955 84.1676C75.0705 84.3927 74.7653 84.5191 74.447 84.5191H63.577V85.2271C63.5757 86.2447 63.1708 87.2203 62.4511 87.9398C61.7314 88.6594 60.7557 89.064 59.738 89.0651H3.839C2.82099 89.064 1.84499 88.6591 1.12523 87.9391C0.405482 87.2192 0.000794152 86.2431 0 85.2251V81.2631C0.00105887 80.2452 0.405864 79.2694 1.12559 78.5497C1.84531 77.8299 2.82116 77.4251 3.839 77.4241H5.539V75.5781C5.54327 72.1192 6.2336 68.6954 7.57 65.5051V20.7681C7.57 20.4498 7.69643 20.1446 7.92147 19.9196C8.14652 19.6945 8.45174 19.5681 8.77 19.5681H29.02V12.9601C29.02 12.6418 29.1464 12.3366 29.3715 12.1116C29.5965 11.8865 29.9017 11.7601 30.22 11.7601H34.598V6.46008C34.598 6.14182 34.7244 5.8366 34.9495 5.61155C35.1745 5.38651 35.4797 5.26008 35.798 5.26008H42.3V2.13408C42.3 1.81582 42.4264 1.5106 42.6515 1.28555C42.8765 1.06051 43.1817 0.934082 43.5 0.934082C43.8183 0.934082 44.1235 1.06051 44.3485 1.28555C44.5736 1.5106 44.7 1.81582 44.7 2.13408V5.27008H51.211C51.5293 5.27008 51.8345 5.39651 52.0595 5.62155C52.2846 5.8466 52.411 6.15182 52.411 6.47008V11.7701H56.79C57.1083 11.7701 57.4135 11.8965 57.6385 12.1216C57.8636 12.3466 57.99 12.6518 57.99 12.9701V15.5561L74.661 18.4391C74.9388 18.4877 75.1906 18.6327 75.3722 18.8484C75.5537 19.0642 75.6535 19.3371 75.654 19.6191V47.5301H75.825C76.1427 47.5304 76.4473 47.6566 76.672 47.8811L77.824 49.0331C78.0485 49.2578 78.1747 49.5624 78.175 49.8801V51.1591C78.8937 51.3827 79.5906 51.6712 80.257 52.0211L81.157 51.1211C81.3801 50.8961 81.6832 50.7685 82 50.7661H83.63C83.9477 50.7664 84.2523 50.8926 84.477 51.1171L86.412 53.0521C86.6361 53.277 86.762 53.5816 86.762 53.8991V55.5291C86.762 55.8466 86.6361 56.1512 86.412 56.3761L85.512 57.2761C85.8621 57.9428 86.1506 58.64 86.374 59.3591H87.65C87.9677 59.3594 88.2723 59.4856 88.497 59.7101L89.649 60.8621C89.7605 60.9737 89.8489 61.1063 89.9092 61.2521C89.9694 61.398 90.0003 61.5543 90 61.7121ZM36.99 11.7631H50.011V7.66308H36.99V11.7631ZM9.966 61.0381C10.4 60.3868 10.864 59.7534 11.358 59.1381C14.8474 54.8156 19.6075 51.6997 24.965 50.2311V46.8001C25.0208 46.0919 25.3534 45.4342 25.8909 44.9696C26.4283 44.505 27.1272 44.2709 27.836 44.3181H32.546V21.9661H9.966V61.0381ZM7.935 77.4241H55.642V75.5781C55.6049 70.4525 53.9332 65.4724 50.8704 61.3624C47.8075 57.2524 43.5131 54.2269 38.612 52.7261V60.9901C38.612 61.3083 38.4856 61.6136 38.2605 61.8386C38.0355 62.0637 37.7303 62.1901 37.412 62.1901C37.0937 62.1901 36.7885 62.0637 36.5635 61.8386C36.3384 61.6136 36.212 61.3083 36.212 60.9901V46.8591C36.0759 46.7541 35.9067 46.7012 35.735 46.7101H27.835C27.6636 46.7014 27.4948 46.7542 27.359 46.8591V60.9901C27.3393 61.2943 27.2046 61.5796 26.9822 61.7881C26.7598 61.9966 26.4664 62.1127 26.1615 62.1127C25.8566 62.1127 25.5632 61.9966 25.3408 61.7881C25.1184 61.5796 24.9837 61.2943 24.964 60.9901V52.7261C20.0629 54.2269 15.7685 57.2524 12.7056 61.3624C9.64276 65.4724 7.97115 70.4525 7.934 75.5781L7.935 77.4241ZM61.182 81.2631C61.1815 80.8804 61.0291 80.5135 60.7584 80.243C60.4877 79.9724 60.1207 79.8203 59.738 79.8201H3.839C3.45715 79.8217 3.09145 79.9743 2.82181 80.2447C2.55218 80.5151 2.40053 80.8812 2.4 81.2631V85.2251C2.40079 85.6077 2.55322 85.9744 2.82387 86.2449C3.09453 86.5154 3.46136 86.6676 3.844 86.6681H59.744C60.1266 86.6676 60.4935 86.5154 60.7641 86.2449C61.0348 85.9744 61.1872 85.6077 61.188 85.2251L61.182 81.2631ZM73.252 78.6311H73.082C72.7643 78.6308 72.4597 78.5046 72.235 78.2801L71.082 77.1271C70.8575 76.9023 70.7313 76.5977 70.731 76.2801V75.0001C70.0122 74.7764 69.3153 74.4875 68.649 74.1371L67.749 75.0371C67.5243 75.2616 67.2197 75.3878 66.902 75.3881H65.272C64.9543 75.3878 64.6497 75.2616 64.425 75.0371L62.491 73.1031C62.2665 72.8783 62.1403 72.5737 62.14 72.2561V70.6261C62.1403 70.3084 62.2665 70.0038 62.491 69.7791L63.391 68.8791C63.0409 68.2127 62.7524 67.5159 62.529 66.7971H61.25C60.9323 66.7968 60.6277 66.6706 60.403 66.4461L59.25 65.3001C59.0255 65.0753 58.8993 64.7707 58.899 64.4531V61.7121C58.8993 61.3944 59.0255 61.0898 59.25 60.8651L60.4 59.7131C60.6247 59.4886 60.9293 59.3624 61.247 59.3621H62.525C62.7485 58.6432 63.0374 57.9463 63.388 57.2801L62.488 56.3801C62.2635 56.1553 62.1373 55.8507 62.137 55.5331V53.9001C62.1373 53.5824 62.2635 53.2778 62.488 53.0531L64.422 51.1181C64.6467 50.8936 64.9513 50.7674 65.269 50.7671H66.9C67.2177 50.7674 67.5223 50.8936 67.747 51.1181L68.647 52.0181C69.3138 51.6682 70.011 51.3797 70.73 51.1561V49.8801C70.7303 49.5624 70.8565 49.2578 71.081 49.0331L72.234 47.8811C72.4587 47.6566 72.7633 47.5304 73.081 47.5301H73.251V20.6181L57.983 17.9771V56.5091C57.983 56.8273 57.8566 57.1326 57.6315 57.3576C57.4065 57.5827 57.1013 57.7091 56.783 57.7091C56.4647 57.7091 56.1595 57.5827 55.9345 57.3576C55.7094 57.1326 55.583 56.8273 55.583 56.5091V14.1581H31.413V19.5701H33.743C34.0613 19.5701 34.3665 19.6965 34.5915 19.9216C34.8166 20.1466 34.943 20.4518 34.943 20.7701V44.3151H35.743C36.452 44.2685 37.1508 44.5032 37.6878 44.9684C38.2249 45.4336 38.557 46.0917 38.612 46.8001V50.2381C44.1771 51.7535 49.0913 55.0531 52.6004 59.6305C56.1095 64.2079 58.0198 69.8104 58.038 75.5781V77.4241H59.738C60.7558 77.4251 61.7317 77.8299 62.4514 78.5497C63.1711 79.2694 63.5759 80.2452 63.577 81.2631V82.1211H73.252V78.6311ZM87.605 62.2081L87.154 61.7571H85.454C85.1827 61.7568 84.9196 61.6645 84.7075 61.4955C84.4954 61.3264 84.3468 61.0904 84.286 60.8261C84.0355 59.725 83.6007 58.6743 83 57.7181C82.8558 57.4881 82.7938 57.2161 82.8241 56.9464C82.8545 56.6767 82.9753 56.4252 83.167 56.2331L84.367 55.0331V54.4001L83.134 53.1671H82.5L81.3 54.3671C81.1079 54.5585 80.8566 54.6792 80.5871 54.7095C80.3177 54.7399 80.0458 54.678 79.816 54.5341C78.8577 53.9311 77.8041 53.4949 76.7 53.2441C76.4355 53.1835 76.1993 53.035 76.03 52.8229C75.8607 52.6107 75.7684 52.3475 75.768 52.0761V50.3761L75.317 49.9251H73.578L73.127 50.3761V52.0761C73.1266 52.3475 73.0343 52.6107 72.865 52.8229C72.6957 53.035 72.4595 53.1835 72.195 53.2441C71.0939 53.4946 70.0431 53.9294 69.087 54.5301C68.8572 54.674 68.5853 54.7359 68.3159 54.7056C68.0464 54.6752 67.7951 54.5545 67.603 54.3631L66.403 53.1631H65.765L64.531 54.4001V55.0381L65.731 56.2381C65.9227 56.4302 66.0435 56.6817 66.0739 56.9514C66.1042 57.2211 66.0422 57.4932 65.898 57.7231C65.2969 58.6788 64.8617 59.7293 64.611 60.8301C64.5502 61.0943 64.4018 61.3301 64.1899 61.4991C63.978 61.6682 63.7151 61.7605 63.444 61.7611H61.744L61.293 62.2121V63.9561L61.744 64.4071H63.444C63.7153 64.4074 63.9784 64.4996 64.1905 64.6687C64.4026 64.8378 64.5512 65.0737 64.612 65.3381C64.8629 66.4384 65.2984 67.4882 65.9 68.4431C66.0439 68.6729 66.1058 68.9447 66.0755 69.2142C66.0451 69.4837 65.9244 69.735 65.733 69.9271L64.533 71.1271V71.7651L65.764 73.0001H66.4L67.6 71.8001C67.7921 71.6087 68.0434 71.4879 68.3129 71.4576C68.5823 71.4273 68.8542 71.4891 69.084 71.6331C70.0397 72.2342 71.0902 72.6693 72.191 72.9201C72.4554 72.9807 72.6914 73.129 72.8607 73.3409C73.0299 73.5529 73.1224 73.8159 73.123 74.0871V75.7871L73.574 76.2381H75.317L75.768 75.7871V74.0871C75.7684 73.8157 75.8607 73.5524 76.03 73.3403C76.1993 73.1282 76.4355 72.9797 76.7 72.9191C77.8013 72.6694 78.8523 72.2346 79.808 71.6331C80.0386 71.4871 80.3121 71.4241 80.5833 71.4544C80.8546 71.4848 81.1074 71.6067 81.3 71.8001L82.5 73.0001H83.138L84.371 71.7671V71.1291L83.171 69.9291C82.9782 69.7373 82.8563 69.4857 82.8252 69.2155C82.7942 68.9454 82.8558 68.6726 83 68.4421C83.6013 67.4861 84.0364 66.4353 84.287 65.3341C84.3478 65.0697 84.4964 64.8338 84.7085 64.6647C84.9206 64.4956 85.1837 64.4034 85.455 64.4031H87.155L87.606 63.9521L87.605 62.2081ZM81.564 62.8701C81.6197 64.7562 80.9242 66.5872 79.6303 67.9606C78.3364 69.334 76.5501 70.1374 74.664 70.1941C74.592 70.1941 74.52 70.1941 74.448 70.1941C73.2872 70.1925 72.1443 69.907 71.1191 69.3624C70.0939 68.8179 69.2175 68.0308 68.5662 67.0699C67.915 66.1089 67.5087 65.0033 67.3827 63.8493C67.2568 62.6953 67.415 61.528 67.8436 60.4492C68.2723 59.3704 68.9583 58.4128 69.8419 57.6599C70.7254 56.907 71.7798 56.3817 72.9129 56.1298C74.0461 55.8778 75.2237 55.9068 76.3431 56.2144C77.4625 56.5219 78.4896 57.0986 79.335 57.8941C80.0175 58.5346 80.5659 59.3043 80.9486 60.1585C81.3312 61.0127 81.5404 61.9344 81.564 62.8701ZM79.169 62.9411C79.1529 62.3204 79.0137 61.709 78.7595 61.1425C78.5053 60.576 78.1411 60.0657 77.688 59.6411C76.893 58.8916 75.8628 58.4408 74.7728 58.3657C73.6828 58.2905 72.6005 58.5956 71.7102 59.229C70.8199 59.8623 70.1767 60.7847 69.8902 61.8391C69.6037 62.8934 69.6917 64.0145 70.139 65.0113C70.5864 66.0081 71.3655 66.819 72.3436 67.3058C73.3218 67.7926 74.4384 67.9252 75.5034 67.6811C76.5683 67.4369 77.5157 66.8311 78.1841 65.9668C78.8525 65.1025 79.2006 64.0332 79.169 62.9411Z" fill="url(#paint0_linear_108_57)"/>
</g>
<defs>
<linearGradient id="paint0_linear_108_57" x1="90.0001" y1="44.9996" x2="0" y2="44.9996" gradientUnits="userSpaceOnUse">
<stop stop-color="#3377FE"/>
<stop offset="1" stop-color="#04E9EC"/>
</linearGradient>
<clipPath id="clip0_108_57">
<rect width="90" height="90" fill="white"/>
</clipPath>
</defs>
</svg>
