<svg width="15" height="17" viewBox="0 0 15 17" fill="none" xmlns="http://www.w3.org/2000/svg">
<g clip-path="url(#clip0_108_63)">
<path d="M2.96908 0.529205C2.89891 0.529225 2.83162 0.557089 2.78201 0.606689L0.400757 2.98795C0.35114 3.03755 0.323255 3.10485 0.323242 3.17502V15.6104C0.323242 16.0456 0.681829 16.4042 1.11699 16.4042H11.1712C11.5071 16.4042 11.9649 16.1695 11.9649 15.6047V3.17502C11.9649 3.10482 11.937 3.03756 11.8874 2.98795L11.3582 2.45877C11.1089 2.19902 10.7243 2.58355 10.9841 2.83292L11.4357 3.28458V15.6166C11.442 15.7596 11.3221 15.875 11.1712 15.875H1.11699C0.965839 15.875 0.852409 15.7616 0.852409 15.6104V3.28458L3.07863 1.05838H9.20952L9.59813 1.44699C8.6249 1.59889 7.81449 1.86486 7.19931 2.1131C6.95129 1.78519 6.56143 1.58755 6.14408 1.58755C5.41658 1.58755 4.82116 2.18297 4.82116 2.91046C4.82116 3.63796 5.41658 4.23337 6.14408 4.23337C6.4655 4.23337 6.77652 4.11644 7.01792 3.90421C7.29336 3.67206 6.93414 3.26341 6.66859 3.50681C6.52367 3.63421 6.33704 3.70419 6.14408 3.70419C5.70257 3.70419 5.35033 3.35198 5.35033 2.91046C5.35033 2.46895 5.70257 2.1167 6.14408 2.1167C6.3491 2.1167 6.54205 2.19649 6.68719 2.3327C6.26089 2.53216 6.00455 2.68619 6.00455 2.68619C5.69667 2.87028 5.98201 3.32998 6.2836 3.13577C6.2836 3.13577 8.3404 1.85263 11.1706 1.85263C12.1821 1.85263 12.9574 1.92484 13.4341 2.10068C13.6724 2.18858 13.8311 2.29785 13.9302 2.42264C14.0292 2.54743 14.0805 2.69345 14.0805 2.91098C14.0805 3.01255 14.0042 3.15222 13.7663 3.31146C13.5285 3.47071 13.1555 3.62485 12.6961 3.73935C12.3423 3.81675 12.4735 4.34888 12.8227 4.25302C13.3225 4.12844 13.7436 3.96421 14.0594 3.75278C14.3751 3.54136 14.6097 3.25883 14.6097 2.91098C14.6097 2.59934 14.5207 2.31488 14.3441 2.09241C14.1675 1.86993 13.9172 1.71512 13.6175 1.60458C13.0181 1.38351 12.2049 1.32294 11.1706 1.32294C10.8592 1.32294 10.5591 1.34084 10.2668 1.36734L9.50615 0.606659C9.45654 0.557059 9.38924 0.529175 9.31908 0.529175L2.96908 0.529205ZM1.64512 6.87921C1.49972 6.88221 1.37992 6.99734 1.38158 7.14276C1.38158 9.04372 2.92021 10.5844 4.82116 10.5844H5.34619V13.4943C5.34619 13.8472 5.87588 13.8472 5.87588 13.4943V10.3188C5.87588 8.70183 7.16883 7.40836 8.78578 7.40836H10.3645C10.2318 8.89903 8.99474 10.0552 7.46751 10.0552H6.67273C6.52655 10.0547 6.40762 10.1726 6.40711 10.3188L6.40499 13.4943C6.40499 13.8472 6.93416 13.8472 6.93416 13.4943L6.93628 10.5844H7.46751C9.36846 10.5844 10.9071 9.04372 10.9071 7.14276C10.9087 6.99497 10.7887 6.87902 10.6394 6.87921H8.78578C6.97379 6.87921 5.49394 8.27804 5.35911 10.0552H4.82116C3.29393 10.0552 2.0569 8.89903 1.92418 7.40836H3.49463C4.1343 7.40836 4.72171 7.61163 5.19995 7.95718C5.48858 8.17676 5.80874 7.73111 5.50846 7.52774C4.94313 7.11928 4.24677 6.87921 3.49463 6.87921H1.64512ZM3.12772 7.93341C2.91364 7.94771 2.80131 8.1709 2.90913 8.34009C3.15272 8.73509 3.47664 9.08958 3.90132 9.30695C4.22414 9.49585 4.48371 8.98621 4.1411 8.83618C3.82752 8.67568 3.56791 8.3993 3.36027 8.06259C3.31418 7.98509 3.23179 7.93615 3.12772 7.93341ZM9.15268 7.93341C9.05177 7.93941 8.97313 7.9875 8.9284 8.06259C8.72104 8.39883 8.46004 8.67352 8.14705 8.83411C7.8332 8.99569 8.07557 9.46647 8.38942 9.3049C8.81323 9.08744 9.13628 8.73454 9.37954 8.34009C9.48941 8.16779 9.37054 7.94102 9.15268 7.93341Z" fill="url(#paint0_linear_108_63)"/>
</g>
<defs>
<linearGradient id="paint0_linear_108_63" x1="14.6097" y1="8.46669" x2="0.323242" y2="8.46669" gradientUnits="userSpaceOnUse">
<stop stop-color="#3377FE"/>
<stop offset="1" stop-color="#04E9EC"/>
</linearGradient>
<clipPath id="clip0_108_63">
<rect width="15" height="17" fill="white"/>
</clipPath>
</defs>
</svg>
