<svg width="88" height="82" viewBox="0 0 88 82" fill="none" xmlns="http://www.w3.org/2000/svg">
<g clip-path="url(#clip0_108_67)">
<path d="M79.8798 8.16002H74.3198V3.31003C74.3198 1.57003 72.8998 0.150024 71.1598 0.150024H65.9598C64.2198 0.150024 62.7998 1.57003 62.7998 3.31003V8.16002H50.7998V3.31003C50.7998 1.57003 49.3798 0.150024 47.6398 0.150024H42.4398C40.6998 0.150024 39.2798 1.57003 39.2798 3.31003V8.16002H25.1998V3.31003C25.1998 1.57003 23.7798 0.150024 22.0398 0.150024H16.8398C15.0998 0.150024 13.6798 1.57003 13.6798 3.31003V8.16002H8.1198C4.0798 8.16002 0.799805 11.44 0.799805 15.48V74.53C0.799805 78.57 4.0798 81.85 8.1198 81.85H79.8698C83.9098 81.85 87.1898 78.57 87.1898 74.53V15.48C87.1998 11.44 83.9098 8.16002 79.8798 8.16002ZM64.9498 3.31003C64.9498 2.76003 65.3998 2.31003 65.9498 2.31003H71.1498C71.6998 2.31003 72.1498 2.76003 72.1498 3.31003V15.17C72.1498 15.72 71.6998 16.17 71.1498 16.17H65.9498C65.3998 16.17 64.9498 15.72 64.9498 15.17V3.31003ZM41.4398 3.31003C41.4398 2.76003 41.8898 2.31003 42.4398 2.31003H47.6398C48.1898 2.31003 48.6398 2.76003 48.6398 3.31003V15.17C48.6398 15.72 48.1898 16.17 47.6398 16.17H42.4398C41.8898 16.17 41.4398 15.72 41.4398 15.17V3.31003ZM15.8398 3.31003C15.8398 2.76003 16.2898 2.31003 16.8398 2.31003H22.0398C22.5898 2.31003 23.0398 2.76003 23.0398 3.31003V15.17C23.0398 15.72 22.5898 16.17 22.0398 16.17H16.8398C16.2898 16.17 15.8398 15.72 15.8398 15.17V3.31003ZM8.1198 10.32H13.6798V15.17C13.6798 16.91 15.0998 18.33 16.8398 18.33H22.0398C23.7798 18.33 25.1998 16.91 25.1998 15.17V10.32H39.2798V15.17C39.2798 16.91 40.6998 18.33 42.4398 18.33H47.6398C49.3798 18.33 50.7998 16.91 50.7998 15.17V10.32H62.7998V15.17C62.7998 16.91 64.2198 18.33 65.9598 18.33H71.1598C72.8998 18.33 74.3198 16.91 74.3198 15.17V10.32H79.8798C82.7298 10.32 85.0398 12.64 85.0398 15.48V21.55H2.9598V15.48C2.9598 12.63 5.2798 10.32 8.1198 10.32ZM79.8798 79.7H8.1198C5.2698 79.7 2.9598 77.38 2.9598 74.54V23.71H85.0398V74.53C85.0398 77.38 82.7198 79.7 79.8798 79.7ZM64.5498 45.8H61.5498C61.0398 45.8 60.6198 45.51 60.4398 45.04C60.3298 44.75 60.2098 44.46 60.0798 44.17C59.8698 43.7 59.9598 43.21 60.3198 42.84L62.4398 40.72C63.0698 40.09 63.4198 39.25 63.4198 38.35C63.4198 37.45 63.0698 36.61 62.4398 35.98L59.3398 32.88C58.7098 32.25 57.8698 31.9 56.9698 31.9C56.0698 31.9 55.2298 32.25 54.5998 32.88L52.4798 35C52.1198 35.36 51.6198 35.45 51.1498 35.24C50.8598 35.11 50.5698 34.99 50.2798 34.88C49.7998 34.7 49.5198 34.28 49.5198 33.77V30.77C49.5198 28.92 48.0198 27.42 46.1698 27.42H41.7898C39.9398 27.42 38.4398 28.92 38.4398 30.77V33.77C38.4398 34.28 38.1498 34.7 37.6798 34.88C37.3898 34.99 37.0998 35.11 36.8098 35.24C36.3398 35.45 35.8498 35.36 35.4798 35L33.3598 32.88C32.7298 32.25 31.8898 31.9 30.9898 31.9C30.0898 31.9 29.2498 32.25 28.6198 32.88L25.5198 35.98C24.2098 37.28 24.2098 39.41 25.5198 40.71L27.6398 42.83C27.9998 43.19 28.0898 43.69 27.8798 44.16C27.7498 44.45 27.6298 44.74 27.5198 45.03C27.3398 45.51 26.9198 45.79 26.4098 45.79H23.4098C21.5598 45.79 20.0598 47.29 20.0598 49.14V53.52C20.0598 55.37 21.5598 56.87 23.4098 56.87H26.4098C26.9198 56.87 27.3398 57.16 27.5198 57.63C27.6298 57.92 27.7498 58.21 27.8798 58.5C28.0898 58.97 27.9998 59.46 27.6398 59.83L25.5198 61.95C24.2198 63.25 24.2098 65.38 25.5198 66.68L28.6198 69.78C29.9198 71.08 32.0498 71.08 33.3498 69.78L35.4698 67.66C35.8298 67.3 36.3298 67.21 36.7998 67.42C37.0898 67.55 37.3798 67.67 37.6698 67.78C38.1498 67.96 38.4298 68.38 38.4298 68.89V71.89C38.4298 73.74 39.9298 75.24 41.7798 75.24H46.1598C48.0098 75.24 49.5098 73.74 49.5098 71.89V68.89C49.5098 68.38 49.7998 67.96 50.2698 67.78C50.5598 67.67 50.8498 67.55 51.1398 67.42C51.6098 67.21 52.0998 67.3 52.4698 67.66L54.5898 69.78C55.8898 71.08 58.0198 71.08 59.3198 69.78L62.4198 66.68C63.0498 66.05 63.3998 65.21 63.3998 64.31C63.3998 63.41 63.0498 62.57 62.4198 61.94L60.2998 59.82C59.9398 59.46 59.8498 58.96 60.0598 58.49C60.1898 58.2 60.3098 57.91 60.4198 57.62C60.5998 57.14 61.0198 56.86 61.5298 56.86H64.5298C66.3798 56.86 67.8798 55.36 67.8798 53.51V49.13C67.8998 47.3 66.3998 45.8 64.5498 45.8ZM65.7398 53.53C65.7398 54.19 65.2098 54.72 64.5498 54.72H61.5498C60.1498 54.72 58.9298 55.56 58.4298 56.87C58.3298 57.12 58.2298 57.38 58.1098 57.63C57.5398 58.91 57.8098 60.37 58.7998 61.36L60.9198 63.48C61.1398 63.7 61.2698 64 61.2698 64.32C61.2698 64.64 61.1498 64.94 60.9198 65.16L57.8198 68.26C57.3598 68.72 56.5998 68.72 56.1398 68.26L54.0198 66.14C53.0298 65.15 51.5698 64.88 50.2898 65.45C50.0398 65.56 49.7898 65.67 49.5298 65.77C48.2198 66.27 47.3798 67.5 47.3798 68.89V71.89C47.3798 72.55 46.8498 73.08 46.1898 73.08H41.8098C41.1498 73.08 40.6198 72.55 40.6198 71.89V68.89C40.6198 67.49 39.7798 66.27 38.4698 65.77C38.2198 65.67 37.9598 65.57 37.7098 65.45C37.2698 65.25 36.7998 65.16 36.3398 65.16C35.4698 65.16 34.6298 65.5 33.9798 66.14L31.8598 68.26C31.3998 68.72 30.6398 68.72 30.1798 68.26L27.0798 65.16C26.6198 64.7 26.6198 63.94 27.0798 63.48L29.1998 61.36C30.1898 60.37 30.4598 58.91 29.8898 57.63C29.7798 57.38 29.6698 57.12 29.5698 56.87C29.0698 55.57 27.8398 54.72 26.4498 54.72H23.4498C22.7898 54.72 22.2598 54.19 22.2598 53.53V49.15C22.2598 48.49 22.7898 47.96 23.4498 47.96H26.4498C27.8498 47.96 29.0698 47.12 29.5698 45.81C29.6698 45.56 29.7698 45.3 29.8898 45.05C30.4598 43.77 30.1898 42.31 29.1998 41.32L27.0798 39.2C26.8598 38.98 26.7298 38.68 26.7298 38.36C26.7298 38.04 26.8498 37.74 27.0798 37.52L30.1798 34.42C30.3998 34.2 30.6998 34.07 31.0198 34.07C31.3398 34.07 31.6398 34.19 31.8598 34.42L33.9798 36.54C34.9698 37.53 36.4298 37.8 37.7098 37.23C37.9598 37.12 38.2198 37.01 38.4698 36.91C39.7698 36.41 40.6198 35.18 40.6198 33.79V30.79C40.6198 30.13 41.1498 29.6 41.8098 29.6H46.1898C46.8498 29.6 47.3798 30.13 47.3798 30.79V33.79C47.3798 35.19 48.2198 36.41 49.5298 36.91C49.7798 37.01 50.0398 37.11 50.2898 37.23C51.5698 37.8 53.0298 37.53 54.0198 36.54L56.1398 34.42C56.3598 34.2 56.6598 34.07 56.9798 34.07C57.2998 34.07 57.5998 34.19 57.8198 34.42L60.9198 37.52C61.1398 37.74 61.2698 38.04 61.2698 38.36C61.2698 38.68 61.1498 38.98 60.9198 39.2L58.7998 41.32C57.8098 42.31 57.5398 43.77 58.1098 45.05C58.2198 45.3 58.3298 45.56 58.4298 45.81C58.9298 47.11 60.1598 47.96 61.5498 47.96H64.5498C65.2098 47.96 65.7398 48.49 65.7398 49.15V53.53ZM43.9998 39.51C37.4798 39.51 32.1698 44.82 32.1698 51.34C32.1698 57.86 37.4798 63.17 43.9998 63.17C50.5198 63.17 55.8298 57.86 55.8298 51.34C55.8298 44.82 50.5198 39.51 43.9998 39.51ZM43.9998 61.02C38.6698 61.02 34.3298 56.68 34.3298 51.35C34.3298 46.02 38.6698 41.68 43.9998 41.68C49.3298 41.68 53.6698 46.02 53.6698 51.35C53.6698 56.68 49.3298 61.02 43.9998 61.02Z" fill="url(#paint0_linear_108_67)"/>
</g>
<defs>
<linearGradient id="paint0_linear_108_67" x1="87.1899" y1="41" x2="0.799805" y2="41" gradientUnits="userSpaceOnUse">
<stop stop-color="#3377FE"/>
<stop offset="1" stop-color="#04E9EC"/>
</linearGradient>
<clipPath id="clip0_108_67">
<rect width="88" height="82" fill="white"/>
</clipPath>
</defs>
</svg>
