<svg width="92" height="62" viewBox="0 0 92 62" fill="none" xmlns="http://www.w3.org/2000/svg">
<g clip-path="url(#clip0_108_69)">
<path fill-rule="evenodd" clip-rule="evenodd" d="M34.1437 50.8816C33.789 50.5237 33.5675 50.029 33.5669 49.4832C33.5677 48.9128 34.6669 47.1139 35.5444 45.71C36.4179 47.1138 37.5189 48.9137 37.5181 49.484C37.5187 50.0298 37.2949 50.5225 36.938 50.8809L36.939 50.8847C36.5849 51.2384 36.0902 51.4599 35.5444 51.4606C34.9987 51.4612 34.506 51.2374 34.1475 50.8805L34.1437 50.8816ZM31.5088 49.4847C31.5104 50.5924 31.9585 51.6007 32.6918 52.3302L32.6966 52.333L32.6929 52.334C33.4224 53.0646 34.4287 53.5147 35.5449 53.515C36.6525 53.5134 37.6608 53.0653 38.3904 52.3319L38.3931 52.3272L38.3941 52.3309C39.1247 51.6014 39.5749 50.5951 39.5751 49.4789C39.576 48.2897 38.1377 45.9858 37.1103 44.3401C36.8572 43.9388 36.6361 43.5815 36.4331 43.2315C36.1472 42.7379 35.5199 42.5703 35.0254 42.8525C34.8639 42.9443 34.7335 43.0763 34.6489 43.2284C34.4555 43.5633 34.2285 43.9233 33.9748 44.3351C32.9506 45.9764 31.5114 48.287 31.5106 49.4761L31.5088 49.4847ZM30.0001 44.9108C29.1715 46.346 28.8893 48.0999 29.3523 49.828C29.8154 51.556 30.9368 52.9339 32.372 53.7625C33.8072 54.5911 35.5611 54.8733 37.2892 54.4103C39.0173 53.9473 40.3951 52.8259 41.2237 51.3907C42.0524 49.9554 42.3345 48.2015 41.8715 46.4735C41.4085 44.7454 40.2871 43.3675 38.8519 42.5389C37.4166 41.7103 35.6627 41.4281 33.9347 41.8911C32.2065 42.3542 30.8287 43.4756 30.0001 44.9108ZM33.4009 39.8989C31.1219 40.5096 29.3094 41.986 28.2156 43.8805C27.1218 45.7751 26.7494 48.0829 27.36 50.3619C27.9707 52.6409 29.4471 54.4533 31.3417 55.5472C33.2362 56.641 35.544 57.0134 37.823 56.4027C40.1021 55.7921 41.9145 54.3156 43.0083 52.4211C44.1021 50.5266 44.4745 48.2187 43.8639 45.9397C43.2532 43.6607 41.7768 41.8483 39.8822 40.7545C37.9877 39.6606 35.6799 39.2883 33.4009 39.8989ZM21.9994 35.5776L21.9993 57.2501C25.8712 58.449 30.0486 59.0524 34.5337 59.0517C39.0913 59.0518 43.9522 58.4328 49.1149 57.191L49.1159 35.5669C44.3464 35.9229 39.7025 36.0996 35.1805 36.098C30.6883 36.1005 26.2972 35.9224 22.0026 35.5768L21.9994 35.5776ZM49.1149 33.5086C44.3737 33.865 39.7262 34.0427 35.1766 34.0445C30.6673 34.0436 26.2734 33.8702 22.0006 33.5148L22.0012 31.9172C22.0034 31.8802 22.0028 31.848 22.0003 31.8083C22.0133 29.2611 23.0593 26.9466 24.7442 25.2657L24.7432 25.262C26.4243 23.5821 28.7368 22.5378 31.2844 22.5225C31.3214 22.5247 31.3574 22.5232 31.3934 22.5216L39.781 22.5227C42.3489 22.5221 44.6803 23.5716 46.3718 25.2658L46.3756 25.2648C48.066 26.9552 49.1163 29.2903 49.1168 31.8581L49.117 33.5039L49.1149 33.5086ZM31.2687 20.4682L31.3331 20.4671L39.7814 20.468L39.8458 20.467L39.8463 18.9746C38.4171 18.7873 36.9895 18.6967 35.5578 18.6961C34.1261 18.6956 32.6997 18.7907 31.2692 18.9758L31.2678 20.4644L31.2687 20.4682ZM14.2227 36.4516C14.2152 36.5143 14.2039 36.578 14.1937 36.6454C13.9828 37.8505 13.3336 38.8535 12.435 39.5148C11.5327 40.1771 10.3859 40.5006 9.17421 40.34C9.11154 40.3325 9.04787 40.3213 8.98042 40.311C7.65279 40.0804 6.51128 39.3065 5.74606 38.2619C4.98084 37.2174 4.58627 35.8956 4.76282 34.5622L6.50674 21.3445C6.51421 21.2818 6.52546 21.2182 6.5357 21.1507C6.74661 19.9457 7.39582 18.9427 8.29438 18.2814C9.19669 17.619 10.3434 17.2955 11.5552 17.4561C11.6179 17.4636 11.6815 17.4749 11.749 17.4851L15.6396 18.1654C16.186 18.2576 16.5575 18.7687 16.4852 19.3138L14.2238 36.4562L14.2227 36.4516ZM14.3156 20.0155L11.401 19.5065C11.3667 19.4994 11.325 19.4945 11.2832 19.4895C10.6203 19.4002 9.99603 19.5756 9.50931 19.9324C9.02259 20.2893 8.67169 20.8363 8.55678 21.4939C8.54977 21.5281 8.54479 21.5699 8.53981 21.6117L6.79589 34.8294C6.69166 35.6176 6.93342 36.4142 7.39893 37.0498C7.86343 37.6816 8.54212 38.1468 9.32335 38.2852C9.35758 38.2922 9.39936 38.2972 9.43736 38.3032C10.1002 38.3925 10.7245 38.2171 11.2112 37.8602C11.698 37.5033 12.0489 36.9564 12.1638 36.2988C12.1708 36.2646 12.1758 36.2228 12.1807 36.181L14.3119 20.0166L14.3156 20.0155ZM33.7214 12.6724L33.7216 10.6059L37.3896 10.6057L37.3893 12.6723L33.7214 12.6724ZM32.692 14.7317L32.6957 14.7307L32.6995 14.7297L40.6739 14.7282C40.8113 14.7278 40.94 14.7702 41.0407 14.8443C41.0629 14.8667 41.0878 14.8842 41.1127 14.9018L41.1233 14.9111C41.239 15.0257 41.3109 15.1884 41.3101 15.3666L41.3119 17.1091C41.2359 17.0971 41.1599 17.0851 41.0839 17.0731C41.0497 17.0661 41.0164 17.0629 40.9832 17.0597C39.1724 16.7765 37.3631 16.6344 35.5562 16.6374C33.7445 16.6375 31.9304 16.7799 30.1178 17.0634C30.0904 17.0667 30.0668 17.069 30.0404 17.076C29.9629 17.0887 29.8816 17.1024 29.8041 17.1151L29.8061 15.3716C29.8065 15.2825 29.825 15.2007 29.8568 15.1234C29.8679 15.1043 29.8752 15.0861 29.8814 15.0642C29.9118 15.0116 29.947 14.9618 29.9879 14.9184C30.1025 14.8028 30.2653 14.7309 30.4434 14.7317H32.692ZM39.4484 12.6747L40.6698 12.675C41.0782 12.6747 41.4673 12.7686 41.815 12.9343C48.6848 10.123 56.22 10.037 63.6574 11.3198C70.7932 12.5501 77.8341 15.0431 84.0893 17.5893C84.1949 17.1081 84.2147 16.6539 84.1189 16.2509C83.9874 15.6997 83.6013 15.2248 82.8418 14.9107L82.7788 14.8871C75.937 12.2032 68.4415 9.79552 60.9599 8.8889C53.574 7.99268 46.1866 8.55671 39.4456 11.7702L39.4457 12.6761L39.4484 12.6747ZM23.7335 5.52124L23.7462 4.5877L24.9417 4.85376L24.9407 5.9216C24.5392 5.76633 24.1351 5.63194 23.7324 5.51744L23.7335 5.52124ZM23.6186 13.6199L23.7034 7.67264C24.1207 7.81155 24.5328 7.97611 24.9407 8.17013L24.9404 13.6175L23.6176 13.6161L23.6186 13.6199ZM27 6.95111L26.9983 4.03179C26.9972 3.51445 26.6157 3.08691 26.1152 3.01481L22.9574 2.308C22.403 2.18562 21.8574 2.53402 21.7302 3.08573C21.7124 3.1552 21.708 3.22917 21.7063 3.29838L21.7025 3.29939L21.6785 5.08112C20.7959 4.94153 19.9008 4.84571 18.9857 4.75122C18.3118 4.68106 17.6294 4.60916 17.1821 4.5551C15.7758 4.37787 14.0158 3.7859 12.2621 3.06688C10.4828 2.34252 8.68864 1.47264 7.25456 0.769033C6.74725 0.520788 6.13205 0.730116 5.88002 1.23844C5.63178 1.74576 5.84111 2.36096 6.34943 2.61299C7.79306 3.32211 9.61491 4.20486 11.4887 4.96458C13.3863 5.73808 15.3178 6.3812 16.9292 6.58436C17.7212 6.68759 18.2527 6.73929 18.7776 6.79677C19.7591 6.89776 20.7159 6.99726 21.6501 7.16351L21.5597 13.6177L11.1866 13.619L11.1876 13.6227C9.07646 13.5616 7.10078 14.2932 5.58652 15.5846C4.07879 16.8702 3.02475 18.7015 2.7414 20.8439L0.997482 34.0617C0.687269 36.4054 1.35782 38.6966 2.6825 40.5012C4.0082 42.3095 5.9976 43.6367 8.32307 44.0448C8.44187 44.0656 8.56443 44.0853 8.67741 44.0995C10.891 44.392 13.012 43.7954 14.678 42.5725C16.3403 41.3507 17.5439 39.5035 17.9323 37.3006C17.953 37.1819 17.9737 37.0631 17.9869 36.9463L20.3242 19.2421C20.3462 19.0826 20.4225 18.9448 20.5298 18.8473C20.6382 18.7536 20.784 18.6943 20.9461 18.6954L27.8091 18.6964C27.9523 19.0948 28.3313 19.3774 28.7794 19.3746C28.8599 19.3733 28.9422 19.3634 29.0187 19.3469C29.0838 19.3335 29.149 19.3201 29.2152 19.3104L29.2153 20.6692C26.9296 21.1037 24.882 22.2307 23.2969 23.816L23.2941 23.8208L23.2931 23.817C21.23 25.8823 19.9466 28.7295 19.9453 31.8639L19.9444 58.0007C19.945 58.4859 20.2796 58.8896 20.7296 58.9995C24.9973 60.4078 29.5981 61.1121 34.5357 61.1115C39.4534 61.1121 44.7179 60.4133 50.3195 59.0135C50.8033 58.9324 51.1704 58.5065 51.1723 58.0005L51.1732 31.8636C51.1717 28.734 49.8911 25.8863 47.8248 23.8194L47.82 23.8167L47.8238 23.8157C46.2374 22.2268 44.1861 21.1063 41.9019 20.6709L41.9018 19.3121C41.9617 19.3244 42.0254 19.3357 42.0853 19.3479C42.1671 19.3664 42.2516 19.3802 42.3407 19.3806C42.9111 19.3814 43.3695 18.9189 43.3703 18.3484L43.3695 15.3722C43.3687 15.0975 43.3291 14.829 43.2501 14.5792C49.5451 12.1888 56.4581 12.1644 63.3093 13.3455C70.6531 14.613 77.9358 17.2677 84.3344 19.9126C84.8572 20.1284 85.4614 19.8775 85.6771 19.3546C85.6962 19.305 85.719 19.2544 85.7371 19.2011C86.1831 18.0584 86.3762 16.8622 86.1172 15.7751C85.8388 14.6001 85.0764 13.6113 83.6251 13.0094L83.5259 12.9713C76.5534 10.2374 68.8987 7.77936 61.2066 6.84417C53.7826 5.9419 46.3348 6.46144 39.4427 9.50525C39.4043 8.96959 38.9595 8.54687 38.4175 8.54653L32.6916 8.54806C32.1211 8.54723 31.6627 9.00977 31.6619 9.58019V10.199C30.7338 9.88955 29.8487 9.15207 29.0059 8.45183C28.6926 8.188 28.3813 7.93172 28.0367 7.6722C27.6864 7.40615 27.3404 7.1713 26.9946 6.95255L27 6.95111ZM26.9994 13.6199L27.0005 9.45833C27.2166 9.63094 27.4548 9.82592 27.6903 10.0257C28.8465 10.9898 30.0784 12.0104 31.665 12.3173L31.6634 12.6736L30.4382 12.6743C29.6982 12.6744 29.0267 12.9756 28.5356 13.4672C28.4843 13.5173 28.4379 13.5702 28.3914 13.6231L26.9956 13.621L26.9994 13.6199ZM25.7586 15.6752C25.8271 15.6892 25.8983 15.6984 25.9712 15.6991C26.0442 15.6998 26.1152 15.6929 26.1841 15.6785L27.7447 15.6768L27.7466 16.6348L20.9442 16.6336C20.2686 16.6327 19.6484 16.8838 19.173 17.2983C18.6977 17.7127 18.3693 18.2982 18.282 18.9686L15.9447 36.6728C15.934 36.7687 15.9185 36.8618 15.902 36.9511C15.6106 38.6104 14.7082 39.9967 13.4577 40.9141C12.211 41.8305 10.6162 42.278 8.94782 42.0578C8.85193 42.0471 8.76258 42.0306 8.67324 42.0141C6.89139 41.703 5.36376 40.6807 4.34352 39.2879C3.31848 37.8924 2.8008 36.1264 3.0387 34.3277L4.78262 21.11C4.99608 19.4918 5.7868 18.1112 6.91615 17.1494C8.06517 16.1702 9.55862 15.6164 11.1543 15.6701L11.1865 15.6696L11.1875 15.6733L22.3609 15.672C22.4245 15.6832 22.492 15.6935 22.5564 15.6924C22.6331 15.6921 22.7079 15.6842 22.7768 15.6697L25.7492 15.67L25.7586 15.6752ZM86.0895 30.806C85.5393 30.4883 85.1106 29.9602 84.9337 29.2999C84.7406 28.5792 85.5261 25.9868 86.1043 24.0848C87.5561 25.4429 89.5326 27.2952 89.7257 28.0159C89.9026 28.6762 89.7955 29.3479 89.4778 29.8981C89.1602 30.4483 88.632 30.8769 87.9717 31.0538C87.3114 31.2308 86.6396 31.1236 86.0895 30.806ZM82.9452 29.8327C82.5974 28.5347 83.5143 25.527 84.169 23.3821C84.3487 22.8001 84.5048 22.2811 84.5898 21.9793C84.6273 21.7872 84.7209 21.6085 84.8672 21.4601C85.2688 21.0573 85.9198 21.0567 86.3225 21.4584C86.5807 21.7127 86.9803 22.0869 87.4289 22.5086C89.0683 24.0387 91.3662 26.1851 91.714 27.4831C92.0386 28.6943 91.8423 29.9237 91.2622 30.9284C90.6822 31.933 89.7157 32.7177 88.5045 33.0422C87.2933 33.3668 86.0639 33.1705 85.0593 32.5904C84.0546 32.0104 83.2698 31.0439 82.9452 29.8327ZM82.1867 50.2445C81.273 49.717 80.5561 48.8374 80.2609 47.7356C79.9363 46.5244 81.1612 42.508 82.0349 39.6412L82.2136 39.0555L82.6613 39.4734C84.8503 41.5155 87.9193 44.3814 88.2449 45.5963C88.5401 46.698 88.359 47.8183 87.8315 48.732C87.3039 49.6458 86.4244 50.3627 85.3225 50.6579C84.2207 50.9532 83.1015 50.7758 82.1867 50.2445ZM78.2724 48.2684C77.7962 46.4913 79.1226 42.1444 80.0673 39.0443C80.3375 38.1509 80.5791 37.3623 80.7066 36.8873C80.7492 36.7141 80.8431 36.5515 80.9763 36.4147C81.3789 36.0156 82.0261 36.0161 82.4289 36.4177C82.7768 36.7653 83.3813 37.3312 84.0668 37.9726C86.4349 40.1851 89.7571 43.2864 90.2333 45.0635C90.6761 46.7161 90.4086 48.3892 89.6159 49.7623C88.8232 51.1354 87.5079 52.2036 85.8553 52.6464C84.2027 53.0892 82.5296 52.8217 81.1565 52.029C79.7834 51.2362 78.7152 49.921 78.2724 48.2684Z" fill="url(#paint0_linear_108_69)"/>
</g>
<defs>
<linearGradient id="paint0_linear_108_69" x1="91.8702" y1="30.8881" x2="0.922546" y2="30.8881" gradientUnits="userSpaceOnUse">
<stop stop-color="#3377FE"/>
<stop offset="1" stop-color="#04E9EC"/>
</linearGradient>
<clipPath id="clip0_108_69">
<rect width="92" height="62" fill="white"/>
</clipPath>
</defs>
</svg>
