<svg width="90" height="72" viewBox="0 0 90 72" fill="none" xmlns="http://www.w3.org/2000/svg">
<g clip-path="url(#clip0_108_71)">
<path fill-rule="evenodd" clip-rule="evenodd" d="M40.2072 41.3401C39.5462 41.3401 39.0092 40.8041 39.0092 40.1421C39.0092 39.4801 39.5452 38.9441 40.2072 38.9441H43.8022V35.5131C43.8022 34.8521 44.3382 34.3151 45.0002 34.3151C45.6622 34.3151 46.1982 34.8511 46.1982 35.5131V38.9441H49.7932C50.4542 38.9441 50.9912 39.4801 50.9912 40.1421C50.9912 40.8041 50.4552 41.3401 49.7932 41.3401H46.1982V44.7711C46.1982 45.4321 45.6622 45.9691 45.0002 45.9691C44.3382 45.9691 43.8022 45.4331 43.8022 44.7711V41.3401H40.2072ZM50.9202 34.7161C49.4052 33.2011 47.3122 32.2641 45.0002 32.2641C42.6882 32.2641 40.5952 33.2011 39.0802 34.7161C37.5652 36.2311 36.6282 38.3241 36.6282 40.6361C36.6282 42.9481 37.5652 45.0411 39.0802 46.5561C40.5952 48.0711 42.6882 49.0081 45.0002 49.0081C47.3122 49.0081 49.4052 48.0711 50.9202 46.5561C52.4352 45.0411 53.3722 42.9481 53.3722 40.6361C53.3722 38.3241 52.4352 36.2311 50.9202 34.7161ZM45.0002 29.8691C42.0272 29.8691 39.3352 31.0741 37.3872 33.0231C35.4392 34.9711 34.2332 37.6631 34.2332 40.6361C34.2332 43.6091 35.4382 46.3011 37.3872 48.2491C39.3352 50.1971 42.0272 51.4031 45.0002 51.4031C47.9732 51.4031 50.6652 50.1981 52.6132 48.2491C54.5612 46.3011 55.7672 43.6091 55.7672 40.6361C55.7672 37.6631 54.5622 34.9711 52.6132 33.0231C50.6652 31.0751 47.9732 29.8691 45.0002 29.8691ZM31.0032 38.4511L29.1452 39.0551C29.1312 39.1941 29.1202 39.3331 29.1092 39.4741C29.0832 39.8421 29.0692 40.2301 29.0692 40.6371C29.0692 41.0441 29.0832 41.4311 29.1092 41.8001C29.1192 41.9401 29.1312 42.0801 29.1452 42.2191L31.0032 42.8231C31.3892 42.9491 31.7012 43.2691 31.7982 43.6931C31.9672 44.4321 32.1942 45.1451 32.4772 45.8301C32.7502 46.4891 33.0782 47.1281 33.4612 47.7451C33.7162 48.0971 33.7692 48.5761 33.5592 48.9901L32.6722 50.7301C33.0062 51.1371 33.3612 51.5281 33.7352 51.9021C34.1092 52.2761 34.5002 52.6311 34.9072 52.9651L36.6472 52.0781V52.0801C37.0102 51.8961 37.4572 51.9021 37.8262 52.1341C38.4652 52.5351 39.1252 52.8771 39.8082 53.1601C40.4822 53.4391 41.1842 53.6631 41.9132 53.8321C42.3222 53.9151 42.6762 54.2091 42.8152 54.6351L43.4192 56.4931C43.5582 56.5071 43.6972 56.5181 43.8382 56.5291C44.2062 56.5551 44.5942 56.5691 45.0012 56.5691C45.4082 56.5691 45.7952 56.5551 46.1632 56.5291C46.3032 56.5191 46.4432 56.5071 46.5822 56.4931L47.1862 54.6351C47.3122 54.2491 47.6322 53.9371 48.0562 53.8401C48.7952 53.6711 49.5082 53.4441 50.1922 53.1611C50.8512 52.8881 51.4902 52.5601 52.1072 52.1771C52.4592 51.9221 52.9382 51.8691 53.3522 52.0791L55.0922 52.9661C55.4992 52.6321 55.8902 52.2771 56.2642 51.9031C56.6382 51.5291 56.9932 51.1381 57.3272 50.7311L56.4402 48.9911H56.4422C56.2582 48.6281 56.2642 48.1811 56.4962 47.8121C56.8972 47.1731 57.2392 46.5131 57.5222 45.8301C57.8012 45.1561 58.0252 44.4551 58.1942 43.7251C58.2772 43.3161 58.5712 42.9621 58.9972 42.8231L60.8552 42.2191C60.8692 42.0801 60.8802 41.9411 60.8912 41.8001C60.9172 41.4321 60.9312 41.0441 60.9312 40.6371C60.9312 40.2301 60.9172 39.8431 60.8912 39.4751C60.8812 39.3351 60.8692 39.1951 60.8552 39.0561L58.9972 38.4521C58.6112 38.3261 58.2992 38.0061 58.2022 37.5821C58.0332 36.8431 57.8062 36.1301 57.5232 35.4451C57.2502 34.7861 56.9222 34.1471 56.5392 33.5301C56.2842 33.1781 56.2312 32.6991 56.4412 32.2851L57.3282 30.5451C56.9942 30.1381 56.6392 29.7471 56.2652 29.3731C55.8912 28.9991 55.5002 28.6441 55.0932 28.3101L53.3532 29.1971V29.1951C52.9902 29.3791 52.5432 29.3731 52.1742 29.1411C51.5362 28.7401 50.8752 28.3981 50.1922 28.1151C49.5182 27.8361 48.8172 27.6121 48.0872 27.4431C47.6782 27.3601 47.3242 27.0661 47.1852 26.6401L46.5812 24.7811C46.4422 24.7671 46.3032 24.7561 46.1622 24.7451C45.7942 24.7191 45.4062 24.7051 44.9992 24.7051C44.5922 24.7051 44.2052 24.7191 43.8362 24.7451C43.6962 24.7551 43.5562 24.7671 43.4172 24.7811L42.8132 26.6401C42.6872 27.0261 42.3672 27.3381 41.9432 27.4351C41.2042 27.6041 40.4912 27.8311 39.8072 28.1141C39.1482 28.3871 38.5092 28.7151 37.8912 29.0981C37.5392 29.3531 37.0602 29.4061 36.6462 29.1961L34.9062 28.3091C34.4992 28.6431 34.1082 28.9981 33.7342 29.3721C33.3602 29.7461 33.0052 30.1371 32.6712 30.5441L33.5582 32.2841H33.5562C33.7402 32.6471 33.7342 33.0941 33.5022 33.4631C33.1022 34.1011 32.7592 34.7621 32.4772 35.4451C32.1982 36.1201 31.9732 36.8221 31.8052 37.5501C31.7222 37.9591 31.4282 38.3131 31.0022 38.4521L31.0032 38.4511ZM27.7082 37.0081C27.2752 37.1371 26.9342 37.5081 26.8662 37.9861C26.8032 38.4231 26.7552 38.8641 26.7232 39.3061C26.6902 39.7611 26.6742 40.2051 26.6742 40.6371C26.6742 41.0691 26.6912 41.5131 26.7232 41.9681C26.7552 42.4071 26.8022 42.8431 26.8652 43.2771C26.9242 43.7191 27.2292 44.1091 27.6812 44.2561L29.6372 44.8921C29.8102 45.5191 30.0212 46.1341 30.2702 46.7371C30.5192 47.3381 30.8052 47.9231 31.1282 48.4901L30.2032 50.3061C29.9942 50.7021 30.0162 51.1991 30.3022 51.5811C30.8362 52.2971 31.4182 52.9701 32.0432 53.5951C32.6622 54.2141 33.3292 54.7911 34.0372 55.3211C34.3922 55.5971 34.8882 55.6611 35.3162 55.4441L37.1492 54.5101C37.7162 54.8331 38.3012 55.1191 38.9032 55.3681C39.5052 55.6171 40.1192 55.8281 40.7472 56.0011L41.3732 57.9291C41.5022 58.3621 41.8732 58.7031 42.3512 58.7711C42.7882 58.8341 43.2292 58.8821 43.6712 58.9141C44.1262 58.9471 44.5702 58.9631 45.0022 58.9631C45.4342 58.9631 45.8782 58.9461 46.3332 58.9141C46.7722 58.8821 47.2082 58.8351 47.6422 58.7721C48.0842 58.7131 48.4752 58.4081 48.6212 57.9561L49.2572 56.0001C49.8842 55.8271 50.4992 55.6161 51.1022 55.3671C51.7032 55.1181 52.2882 54.8321 52.8552 54.5091L54.6712 55.4341C55.0672 55.6431 55.5642 55.6201 55.9462 55.3351C56.6622 54.8011 57.3352 54.2191 57.9602 53.5941C58.5792 52.9751 59.1562 52.3081 59.6862 51.6001C59.9622 51.2451 60.0262 50.7491 59.8092 50.3211L58.8752 48.4881C59.1982 47.9211 59.4842 47.3361 59.7332 46.7341C59.9822 46.1321 60.1932 45.5181 60.3662 44.8901L62.2942 44.2641C62.7272 44.1341 63.0682 43.7641 63.1362 43.2861C63.1992 42.8491 63.2472 42.4081 63.2792 41.9661C63.3122 41.5111 63.3282 41.0671 63.3282 40.6351C63.3282 40.2031 63.3112 39.7591 63.2792 39.3041C63.2472 38.8651 63.2002 38.4291 63.1372 37.9951C63.0782 37.5531 62.7732 37.1621 62.3212 37.0161L60.3652 36.3801C60.1922 35.7531 59.9812 35.1381 59.7322 34.5351C59.4832 33.9341 59.1972 33.3491 58.8742 32.7821L59.8002 30.9661C60.0092 30.5701 59.9862 30.0731 59.7012 29.6911C59.1672 28.9751 58.5852 28.3021 57.9602 27.6771C57.3412 27.0581 56.6742 26.4811 55.9662 25.9511C55.6112 25.6751 55.1152 25.6111 54.6872 25.8281L52.8542 26.7621C52.2872 26.4391 51.7022 26.1531 51.1002 25.9041C50.4982 25.6551 49.8842 25.4441 49.2562 25.2711L48.6302 23.3431C48.5012 22.9101 48.1302 22.5691 47.6522 22.5011C47.2152 22.4381 46.7742 22.3901 46.3322 22.3581C45.8772 22.3251 45.4332 22.3091 45.0012 22.3091C44.5692 22.3091 44.1252 22.3261 43.6702 22.3581C43.2312 22.3901 42.7952 22.4371 42.3612 22.5001C41.9192 22.5591 41.5292 22.8641 41.3822 23.3161L40.7462 25.2721C40.1192 25.4451 39.5042 25.6561 38.9022 25.9051C38.3002 26.1541 37.7152 26.4401 37.1482 26.7631L35.3322 25.8381C34.9362 25.6291 34.4392 25.6511 34.0572 25.9371C33.3412 26.4711 32.6682 27.0531 32.0432 27.6781C31.4242 28.2971 30.8472 28.9641 30.3172 29.6721C30.0412 30.0271 29.9772 30.5231 30.1942 30.9511L31.1282 32.7841C30.8062 33.3511 30.5192 33.9361 30.2702 34.5381C30.0212 35.1401 29.8102 35.7551 29.6372 36.3821L27.7082 37.0081ZM10.6282 50.4821L4.4992 48.9681V55.8321L10.6282 57.3461V50.4821ZM86.5852 58.0261C86.6832 58.0881 86.7762 58.1641 86.8642 58.2541C87.1702 58.5651 87.4012 59.0091 87.5202 59.5071C87.6402 60.0101 87.6392 60.5481 87.4792 61.0371C87.3722 61.3651 87.1922 61.6721 86.9292 61.9321C82.0722 66.7231 63.5772 69.1181 44.9992 69.1181C26.4212 69.1181 7.9262 66.7221 3.0692 61.9321C2.8052 61.6721 2.6262 61.3641 2.5192 61.0361C2.3592 60.5481 2.3582 60.0091 2.4782 59.5061C2.5972 59.0091 2.8272 58.5641 3.1342 58.2531C3.2222 58.1641 3.3162 58.0871 3.4132 58.0251L11.4542 60.0111C11.5712 60.0491 11.6952 60.0691 11.8242 60.0691C12.4652 60.0691 12.9882 59.5661 13.0202 58.9331C15.0512 59.3361 17.1892 59.8291 19.4012 60.3391C26.9142 62.0701 35.2842 63.9991 44.9982 63.6381C54.7192 64.0001 63.1942 62.0501 70.7642 60.3081C72.9192 59.8121 75.0012 59.3331 76.9762 58.9371C77.0102 59.5681 77.5322 60.0701 78.1722 60.0701C78.3012 60.0701 78.4252 60.0491 78.5422 60.0121L86.5832 58.0261H86.5852ZM85.5012 48.9681L79.3722 50.4821V56.8281C79.4502 56.9531 79.5062 57.0951 79.5342 57.2491C79.5372 57.2681 79.5402 57.2861 79.5432 57.3051L85.5022 55.8331V48.9691L85.5012 48.9681ZM51.4922 2.05806C49.4182 1.85206 47.2072 1.75006 45.0002 1.75006C42.7932 1.75006 40.5822 1.85306 38.5082 2.05806V1.68506C38.5082 1.02406 37.9722 0.487061 37.3102 0.487061H32.5172C30.8962 0.487061 29.4162 1.08306 28.3372 2.04406C27.4852 2.80206 26.8802 3.78606 26.6402 4.88906C18.9222 8.03106 13.2462 13.4261 9.5382 20.4871C5.7782 27.6481 4.0562 36.5101 4.2912 46.4531L3.6702 46.3001C3.5532 46.2621 3.4292 46.2421 3.3002 46.2421C2.6392 46.2421 2.1022 46.7781 2.1022 47.4401V56.0271C1.8612 56.1831 1.6372 56.3681 1.4312 56.5771C0.816203 57.2001 0.365202 58.0431 0.148202 58.9531C-0.0677976 59.8571 -0.0577975 60.8471 0.245202 61.7741C0.465202 62.4481 0.840203 63.0861 1.3942 63.6331C6.7192 68.8861 25.9002 71.5121 44.9982 71.5121C64.0962 71.5121 83.2782 68.8861 88.6022 63.6331C89.1562 63.0861 89.5312 62.4481 89.7512 61.7741C90.0542 60.8471 90.0632 59.8571 89.8482 58.9531C89.6312 58.0431 89.1802 57.2011 88.5652 56.5771C88.3592 56.3681 88.1352 56.1831 87.8942 56.0271V47.4401C87.8942 46.7791 87.3582 46.2421 86.6962 46.2421C86.5672 46.2421 86.4432 46.2631 86.3262 46.3001L85.7052 46.4531C85.9412 36.5101 84.2182 27.6471 80.4582 20.4871C76.7502 13.4261 71.0742 8.03106 63.3562 4.88906C63.1172 3.78606 62.5112 2.80206 61.6592 2.04406C60.5792 1.08306 59.0992 0.487061 57.4792 0.487061H52.6862C52.0252 0.487061 51.4882 1.02306 51.4882 1.68506V2.05806H51.4922ZM63.4732 21.0331C63.4732 21.6941 62.9372 22.2311 62.2752 22.2311C61.6132 22.2311 61.0772 21.6951 61.0772 21.0331V5.95106C61.0772 5.13506 60.6922 4.38406 60.0712 3.83206C59.4132 3.24606 58.4972 2.88306 57.4812 2.88306H53.8862V21.0331C53.8862 21.6941 53.3502 22.2311 52.6882 22.2311C52.0262 22.2311 51.4902 21.6951 51.4902 21.0331V4.46406C49.4302 4.25106 47.2152 4.14406 44.9982 4.14406C42.7812 4.14406 40.5662 4.25106 38.5062 4.46406V21.0331C38.5062 21.6941 37.9702 22.2311 37.3082 22.2311C36.6462 22.2311 36.1102 21.6951 36.1102 21.0331V2.88306H32.5152C31.4992 2.88306 30.5832 3.24606 29.9252 3.83206C29.3052 4.38406 28.9192 5.13506 28.9192 5.95106V21.0331C28.9192 21.6941 28.3832 22.2311 27.7212 22.2311C27.0592 22.2311 26.5232 21.6951 26.5232 21.0331V7.53006C19.8732 10.4971 14.9352 15.3451 11.6502 21.6021C8.0022 28.5491 6.3772 37.2451 6.6942 47.0491L12.1072 48.3861C12.6522 48.5201 13.0172 49.0091 13.0172 49.5461H13.0202V56.5021C15.2822 56.9381 17.5642 57.4641 19.9332 58.0101C27.3162 59.7121 35.5442 61.6081 44.9542 61.2511C44.9822 61.2501 45.0102 61.2511 45.0382 61.2511H45.0472C54.4622 61.6071 62.7902 59.6901 70.2292 57.9781C72.5442 57.4451 74.7732 56.9321 76.9732 56.5041V49.5461H76.9762C76.9762 49.0081 77.3402 48.5201 77.8862 48.3861L83.2992 47.0491C83.6162 37.2451 81.9912 28.5491 78.3432 21.6021C75.0582 15.3451 70.1192 10.4971 63.4702 7.53006V21.0331H63.4732Z" fill="url(#paint0_linear_108_71)"/>
</g>
<defs>
<linearGradient id="paint0_linear_108_71" x1="89.9961" y1="35.9996" x2="0" y2="35.9996" gradientUnits="userSpaceOnUse">
<stop stop-color="#3377FE"/>
<stop offset="1" stop-color="#04E9EC"/>
</linearGradient>
<clipPath id="clip0_108_71">
<rect width="90" height="72" fill="white"/>
</clipPath>
</defs>
</svg>
