<svg width="13" height="14" viewBox="0 0 13 14" fill="none" xmlns="http://www.w3.org/2000/svg">
<path d="M2.46644 13.3752C1.65656 13.3752 1 12.7014 1 11.8696V5.81819C1 5.361 1.20281 4.92788 1.55 4.64257L5.58356 1.33019C5.84128 1.11678 6.16539 1 6.5 1C6.83461 1 7.15872 1.11678 7.41644 1.33019L11.4493 4.64257C11.7972 4.92788 12 5.361 12 5.81819V11.8696C12 12.7014 11.3434 13.3752 10.5336 13.3752H2.46644Z" stroke="white" stroke-linecap="round" stroke-linejoin="round"/>
<path d="M4.78125 13.3752V9.59396C4.78125 9.22929 4.92612 8.87955 5.18398 8.62169C5.44184 8.36383 5.79158 8.21896 6.15625 8.21896H6.84375C7.20842 8.21896 7.55816 8.36383 7.81602 8.62169C8.07388 8.87955 8.21875 9.22929 8.21875 9.59396V13.3752" stroke="white" stroke-linecap="round" stroke-linejoin="round"/>
</svg>
