<svg width="506" height="393" viewBox="0 0 506 393" fill="none" xmlns="http://www.w3.org/2000/svg">
<g clip-path="url(#clip0_108_25)">
<mask id="mask0_108_25" style="mask-type:luminance" maskUnits="userSpaceOnUse" x="0" y="0" width="506" height="393">
<path d="M505.7 0H0V392.8H505.7V0Z" fill="white"/>
</mask>
<g mask="url(#mask0_108_25)">
<path d="M496.5 245L391.7 174.8V151.3C398.6 152.8 405.9 150.9 411.2 146.3C420.5 138.3 421.5 124.3 413.5 115C412.4 113.8 411.2 112.6 409.9 111.7L265.5 4.2C258 -1.4 247.6 -1.4 240.1 4.2L95.6002 111.7C85.8002 119.2 83.9002 133.2 91.3002 143C95.5002 148.6 102.1 151.8 109.1 151.8C110.7 151.8 112.3 151.6 113.9 151.3V174.8L9.2002 245C-0.299798 251.4 -2.7998 264.4 3.6002 273.9C7.5002 279.6 13.9002 283 20.8002 283.1C21.8002 283.1 22.8002 283 23.8002 282.9V387.3C23.8002 390.3 26.2002 392.8 29.3002 392.8H476.5C479.5 392.8 481.9 390.3 481.9 387.3V282.9C482.9 283 483.9 283.1 484.9 283.1C492.4 283.1 499.4 279 503 272.4C508.3 263 505.5 251.1 496.5 245ZM287.3 307.6H222.4C219.4 307.6 216.9 310.1 216.9 313.1V381.8H125V145.6L253 48.8L380.9 145.6V381.8H292.9V313.1C292.8 310.1 290.3 307.6 287.3 307.6ZM391.7 224.9L471 278V381.8H391.8V224.9H391.7ZM101.6 138C96.9002 133.9 96.4002 126.9 100.4 122.1C100.9 121.5 101.5 120.9 102.2 120.4L246.7 13C250.4 10.3 255.4 10.3 259 13L403.5 120.4C406.2 122.4 407.9 125.6 408 129C408.2 135.3 403.1 140.6 396.8 140.8C394.3 140.9 391.8 140.1 389.7 138.6L256.1 37.6C254.1 36.1 251.5 36.1 249.5 37.6L115.9 138.7C111.6 141.9 105.6 141.6 101.6 138ZM18.6002 271.9C13.3002 270.6 10.0002 265.2 11.3002 259.9C11.9002 257.6 13.3002 255.5 15.2002 254.1L113.9 188V211.7L26.1002 270.5C24.0002 272 21.2002 272.5 18.6002 271.9ZM34.7002 278L114 224.9V381.8H34.7002V278ZM227.8 381.8V318.6H281.8V381.8H227.8ZM493.3 267.2C490.7 271.9 484.7 273.5 480.1 270.8C479.9 270.7 479.7 270.6 479.5 270.4L391.7 211.6V188L490.4 254.1C494.7 257 496 262.8 493.3 267.2ZM449.6 289.6H413.5C410.5 289.6 408 292.1 408 295.1V331.2C408 334.2 410.4 336.7 413.5 336.7H449.6C452.6 336.7 455.1 334.3 455.1 331.2V295C455.1 292 452.7 289.6 449.6 289.6ZM444.2 325.7H419V300.5H444.2V325.7ZM92.2002 289.6H56.1002C53.1002 289.6 50.6002 292.1 50.6002 295.1V331.2C50.6002 334.2 53.0002 336.7 56.1002 336.7H92.2002C95.2002 336.7 97.7002 334.3 97.7002 331.2V295C97.6002 292 95.2002 289.6 92.2002 289.6ZM86.7002 325.7H61.5002V300.5H86.7002V325.7ZM206.6 130.9H170.2C167.2 130.9 164.7 133.3 164.7 136.3V172.7C164.7 175.7 167.1 178.2 170.2 178.2H206.6C209.6 178.2 212.1 175.8 212.1 172.7V136.3C212 133.4 209.6 130.9 206.6 130.9ZM201.1 167.4H175.6V141.9H201.1V167.4ZM271.1 130.9H234.7C231.7 130.9 229.2 133.4 229.2 136.4V172.8C229.2 175.8 231.7 178.3 234.7 178.3H271.1C274.1 178.3 276.6 175.9 276.6 172.8V136.3C276.5 133.4 274.1 130.9 271.1 130.9ZM265.6 167.4H240.1V141.9H265.6V167.4ZM299.1 178.3H335.5C338.5 178.3 341 175.9 341 172.8V136.3C341 133.3 338.6 130.8 335.5 130.8H299.1C296.1 130.8 293.6 133.3 293.6 136.3V172.7C293.6 175.8 296.1 178.3 299.1 178.3ZM304.6 141.9H330.1V167.4H304.6V141.9ZM206.6 189.4H170.2C167.2 189.4 164.7 191.8 164.7 194.9V231.3C164.7 234.3 167.1 236.8 170.2 236.8H206.6C209.6 236.8 212.1 234.3 212.1 231.3V194.9C212.1 191.9 209.6 189.4 206.6 189.4ZM201.1 225.9H175.6V200.4H201.1V225.9ZM271.1 189.4H234.7C231.7 189.4 229.2 191.9 229.2 194.9V231.3C229.2 234.3 231.7 236.8 234.7 236.8H271.1C274.1 236.8 276.6 234.3 276.6 231.3V194.9C276.5 191.9 274.1 189.4 271.1 189.4ZM265.6 225.9H240.1V200.4H265.6V225.9ZM299.1 236.8H335.5C338.5 236.8 341 234.4 341 231.3V194.9C341 191.9 338.6 189.4 335.5 189.4H299.1C296.1 189.4 293.6 191.9 293.6 194.9V231.3C293.6 234.4 296.1 236.8 299.1 236.8ZM304.6 200.4H330.1V225.9H304.6V200.4ZM206.6 248H170.2C167.2 248 164.7 250.4 164.7 253.5V289.9C164.7 292.9 167.1 295.4 170.2 295.4H206.6C209.6 295.4 212.1 292.9 212.1 289.9V253.5C212.1 250.4 209.6 248 206.6 248ZM201.1 284.4H175.6V258.9H201.1V284.4ZM271.1 248H234.7C231.7 248 229.2 250.4 229.2 253.5V289.9C229.2 292.9 231.7 295.4 234.7 295.4H271.1C274.1 295.4 276.6 292.9 276.6 289.9V253.5C276.5 250.4 274.1 248 271.1 248ZM265.6 284.4H240.1V258.9H265.6V284.4ZM299.1 295.4H335.5C338.5 295.4 341 293 341 289.9V253.4C341 250.4 338.6 247.9 335.5 247.9H299.1C296.1 247.9 293.6 250.3 293.6 253.4V289.8C293.6 292.9 296.1 295.4 299.1 295.4ZM304.6 258.9H330.1V284.3H304.6V258.9Z" fill="url(#paint0_linear_108_25)"/>
</g>
</g>
<defs>
<linearGradient id="paint0_linear_108_25" x1="505.672" y1="196.4" x2="0.0546875" y2="196.4" gradientUnits="userSpaceOnUse">
<stop stop-color="#3377FE"/>
<stop offset="1" stop-color="#04E9EC"/>
</linearGradient>
<clipPath id="clip0_108_25">
<rect width="506" height="393" fill="white"/>
</clipPath>
</defs>
</svg>
