<svg width="62" height="64" viewBox="0 0 62 64" fill="none" xmlns="http://www.w3.org/2000/svg">
<g clip-path="url(#clip0_108_85)">
<mask id="mask0_108_85" style="mask-type:luminance" maskUnits="userSpaceOnUse" x="0" y="0" width="62" height="64">
<path d="M61.6 0H0V64H61.6V0Z" fill="white"/>
</mask>
<g mask="url(#mask0_108_85)">
<path d="M59.5 39.3H49.4L50.7 38C51.2 37.5 51.4 36.9 51.4 36.3C51.4 35.7 51.2 35.1 50.7 34.6L44.6 28.5C43.7 27.6 42.1 27.6 41.2 28.5L35.1 34.6C34.9 34.8 34.7 35.1 34.6 35.5H27C26.9 35.2 26.7 34.9 26.5 34.6L20.4 28.5C19.5 27.6 17.9 27.6 17 28.5L10.9 34.6C10.4 35.1 10.2 35.7 10.2 36.3C10.2 37 10.4 37.5 10.9 38L12.2 39.3H2.2C1 39.3 0 40.3 0 41.5V54.8C0 56.5 1.4 57.9 3.1 57.9H7V62.7H2.2C1.8 62.7 1.5 63 1.5 63.4C1.5 63.8 1.8 64.1 2.2 64.1H59.5C59.9 64.1 60.2 63.8 60.2 63.4C60.2 63 59.9 62.7 59.5 62.7H54.7V57.9H58.6C60.3 57.9 61.7 56.5 61.7 54.8V41.4C61.6 40.2 60.7 39.3 59.5 39.3ZM42.2 29.5C42.6 29.1 43.2 29.1 43.5 29.5L49.6 35.6C49.8 35.8 49.9 36 49.9 36.3C49.9 36.6 49.8 36.8 49.6 37L47.4 39.2H38.2L36 37C35.8 36.8 35.8 36.7 35.8 36.5C35.8 36.4 35.8 36.3 35.8 36.3V36.2C35.8 36 35.9 35.9 36 35.8L42.2 29.5ZM11.7 36.3C11.7 36.1 11.8 35.8 12 35.6L18.1 29.5C18.5 29.1 19.1 29.1 19.4 29.5L25.5 35.6C25.6 35.7 25.7 35.9 25.7 36V36.1C25.7 36.2 25.7 36.3 25.7 36.3C25.7 36.5 25.6 36.7 25.4 36.8L23.2 39H14L12 36.9C11.8 36.8 11.7 36.5 11.7 36.3ZM26.5 38C26.8 37.7 27 37.3 27.1 36.9H34.5C34.6 37.3 34.8 37.7 35.1 38L36.4 39.3H25.2L26.5 38ZM2.2 40.7H59.5C59.9 40.7 60.2 41 60.2 41.4V51.5H1.5V41.4C1.5 41 1.8 40.7 2.2 40.7ZM8.4 62.5V57.7H13.3L11 62.5H8.4ZM46.7 57.8L49 62.6H12.7L15 57.8H46.7ZM53.2 62.5H50.5L48.2 57.7H53.1V62.5H53.2ZM60.2 54.7C60.2 55.6 59.5 56.3 58.6 56.3H3.1C2.2 56.3 1.5 55.6 1.5 54.7V53H60.2V54.7Z" fill="url(#paint0_linear_108_85)"/>
<path d="M5.3 36.9C5.7 36.9 6 36.6 6 36.2V26.6C6 24.6 7.6 23.1 9.5 23.1H17.5C17.9 23.1 18.2 22.8 18.2 22.4C18.2 22 17.9 21.7 17.5 21.7H9.5C6.7 21.7 4.5 23.9 4.5 26.7V36.3C4.6 36.6 4.9 36.9 5.3 36.9Z" fill="url(#paint1_linear_108_85)"/>
<path d="M48.5002 23.1H52.0002C54.0002 23.1 55.5002 24.7 55.5002 26.6V36.2C55.5002 36.6 55.8002 36.9 56.2002 36.9C56.6002 36.9 56.9002 36.6 56.9002 36.2V26.6C56.9002 23.8 54.7002 21.6 51.9002 21.6H48.4002C48.0002 21.6 47.7002 21.9 47.7002 22.3C47.8002 22.7 48.1002 23.1 48.5002 23.1Z" fill="url(#paint2_linear_108_85)"/>
<path d="M36.4995 27.9C36.5995 27.9 36.6995 27.9 36.8995 27.9C37.1995 27.9 37.5995 27.8 37.7995 27.5C38.0995 27.2 38.2995 26.7 38.0995 26.2C36.5995 21.1 39.1995 16.4 41.6995 13.4C42.4995 12.4 42.8995 11.2 42.6995 10C42.6995 9.6 42.4995 9.1 42.3995 8.7L46.4995 3.7C46.8995 3.2 47.0995 2.6 46.9995 2C46.8995 1.4 46.6995 0.8 46.1995 0.5C45.6995 0.2 45.0995 0 44.4995 0C43.9995 0.1 43.3995 0.4 42.9995 0.8L38.8995 5.9C38.5995 5.8 38.1995 5.8 37.7995 5.8C36.3995 5.9 35.0995 6.6 34.2995 7.6C31.7995 10.5 27.7995 13.9 22.5995 13.4C22.0995 13.3 21.6995 13.6 21.3995 14C21.0995 14.4 21.0995 14.9 21.2995 15.3C24.7995 21.7 29.8995 25.9 36.4995 27.9ZM44.1995 1.8C44.2995 1.6 44.4995 1.5 44.6995 1.5C44.8995 1.5 45.0995 1.5 45.2995 1.7C45.4995 1.8 45.5995 2 45.5995 2.3C45.5995 2.5 45.5995 2.7 45.3995 2.9L41.5995 7.5C41.4995 7.3 41.2995 7.2 41.1995 7C40.9995 6.8 40.6995 6.6 40.3995 6.4L44.1995 1.8ZM35.3995 8.6C35.9995 7.9 36.8995 7.4 37.8995 7.3C38.7995 7.2 39.5995 7.5 40.1995 8.1C40.7995 8.6 41.1995 9.4 41.2995 10.2C41.3995 11.1 41.0995 11.9 40.5995 12.6C37.9995 15.9 35.1995 20.9 36.6995 26.5C35.8995 26.3 35.1995 26 34.4995 25.7C33.9995 23.3 35.4995 21.1 35.4995 21C35.6995 20.7 35.5995 20.2 35.2995 20C34.9995 19.8 34.4995 19.9 34.2995 20.2C34.1995 20.3 32.8995 22.4 32.9995 24.9C31.8995 24.4 30.8995 23.7 29.8995 23C30.8995 20 33.3995 18.2 33.3995 18.2C33.6995 18 33.7995 17.5 33.5995 17.2C33.3995 16.9 32.8995 16.8 32.5995 17C32.4995 17.1 29.8995 18.9 28.6995 22.1C27.4995 21.1 26.3995 20 25.3995 18.7C27.8995 18.3 29.6995 16.6 29.6995 16.5C29.9995 16.2 29.9995 15.8 29.6995 15.5C29.3995 15.2 28.8995 15.2 28.6995 15.5C28.6995 15.5 26.7995 17.3 24.2995 17.4C23.7995 16.7 23.2995 15.9 22.7995 15.1C28.3995 15.3 32.6995 11.7 35.3995 8.6Z" fill="url(#paint3_linear_108_85)"/>
<path d="M21.4005 26.9C21.9005 27.2 22.4005 27.4 22.9005 27.4C23.0005 27.4 23.1005 27.4 23.3005 27.4C24.0005 27.3 24.6005 27 25.0005 26.4C25.4005 25.9 25.6005 25.2 25.5005 24.5C25.4005 23.8 25.1005 23.2 24.5005 22.8C24.0005 22.4 23.3005 22.2 22.6005 22.3C21.2005 22.5 20.2005 23.8 20.4005 25.2C20.5005 25.9 20.8005 26.5 21.4005 26.9ZM22.8005 23.8H22.9005C23.1005 23.8 23.4005 23.9 23.6005 24C23.8005 24.2 24.0005 24.4 24.0005 24.7C24.0005 25 24.0005 25.3 23.8005 25.5C23.6005 25.7 23.4005 25.9 23.1005 25.9C22.8005 25.9 22.5005 25.9 22.3005 25.7C22.1005 25.5 21.9005 25.3 21.9005 25C21.8005 24.4 22.2005 23.9 22.8005 23.8Z" fill="url(#paint4_linear_108_85)"/>
<path d="M26.6997 6.90002C26.7997 6.90002 26.8997 6.90002 27.0997 6.90002C27.7997 6.80002 28.4997 6.40002 28.9997 5.80002C29.4997 5.20002 29.5997 4.50002 29.4997 3.70002C29.2997 3.00002 28.9997 2.40002 28.3997 1.90002C27.7997 1.40002 26.9997 1.30002 26.2997 1.40002C25.5997 1.50002 24.8997 1.90002 24.4997 2.50002C23.9997 3.10002 23.8997 3.80002 23.9997 4.60002C24.0997 5.90002 25.2997 6.90002 26.6997 6.90002ZM25.5997 3.40002C25.7997 3.10002 26.0997 2.90002 26.4997 2.90002C26.5997 2.90002 26.5997 2.90002 26.6997 2.90002C26.9997 2.90002 27.2997 3.00002 27.4997 3.20002C27.6997 3.30002 27.8997 3.60002 27.9997 4.00002C27.9997 4.30002 27.9997 4.70002 27.6997 5.00002C27.4997 5.30002 27.1997 5.50002 26.7997 5.50002C26.0997 5.60002 25.3997 5.10002 25.2997 4.40002C25.2997 4.00002 25.3997 3.60002 25.5997 3.40002Z" fill="url(#paint5_linear_108_85)"/>
<path d="M45.3004 19.6C44.6004 19.1 43.8004 18.9 43.0004 19C42.2004 19.1 41.4004 19.5 40.9004 20.2C40.4004 20.9 40.2004 21.7 40.3004 22.5C40.5004 24.1 41.9004 25.2 43.4004 25.2C43.5004 25.2 43.7004 25.2 43.8004 25.2C44.6004 25.1 45.4004 24.7 45.9004 24C46.4004 23.3 46.6004 22.5 46.5004 21.7C46.4004 20.8 45.9004 20.1 45.3004 19.6ZM44.7004 23.1C44.4004 23.5 44.0004 23.7 43.6004 23.7C43.2004 23.8 42.7004 23.7 42.4004 23.4C42.1004 23.1 41.8004 22.7 41.8004 22.3C41.7004 21.9 41.8004 21.4 42.1004 21.1C42.4004 20.7 42.8004 20.5 43.2004 20.5C43.3004 20.5 43.4004 20.5 43.4004 20.5C43.8004 20.5 44.1004 20.6 44.4004 20.8C44.8004 21.1 45.0004 21.5 45.1004 21.9C45.1004 22.3 45.0004 22.7 44.7004 23.1Z" fill="url(#paint6_linear_108_85)"/>
</g>
</g>
<defs>
<linearGradient id="paint0_linear_108_85" x1="61.7" y1="45.9625" x2="0" y2="45.9625" gradientUnits="userSpaceOnUse">
<stop stop-color="#3377FE"/>
<stop offset="1" stop-color="#04E9EC"/>
</linearGradient>
<linearGradient id="paint1_linear_108_85" x1="18.2" y1="29.3" x2="4.5" y2="29.3" gradientUnits="userSpaceOnUse">
<stop stop-color="#3377FE"/>
<stop offset="1" stop-color="#04E9EC"/>
</linearGradient>
<linearGradient id="paint2_linear_108_85" x1="56.9002" y1="29.25" x2="47.7002" y2="29.25" gradientUnits="userSpaceOnUse">
<stop stop-color="#3377FE"/>
<stop offset="1" stop-color="#04E9EC"/>
</linearGradient>
<linearGradient id="paint3_linear_108_85" x1="47.025" y1="13.95" x2="21.1601" y2="13.95" gradientUnits="userSpaceOnUse">
<stop stop-color="#3377FE"/>
<stop offset="1" stop-color="#04E9EC"/>
</linearGradient>
<linearGradient id="paint4_linear_108_85" x1="25.526" y1="24.8373" x2="20.375" y2="24.8373" gradientUnits="userSpaceOnUse">
<stop stop-color="#3377FE"/>
<stop offset="1" stop-color="#04E9EC"/>
</linearGradient>
<linearGradient id="paint5_linear_108_85" x1="29.5345" y1="4.1326" x2="23.9648" y2="4.1326" gradientUnits="userSpaceOnUse">
<stop stop-color="#3377FE"/>
<stop offset="1" stop-color="#04E9EC"/>
</linearGradient>
<linearGradient id="paint6_linear_108_85" x1="46.5254" y1="22.0875" x2="40.2754" y2="22.0875" gradientUnits="userSpaceOnUse">
<stop stop-color="#3377FE"/>
<stop offset="1" stop-color="#04E9EC"/>
</linearGradient>
<clipPath id="clip0_108_85">
<rect width="62" height="64" fill="white"/>
</clipPath>
</defs>
</svg>
