<svg width="78" height="100" viewBox="0 0 78 100" fill="none" xmlns="http://www.w3.org/2000/svg">
<g clip-path="url(#clip0_108_129)">
<mask id="mask0_108_129" style="mask-type:luminance" maskUnits="userSpaceOnUse" x="0" y="0" width="78" height="100">
<path d="M78 0H0V99.9H78V0Z" fill="white"/>
</mask>
<g mask="url(#mask0_108_129)">
<path d="M50.4995 75.3C50.0995 75.3 49.6995 75.1 49.4995 74.6C49.1995 74 49.4995 73.3 49.9995 73.1C53.0995 71.6 52.7995 69 51.9995 65.6C51.8995 65.2 51.7995 64.8 51.6995 64.4C51.3995 62.6 50.9995 56.6 60.2995 54.1C63.0995 53.3 64.3995 51.8 64.0995 49.4C63.9995 48.4 63.5995 47.4 62.9995 46.4C62.1995 45.1 60.4995 42.4 58.5995 39.3C55.1995 33.7 50.8995 26.8 48.3995 22.9C45.9995 19.2 46.1995 14.3 46.2995 11.7C46.2995 11.4 46.2995 11.2 46.2995 11C46.2995 10.4 46.7995 9.9 47.4995 9.9C48.0995 9.9 48.5995 10.4 48.5995 11.1C48.5995 11.3 48.5995 11.6 48.5995 11.9C48.4995 14.2 48.2995 18.6 50.2995 21.7C52.7995 25.6 57.0995 32.5 60.4995 38.1C62.3995 41.2 64.0995 43.9 64.8995 45.2C65.6995 46.5 66.1995 47.8 66.2995 49.2C66.4995 51.3 65.9995 55 60.7995 56.4C53.6995 58.3 53.5995 62.4 53.8995 64C53.9995 64.4 54.0995 64.7 54.0995 65.1C54.6995 68 55.7995 72.8 50.7995 75.2C50.7995 75.2 50.5995 75.3 50.4995 75.3ZM38.8995 99.1H31.9995C31.3995 99.1 30.7995 98.6 30.7995 97.9C30.7995 97.3 31.2995 96.7 31.9995 96.7H38.8995C43.5995 96.7 46.8995 95.7 48.2995 93.9C49.3995 92.5 49.1995 90.7 48.8995 89.5C48.1995 86.7 48.3995 83.8 49.4995 81.4C49.9995 80.2 50.4995 79.5 50.5995 79.4L50.6995 79.3C51.2995 78.5 51.2995 77.5 50.8995 76.6C50.3995 75.6 49.3995 75.1 48.2995 75.1C44.4995 75.1 39.4995 77.6 39.3995 77.7C38.7995 78 38.0995 77.8 37.7995 77.2C37.4995 76.6 37.6995 75.9 38.2995 75.6C38.4995 75.5 43.8995 72.8 48.1995 72.8C50.0995 72.8 51.8995 73.9 52.7995 75.6C53.6995 77.3 53.5995 79.2 52.4995 80.7L52.3995 80.8C52.3995 80.8 51.9995 81.4 51.4995 82.4C50.5995 84.4 50.3995 86.7 50.9995 89C51.5995 91.5 51.2995 93.7 49.9995 95.4C48.1995 97.8 44.3995 99.1 38.8995 99.1ZM2.39952 34C1.99952 34 1.49952 33.8 1.39952 33.3C-0.200481 29.9 -0.400481 26.9 0.599519 24.3C1.69952 21.6 4.29952 19.4 8.19952 18C11.0995 16.9 14.7995 16.3 19.3995 16.2C40.2995 15.8 46.4995 11.6 48.0995 8.2C49.5995 5 47.0995 1.8 46.9995 1.8C46.5995 1.3 46.6995 0.600004 47.1995 0.200004C47.6995 -0.199996 48.3995 -0.099996 48.7995 0.400004C48.8995 0.600004 52.2995 4.7 50.1995 9.2C47.4995 15 37.0995 18.2 19.3995 18.5C14.9995 18.6 11.5995 19.1 8.89952 20.1C5.59952 21.3 3.49952 23 2.59952 25.2C1.79952 27.2 1.99952 29.6 3.29952 32.4C3.59952 33 3.29952 33.7 2.69952 33.9C2.69952 34 2.49952 34 2.39952 34ZM16.8995 99.9C16.7995 99.9 16.6995 99.9 16.5995 99.9C15.9995 99.7 15.5995 99.1 15.7995 98.5C18.1995 88.6 18.5995 76.3 18.5995 67.7C18.4995 60.9 23.8995 55.2 30.6995 54.7L41.3995 54C41.5995 54 51.6995 53.8 54.3995 47.4C54.6995 46.8 55.2995 46.5 55.8995 46.8C56.4995 47.1 56.7995 47.7 56.4995 48.3C53.1995 56 41.9995 56.3 41.4995 56.3L30.8995 57C25.2995 57.4 20.8995 62.1 20.9995 67.7C21.0995 76.4 20.5995 88.9 18.1995 99C17.8995 99.5 17.3995 99.9 16.8995 99.9ZM5.59952 99.9C5.49952 99.9 5.29952 99.9 5.19952 99.8C4.59952 99.6 4.29952 98.9 4.59952 98.3C7.79952 90.3 8.09952 80 7.99952 70.1C7.99952 63.4 10.5995 57.1 15.2995 52.3C20.0995 47.5 26.4995 44.9 33.1995 44.9H39.6995C39.6995 44.9 43.0995 44.9 45.4995 43.7C46.1995 43.3 46.6995 42.7 46.8995 41.9C47.0995 41.1 46.9995 40.2 46.5995 39.4L39.3995 27.4C39.0995 26.9 39.1995 26.1 39.7995 25.8C40.2995 25.5 41.0995 25.6 41.3995 26.2L48.5995 38.2C49.3995 39.5 49.5995 41 49.1995 42.5C48.7995 43.9 47.8995 45 46.5995 45.7C43.5995 47.2 39.7995 47.2 39.6995 47.2H33.1995C26.9995 47.2 21.2995 49.6 16.8995 54C12.5995 58.3 10.1995 64 10.1995 70.1C10.1995 80.2 9.99952 90.8 6.59952 99.2C6.49952 99.6 6.09952 99.9 5.59952 99.9ZM76.7995 67C76.4995 67 76.1995 66.9 75.9995 66.7L68.4995 59.3C67.9995 58.9 67.9995 58.1 68.4995 57.7C68.8995 57.2 69.6995 57.2 70.0995 57.7L77.5995 65.1C78.0995 65.5 78.0995 66.3 77.5995 66.7C77.2995 66.9 77.0995 67 76.7995 67ZM73.2995 73.6C72.9995 73.6 72.5995 73.5 72.3995 73.2L65.8995 65.1C65.4995 64.6 65.5995 63.9 66.0995 63.5C66.5995 63.1 67.2995 63.2 67.6995 63.7L74.1995 71.8C74.5995 72.3 74.4995 73 73.9995 73.4C73.7995 73.5 73.5995 73.6 73.2995 73.6ZM64.3995 73.2C63.9995 73.2 63.5995 73 63.3995 72.7L60.2995 67.9C59.9995 67.4 60.0995 66.6 60.6995 66.3C61.1995 66 61.9995 66.1 62.2995 66.6L65.3995 71.4C65.6995 71.9 65.5995 72.7 64.9995 73C64.7995 73.1 64.5995 73.2 64.3995 73.2Z" fill="url(#paint0_linear_108_129)"/>
</g>
</g>
<defs>
<linearGradient id="paint0_linear_108_129" x1="77.9746" y1="49.9266" x2="-0.0117188" y2="49.9266" gradientUnits="userSpaceOnUse">
<stop stop-color="#3377FE"/>
<stop offset="1" stop-color="#04E9EC"/>
</linearGradient>
<clipPath id="clip0_108_129">
<rect width="78" height="100" fill="white"/>
</clipPath>
</defs>
</svg>
