<svg width="88" height="90" viewBox="0 0 88 90" fill="none" xmlns="http://www.w3.org/2000/svg">
<g clip-path="url(#clip0_108_119)">
<path d="M53.9734 35.438C56.1062 36.9497 59.0125 36.7075 60.8679 34.8677L64.5632 31.1724C64.7585 30.9771 65.0242 30.8677 65.3015 30.8677C65.5788 30.8677 65.8445 30.9771 66.0359 31.1724L70.0671 35.2036C70.2624 35.3989 70.3757 35.6646 70.3757 35.9419C70.3757 36.2192 70.2624 36.4809 70.0671 36.6763L66.3679 40.3677C61.4773 45.2388 53.6529 45.5005 48.4419 40.9692L40.0474 49.3637L40.0513 49.3598C44.5786 54.5707 44.3169 62.3948 39.4497 67.2898L26.6607 80.0788C21.524 85.1882 13.2267 85.1882 8.09473 80.0788L3.83303 75.8171C-1.27637 70.6843 -1.27637 62.3831 3.83303 57.2471L7.52833 53.5518C7.93458 53.1495 8.59473 53.1495 9.00103 53.5518L13.0283 57.5791V57.583C13.4346 57.9893 13.4346 58.6494 13.0283 59.0557L9.33303 62.751C8.32913 63.7549 7.76663 65.1182 7.76663 66.5362H7.77444C7.76663 67.9542 8.32913 69.3174 9.33304 70.3174L13.5947 74.5791C14.5986 75.583 15.958 76.1416 17.3759 76.1416C18.7938 76.1416 20.1571 75.583 21.1571 74.5791L33.9501 61.7901C35.7899 59.9307 36.0282 57.0245 34.5204 54.8917C32.9813 56.2745 30.6298 56.212 29.1649 54.7472C27.7001 53.2824 27.6376 50.9308 29.0204 49.3917C26.8915 47.8761 23.9774 48.1144 22.1259 49.9581L18.4306 53.6573C18.0205 54.0597 17.3642 54.0597 16.954 53.6573L12.9306 49.6339C12.5244 49.2277 12.5244 48.5675 12.9306 48.1573L16.6259 44.462V44.4659C21.5165 39.5948 29.3409 39.3331 34.5519 43.8644L42.9503 35.4699C38.4191 30.259 38.673 22.4389 43.5363 17.5359L56.3333 4.74685C61.47 -0.354745 69.7633 -0.354745 74.8993 4.74685L79.1571 9.00856C84.2704 14.1414 84.2704 22.4426 79.1571 27.5786L75.4618 31.2739H75.4657C75.2704 31.4692 75.0047 31.5824 74.7274 31.5824C74.45 31.5824 74.1844 31.4692 73.9891 31.2739L69.9579 27.2427H69.9618C69.7626 27.0473 69.6532 26.7817 69.6532 26.5083C69.6532 26.2309 69.7626 25.9653 69.9618 25.77L73.6571 22.0747C74.661 21.0708 75.2235 19.7114 75.2196 18.2935H75.2157C75.2196 16.8716 74.661 15.5123 73.6571 14.5083L69.3954 10.2466V10.2505C68.3954 9.2466 67.0321 8.6841 65.6181 8.6841C64.1962 8.68019 62.8369 9.23879 61.8329 10.2466L49.0439 23.0436C48.04 24.0436 47.4775 25.4069 47.4814 26.8248C47.4814 27.942 47.8291 29.0279 48.4736 29.9381C50.0127 28.5553 52.3642 28.6217 53.8291 30.0826C55.29 31.5474 55.3562 33.8989 53.9734 35.438ZM65.1294 77.235C67.0396 77.235 68.6802 78.5827 69.0513 80.4577C69.4224 82.3288 68.4224 84.1999 66.6568 84.9304C64.8951 85.6609 62.8638 85.0437 61.8013 83.4577C60.7427 81.8679 60.9498 79.7546 62.3013 78.4069C63.0513 77.6569 64.0708 77.235 65.1294 77.235ZM66.481 79.8756C65.8365 79.2311 64.8208 79.1295 64.0591 79.6373C63.2974 80.1451 63.0044 81.1217 63.356 81.9693C63.7037 82.8131 64.606 83.2935 65.5005 83.1138C66.3989 82.9341 67.0435 82.1451 67.0435 81.231C67.0435 80.7232 66.8404 80.235 66.481 79.8756ZM65.1294 57.6526V57.6565C67.2388 57.6565 68.9458 59.3635 68.9497 61.4729V71.4929C68.9497 73.5984 67.2427 75.3054 65.1333 75.3054C63.0278 75.3054 61.3208 73.5984 61.3208 71.4929V61.4729C61.3247 59.3674 63.0278 57.6604 65.1333 57.6565L65.1294 57.6526ZM66.356 60.2463C65.8599 59.7502 65.1138 59.6018 64.4654 59.8713C63.8209 60.1409 63.399 60.7737 63.399 61.4729V71.4929C63.399 71.9539 63.5826 72.3953 63.9029 72.7195C64.2272 73.0476 64.6686 73.2312 65.1295 73.2312C65.5905 73.2312 66.0319 73.0477 66.3561 72.7195C66.6804 72.3953 66.86 71.9539 66.86 71.4929V61.4729C66.86 61.012 66.6763 60.5745 66.356 60.2463ZM71.1763 52.7072L86.1253 78.6022V78.6061C86.137 78.6257 86.1488 78.6452 86.1566 78.6647C87.4105 80.8092 87.3988 83.4616 86.1253 85.5944C86.1136 85.6139 86.1019 85.6296 86.0902 85.6452C85.4847 86.6882 84.6214 87.5554 83.5785 88.1569C83.5589 88.1686 83.5394 88.1803 83.5199 88.1921C82.4691 88.778 81.2816 89.0866 80.0785 89.0788H50.1835C48.953 89.0866 47.746 88.7702 46.6796 88.1569C45.6171 87.5397 44.7382 86.6491 44.1366 85.5788C42.8514 83.4304 42.8514 80.7468 44.1366 78.5944L59.0856 52.6994C59.0973 52.6799 59.109 52.6603 59.1207 52.6408H59.1168C61.0777 49.3517 65.3082 48.2385 68.6324 50.1369C69.691 50.758 70.5699 51.6447 71.1793 52.7111L71.1763 52.7072ZM84.3283 79.6412L69.3793 53.7542H69.3832C68.5199 52.2308 66.9105 51.2854 65.1605 51.2737C63.4105 51.2659 61.7894 52.1917 60.9105 53.7034C60.9027 53.7229 60.891 53.7386 60.8793 53.7581L45.9303 79.6451H45.9342C45.0357 81.1568 45.0357 83.0396 45.9342 84.5513C46.36 85.3013 46.9772 85.9263 47.7233 86.3599C48.4772 86.7818 49.3249 87.0005 50.1881 86.9927H80.0831C80.9307 87.0005 81.7628 86.7935 82.505 86.3872C82.5206 86.3794 82.5401 86.3677 82.5519 86.356C83.2823 85.9341 83.8878 85.3248 84.3097 84.5982C84.3175 84.5787 84.3292 84.563 84.3409 84.5435C85.2276 83.0474 85.2393 81.1919 84.3682 79.688C84.3565 79.6724 84.3487 79.6528 84.3409 79.6372L84.3283 79.6412ZM70.9303 38.2352C71.0631 37.6766 71.6256 37.3368 72.1842 37.4735C72.7389 37.6063 73.0827 38.1688 72.9459 38.7274L71.9577 42.8016C71.8991 43.075 71.735 43.3133 71.4967 43.4618C71.2584 43.6141 70.9694 43.661 70.6998 43.5946C70.4264 43.5282 70.192 43.3563 70.0475 43.1141C69.9069 42.8719 69.8678 42.5829 69.942 42.3133L70.9303 38.2352ZM77.5162 34.1571C77.2506 34.2235 76.9654 34.1806 76.7311 34.036C76.4967 33.8954 76.3287 33.6649 76.2623 33.3954C76.1256 32.8407 76.4693 32.2782 77.024 32.1415L81.1021 31.1532C81.3717 31.079 81.6607 31.1181 81.9029 31.2626C82.1451 31.4032 82.3209 31.6376 82.3834 31.911C82.4498 32.1845 82.4029 32.4696 82.2545 32.7079C82.1021 32.9462 81.8638 33.1142 81.5904 33.1689L77.5162 34.1571ZM75.7271 38.411V38.4149C75.3287 38.0048 75.3287 37.3524 75.7349 36.9501C76.1373 36.5439 76.7935 36.54 77.1997 36.9423L80.8013 40.5478C81.2076 40.9541 81.2076 41.6142 80.8013 42.0205C80.3951 42.4268 79.7349 42.4268 79.3286 42.0205L75.7271 38.411ZM5.49712 49.903C6.044 49.7858 6.58692 50.1296 6.71982 50.6765C6.84873 51.2194 6.52451 51.7703 5.98154 51.9187L1.90344 52.9109V52.9148C1.63391 52.989 1.34485 52.9499 1.10266 52.8054C0.86047 52.6648 0.68469 52.4265 0.61829 52.153C0.551883 51.8796 0.602664 51.5905 0.7511 51.3523C0.90344 51.1179 1.14172 50.9499 1.41907 50.8913L5.49712 49.903ZM12.0791 45.8249C12.0205 46.0984 11.8526 46.3405 11.6143 46.489C11.3799 46.6374 11.0908 46.6843 10.8174 46.6179C10.544 46.5554 10.3096 46.3796 10.169 46.1374C10.0244 45.8991 9.98537 45.6101 10.0596 45.3366L11.0479 41.2585H11.0518C11.2002 40.7195 11.751 40.3913 12.294 40.5242C12.8408 40.657 13.1846 41.196 13.0674 41.7469L12.0791 45.8249ZM7.28222 45.653C7.68066 46.0593 7.67675 46.7155 7.27441 47.1178C6.87207 47.5241 6.21581 47.5241 5.80961 47.1257L2.20411 43.528C2.00489 43.3326 1.89552 43.067 1.89161 42.7897C1.89161 42.5084 2.00099 42.2428 2.1963 42.0475C2.39552 41.8483 2.66114 41.7389 2.93849 41.7389C3.21974 41.7428 3.48537 41.8561 3.68068 42.0514L7.28222 45.653ZM47.6842 38.7897L51.7154 34.7663L52.4615 34.0124C53.1646 33.3054 53.1646 32.1686 52.4615 31.4616C51.7545 30.7585 50.6138 30.7585 49.9068 31.4616L49.1529 32.2077L45.1256 36.2272L30.5276 50.8252L30.5315 50.8213C29.8518 51.5323 29.8635 52.6533 30.5588 53.3486C31.2503 54.0439 32.3713 54.0556 33.0822 53.3799L33.8322 52.6338L37.8634 48.6104L47.6842 38.7897ZM49.9225 39.4968C54.317 43.2116 60.8205 42.9499 64.8995 38.8952L67.8565 35.9382L65.3057 33.3796L62.3448 36.3366H62.3409C59.6729 38.9889 55.4503 39.2389 52.4854 36.9226L49.9225 39.4968ZM38.5745 50.8368L36.0042 53.4071C38.3284 56.3641 38.0784 60.5946 35.4261 63.2587L22.6331 76.0517C21.2386 77.4501 19.3479 78.2275 17.3792 78.2236C15.4065 78.2275 13.512 77.4462 12.1136 76.0517L7.8558 71.79C6.4613 70.3955 5.68 68.5048 5.6839 66.5361C5.67999 64.5634 6.45734 62.6689 7.848 61.2744L10.8089 58.3174L8.2503 55.7588L5.305 58.7236C1.0081 63.0478 1.0081 70.0246 5.305 74.3486L9.5667 78.6103L9.56279 78.6064C13.887 82.9033 20.8678 82.9033 25.1878 78.6064L37.9768 65.8174C42.0354 61.7354 42.2933 55.2268 38.5745 50.8368ZM30.5042 47.8993L33.0745 45.329V45.3329C28.68 41.6181 22.1765 41.8798 18.0945 45.9344L15.1375 48.8875L17.6922 51.4461L20.6531 48.4852C23.3211 45.8329 27.5432 45.5829 30.5042 47.8993ZM44.4222 33.9933L46.9847 31.423C44.6644 28.4621 44.9144 24.2316 47.5667 21.5636L60.3558 8.77857C61.7542 7.38407 63.6488 6.60277 65.6214 6.60667V6.61448C67.5902 6.60667 69.4808 7.38401 70.8753 8.77858L75.1369 13.0403L75.133 13.0364C76.5314 14.4309 77.3166 16.3255 77.3088 18.302C77.3128 20.2708 76.5315 22.1614 75.1408 23.552L72.1838 26.5129L74.7385 29.0637L77.6838 26.1067C81.9807 21.7864 81.9807 14.8057 77.6838 10.4857L73.4221 6.22397C69.1018 1.92707 62.1211 1.92707 57.8011 6.22397L45.0121 19.013C40.9574 23.095 40.6996 29.6033 44.4222 33.9933Z" fill="url(#paint0_linear_108_119)"/>
</g>
<defs>
<linearGradient id="paint0_linear_108_119" x1="87.0889" y1="44.9998" x2="0.000980377" y2="44.9998" gradientUnits="userSpaceOnUse">
<stop stop-color="#3377FE"/>
<stop offset="1" stop-color="#04E9EC"/>
</linearGradient>
<clipPath id="clip0_108_119">
<rect width="88" height="90" fill="white"/>
</clipPath>
</defs>
</svg>
