<svg width="88" height="88" viewBox="0 0 88 88" fill="none" xmlns="http://www.w3.org/2000/svg">
<g clip-path="url(#clip0_108_76)">
<mask id="mask0_108_76" style="mask-type:luminance" maskUnits="userSpaceOnUse" x="0" y="0" width="88" height="88">
<path d="M87.3 0H0V87.5H87.3V0Z" fill="white"/>
</mask>
<g mask="url(#mask0_108_76)">
<path d="M83 34.1H77.4C76.7 31.6 75.7 29.1 74.4 26.9L78.4 22.9C80.1 21.2 80.1 18.5 78.4 16.8L70.7 9.10002C69 7.50002 66.3 7.50002 64.6 9.10002L60.6 13.1C58.3 11.8 55.9 10.8 53.4 10.1V4.50002C53.4 2.10002 51.5 0.200021 49.1 0.200021C23 -2.09998 0 17.3 0 43.8C0 55.4 4.6 66.4 12.8 74.6C21 82.8 32 87.4 43.6 87.4H49C51.4 87.4 53.3 85.5 53.3 83.1V77.5C55.8 76.8 58.3 75.8 60.6 74.5L64.6 78.5C66.3 80.1 69 80.1 70.7 78.5L78.4 70.8C80.1 69.1 80.1 66.4 78.4 64.7L74.4 60.7C75.7 58.4 76.7 56 77.4 53.5H83C85.4 53.5 87.3 51.6 87.3 49.2V38.4C87.2 36 85.3 34.1 83 34.1ZM84.1 49.3C84.1 49.9 83.6 50.5 82.9 50.5H76.1C75.4 50.5 74.8 51 74.6 51.7C73.8 54.7 72.6 57.7 71 60.3C70.6 60.9 70.7 61.7 71.2 62.2L76 67C76.5 67.5 76.5 68.2 76 68.7L68.3 76.4C67.8 76.8 67.1 76.8 66.6 76.4L61.8 71.6C61.3 71.1 60.5 71 59.9 71.4C57.2 73 54.3 74.2 51.3 75C50.6 75.2 50.1 75.8 50.1 76.5V83.3C50.1 83.9 49.6 84.5 48.9 84.5C24.6 86.5 3.2 68.7 3.1 43.8C3.2 18.9 24.6 1.10002 49 3.30002C49.6 3.30002 50.2 3.80002 50.2 4.50002V11.3C50.2 12 50.7 12.6 51.4 12.8C54.4 13.6 57.4 14.8 60 16.4C60.6 16.8 61.4 16.7 61.9 16.2L66.7 11.4C67.2 11 67.9 11 68.4 11.4L76.1 19.1C76.6 19.6 76.6 20.3 76.1 20.8L71.3 25.6C70.8 26.1 70.7 26.9 71.1 27.5C72.7 30.2 73.9 33.1 74.7 36.1C74.9 36.8 75.5 37.3 76.2 37.3H83C83.7 37.3 84.2 37.8 84.2 38.5L84.1 49.3Z" fill="url(#paint0_linear_108_76)"/>
<path d="M53 27.1C52.2 26.7 51.3 27.1 50.9 27.8C50.5 28.6 50.8 29.5 51.6 29.9C55.1 31.6 57.8 34.6 59.2 38.2C60.6 41.8 60.6 45.8 59.2 49.5C57.8 53.1 55.1 56.1 51.6 57.8C50.8 58.2 50.5 59.1 50.9 59.9C51.3 60.7 52.2 61 53 60.6C57.2 58.5 60.5 55 62.2 50.6C63.9 46.2 63.9 41.4 62.2 37.1C60.5 32.7 57.2 29.2 53 27.1Z" fill="url(#paint1_linear_108_76)"/>
<path d="M45.1 74.7C34.7 74.7 25.1 69.5 19.4 60.8L23.9 58.2001C24.6 57.8001 24.9 56.8 24.5 56.1C24.1 55.4 23.1 55.1 22.4 55.5L17.9 58.1C13.3 49.3 13.2 38.8 17.7 29.9C18.3 30.1 22.4 32.8001 22.9 32.7001C23.6 32.7001 24.2 32.2 24.4 31.5C24.6 30.8 24.3 30.1001 23.7 29.7001L19.2 27.1C24.8 18.4 34.6 13 45.1 13C46 13 46.6 12.3 46.6 11.4C46.6 10.5 45.9 9.90005 45.1 9.80005C1.52588e-05 11.7 0.100014 76 45.1 77.8C46 77.8 46.6 77.1 46.6 76.2C46.6 75.4 45.9 74.7 45.1 74.7Z" fill="url(#paint2_linear_108_76)"/>
<path d="M46.8002 37.1V28.6C46.8002 27.7 46.1002 27.1 45.2002 27.1C44.4002 27.1 43.7002 27.8 43.6002 28.6V37.1C41.4002 37.6 39.5002 39.2 38.7002 41.3C37.9002 43.4 38.0002 45.8 39.2002 47.8L34.4002 52.6C33.8002 53.2 33.8002 54.2 34.4002 54.8C35.0002 55.4 36.0002 55.4 36.6002 54.8L41.4002 50C43.2002 51.1 45.3002 51.4 47.3002 50.8C49.3002 50.2 50.9002 48.7 51.7002 46.8C52.5002 44.9 52.4002 42.7 51.4002 40.8C50.5002 38.9 48.8002 37.6 46.8002 37.1ZM45.2002 48C43.0002 48 41.3002 46.2 41.3002 44C41.3002 41.8 43.0002 40.1 45.2002 40C47.4002 40 49.1002 41.8 49.1002 44C49.1002 46.2 47.4002 47.9 45.2002 48Z" fill="url(#paint3_linear_108_76)"/>
</g>
</g>
<defs>
<linearGradient id="paint0_linear_108_76" x1="87.3001" y1="43.7075" x2="0" y2="43.7075" gradientUnits="userSpaceOnUse">
<stop stop-color="#3377FE"/>
<stop offset="1" stop-color="#04E9EC"/>
</linearGradient>
<linearGradient id="paint1_linear_108_76" x1="63.475" y1="43.8588" x2="50.7236" y2="43.8588" gradientUnits="userSpaceOnUse">
<stop stop-color="#3377FE"/>
<stop offset="1" stop-color="#04E9EC"/>
</linearGradient>
<linearGradient id="paint2_linear_108_76" x1="46.6" y1="43.8" x2="11.3125" y2="43.8" gradientUnits="userSpaceOnUse">
<stop stop-color="#3377FE"/>
<stop offset="1" stop-color="#04E9EC"/>
</linearGradient>
<linearGradient id="paint3_linear_108_76" x1="52.2335" y1="41.175" x2="33.9502" y2="41.175" gradientUnits="userSpaceOnUse">
<stop stop-color="#3377FE"/>
<stop offset="1" stop-color="#04E9EC"/>
</linearGradient>
<clipPath id="clip0_108_76">
<rect width="88" height="88" fill="white"/>
</clipPath>
</defs>
</svg>
