<svg width="60" height="60" viewBox="0 0 60 60" fill="none" xmlns="http://www.w3.org/2000/svg">
<g clip-path="url(#clip0_108_135)">
<mask id="mask0_108_135" style="mask-type:luminance" maskUnits="userSpaceOnUse" x="0" y="0" width="60" height="60">
<path d="M60 0H0V60H60V0Z" fill="white"/>
</mask>
<g mask="url(#mask0_108_135)">
<path d="M55.1999 28.7C54.1999 27.1 52.0999 26.6 50.4999 27.5L50.3999 27.6L45.4999 30.9C43.9999 31.9 43.4999 34 44.4999 35.5L48.9999 43H39.9999V40.2C39.9999 39.3 39.4999 38.5 38.6999 38.2C37.8999 37.9 36.9999 38.1 36.3999 38.7L27.6999 47.5C26.8999 48.3 26.8999 49.7 27.6999 50.5L36.3999 59.3C36.9999 59.9 37.8999 60.1 38.6999 59.8C39.4999 59.5 39.9999 58.7 39.9999 57.8V55H48.9999C55.0999 55 59.9999 50.1 59.9999 44V38.5C59.9999 37.3 59.6999 36.2 59.0999 35.2L55.1999 28.7ZM57.9999 44C57.9999 49 53.9999 53 48.9999 53H39.9999C38.8999 53 37.9999 53.9 37.9999 55V57.8C37.9999 57.9 37.9999 57.9 37.8999 58H37.7999L28.9999 49.1V49C28.9999 49 28.9999 48.9 29.0999 48.9L37.7999 40.1H37.8999C37.8999 40.1 37.8999 40.1 37.9999 40.1C38.0999 40.1 38.0999 40.2 38.0999 40.3V43C38.0999 44.1 38.9999 45 40.0999 45H53.5999C55.2999 45 56.8999 44.4 58.0999 43.2V44H57.9999ZM56.6999 41.7C55.8999 42.5 54.6999 43 53.4999 43H51.2999L45.9999 34.5C45.5999 33.9 45.7999 33 46.3999 32.6L51.2999 29.3C51.9999 28.9 52.7999 29 53.2999 29.7L57.1999 36.2C58.3999 38 58.0999 40.2 56.6999 41.7ZM5.39986 53.3L9.99986 56C10.8999 56.7 11.9999 57 12.9999 57H20.9999C22.6999 57 23.9999 55.7 23.9999 54V47C23.9999 45.3 22.6999 44 20.9999 44H11.9999L16.3999 36.6L18.7999 38C19.7999 38.6 21.0999 38.3 21.6999 37.3C21.9999 36.8 22.0999 36.2 21.8999 35.7L18.6999 23.7C18.3999 22.6 17.1999 21.9 16.0999 22.1L4.09986 25.1C3.29986 25.3 2.59986 26 2.49986 26.9C2.39986 27.8 2.79986 28.6 3.49986 29.1L5.89986 30.5L1.29986 38.3C-1.60014 43.4 0.199862 50.2 5.39986 53.3ZM20.9999 46C21.5999 46 21.9999 46.4 21.9999 47V54C21.9999 54.6 21.5999 55 20.9999 55H12.9999C12.2999 55 11.6999 54.7 11.0999 54.4C8.99986 53.1 8.29986 50.4 9.59986 48.3L10.8999 46.1H20.9999V46ZM3.19986 39.2L7.79986 31.5C8.39986 30.6 7.99986 29.3 7.09986 28.8L4.69986 27.4C4.59986 27.4 4.59986 27.3 4.59986 27.2C4.59986 27.1 4.59986 27.1 4.69986 27.1L16.6999 24.1C16.7999 24.1 16.7999 24.2 16.8999 24.2L20.0999 36.2C20.0999 36.3 20.0999 36.3 19.9999 36.4C19.9999 36.4 19.8999 36.4 19.7999 36.4L17.3999 35C16.9999 34.7 16.3999 34.6 15.8999 34.8C15.3999 34.9 14.8999 35.3 14.6999 35.7L7.79986 47.2C6.99986 48.6 6.69986 50.3 7.09986 52L6.39986 51.6C2.09986 49 0.699862 43.5 3.19986 39.2ZM30.8999 22.8C30.9999 23.7 31.6999 24.4 32.4999 24.6L44.5999 27.5C44.7999 27.5 44.8999 27.6 45.0999 27.6C46.0999 27.6 46.9999 26.9 47.1999 26L50.1999 14C50.3999 13.2 50.0999 12.3 49.3999 11.8C48.6999 11.3 47.6999 11.2 46.9999 11.7L44.5999 13L39.8999 5.29998C36.7999 0.099978 29.9999 -1.50002 24.7999 1.59998L20.0999 4.39998C19.0999 4.99998 18.1999 5.89998 17.6999 6.99998L14.2999 14.5C13.5999 16 14.2999 17.8 15.7999 18.5L22.1999 21.4C23.6999 22.1 25.4999 21.4 26.1999 19.9L29.9999 11.7L34.4999 19.1L32.0999 20.6C31.1999 21.1 30.7999 21.9 30.8999 22.8ZM24.2999 19.1C24.0999 19.6 23.4999 19.8 22.9999 19.6L16.5999 16.7C16.0999 16.5 15.8999 15.9 16.0999 15.4L19.4999 7.89998C19.8999 7.19998 20.4999 6.59998 21.1999 6.19998C22.1999 5.59998 23.3999 5.39998 24.5999 5.69998C25.7999 5.99998 26.7999 6.69998 27.3999 7.69998L28.6999 9.79998L24.2999 19.1ZM32.9999 22.3L35.3999 20.8C35.8999 20.5 36.1999 20.1 36.2999 19.6C36.3999 19.1 36.2999 18.5 36.0999 18.1L29.0999 6.59998C28.1999 5.19998 26.8999 4.09998 25.1999 3.69998L25.8999 3.29998C30.1999 0.699978 35.6999 2.09998 38.2999 6.29998L42.9999 14C43.5999 14.9 44.7999 15.2 45.6999 14.7L48.0999 13.2C48.1999 13.2 48.1999 13.2 48.2999 13.2C48.2999 13.2 48.3999 13.3 48.2999 13.3L45.2999 25.3C45.2999 25.4 45.1999 25.5 45.0999 25.4L32.9999 22.6C32.8999 22.6 32.8999 22.5 32.8999 22.5C32.8999 22.4 32.8999 22.4 32.9999 22.3Z" fill="url(#paint0_linear_108_135)"/>
</g>
</g>
<defs>
<linearGradient id="paint0_linear_108_135" x1="59.9999" y1="29.9812" x2="-0.0830078" y2="29.9812" gradientUnits="userSpaceOnUse">
<stop stop-color="#3377FE"/>
<stop offset="1" stop-color="#04E9EC"/>
</linearGradient>
<clipPath id="clip0_108_135">
<rect width="60" height="60" fill="white"/>
</clipPath>
</defs>
</svg>
