<svg width="86" height="90" viewBox="0 0 86 90" fill="none" xmlns="http://www.w3.org/2000/svg">
<g clip-path="url(#clip0_108_121)">
<path d="M83.6996 32.73L81.4216 30.871C80.3321 29.9859 78.9363 29.5684 77.5397 29.7099C76.1431 29.8514 74.8595 30.5404 73.9696 31.626L69.5406 37.054V15.354C69.5411 15.0373 69.4164 14.7332 69.1936 14.508L55.0806 0.352002C54.9695 0.240228 54.8374 0.151572 54.6918 0.0911551C54.5463 0.030738 54.3902 -0.000242899 54.2326 1.43401e-06H3.48059C2.65008 0.00159037 1.85412 0.332554 1.26733 0.92028C0.680542 1.50801 0.350849 2.30449 0.350586 3.135V86.865C0.350849 87.6955 0.680542 88.492 1.26733 89.0797C1.85412 89.6674 2.65008 89.9984 3.48059 90H66.4146C67.2451 89.9984 68.0411 89.6674 68.6278 89.0797C69.2146 88.492 69.5443 87.6955 69.5446 86.865V58.458L81.3136 44.036L84.4566 40.185C85.3444 39.0959 85.7634 37.6987 85.6215 36.3008C85.4795 34.9028 84.7882 33.6184 83.6996 32.73ZM78.6996 43.448L64.2076 61.209L61.7496 59.2L76.2426 41.442L78.6996 43.448ZM56.6996 58.179L59.2996 60.301L61.8996 62.423L56.0476 64.285L56.6996 58.179ZM59.8876 57.688L57.4286 55.682L71.9286 37.921L74.3866 39.927L59.8876 57.688ZM55.4296 4.1L65.4606 14.152H55.7346C55.6545 14.1489 55.5786 14.1151 55.5227 14.0576C55.4669 14 55.4353 13.9232 55.4346 13.843L55.4296 4.1ZM67.1486 86.87C67.1468 87.0647 67.0691 87.251 66.932 87.3892C66.7949 87.5274 66.6092 87.6066 66.4146 87.61H3.48059C3.28584 87.6066 3.1001 87.5274 2.96284 87.3892C2.82558 87.251 2.74764 87.0648 2.74559 86.87V3.135C2.74764 2.94024 2.82558 2.75396 2.96284 2.61577C3.1001 2.47758 3.28584 2.39838 3.48059 2.395H53.0346V13.843C53.0346 14.5591 53.3191 15.2458 53.8254 15.7522C54.3317 16.2585 55.0185 16.543 55.7346 16.543H67.1486V39.989L54.8216 55.1C54.8136 55.109 54.8076 55.119 54.8006 55.128L54.7546 55.19L54.7306 55.23C54.7176 55.25 54.7056 55.27 54.6946 55.291C54.6861 55.3063 54.6784 55.3219 54.6716 55.338C54.6616 55.3572 54.6526 55.3769 54.6446 55.397C54.6366 55.415 54.6306 55.433 54.6236 55.452C54.6166 55.471 54.6106 55.488 54.6046 55.506C54.5986 55.524 54.5926 55.549 54.5876 55.571L54.5756 55.62C54.5706 55.645 54.5676 55.669 54.5646 55.694C54.5616 55.719 54.5646 55.718 54.5586 55.73L53.4796 65.857C53.4591 66.0548 53.4882 66.2547 53.5641 66.4385C53.64 66.6223 53.7605 66.7844 53.9146 66.9101C54.0687 67.0359 54.2516 67.1214 54.447 67.1589C54.6423 67.1964 54.8439 67.1847 55.0336 67.125L64.7416 64.036L64.7816 64.021C64.8036 64.013 64.8266 64.005 64.8476 63.996C64.8686 63.987 64.8856 63.978 64.9046 63.969C64.9236 63.96 64.9376 63.954 64.9526 63.945C64.9676 63.936 64.9946 63.92 65.0156 63.907L65.0526 63.884C65.0736 63.87 65.0946 63.854 65.1146 63.838L65.1456 63.814C65.1656 63.797 65.1846 63.779 65.2036 63.761L65.2316 63.734C65.2496 63.716 65.2666 63.697 65.2836 63.677L65.3066 63.652L67.1486 61.394V86.87ZM82.5996 38.668L80.2126 41.592L73.4396 36.065L75.8266 33.141C76.3148 32.5478 77.0175 32.1714 77.7819 32.0939C78.5462 32.0164 79.3102 32.2439 79.9076 32.727L82.1856 34.586C82.7809 35.073 83.1588 35.7762 83.2364 36.5414C83.3141 37.3066 83.085 38.0714 82.5996 38.668ZM33.5116 45.807C35.8059 45.807 38.0486 45.1267 39.9562 43.852C41.8638 42.5774 43.3506 40.7658 44.2286 38.6461C45.1066 36.5265 45.3363 34.1941 44.8887 31.944C44.4411 29.6938 43.3363 27.6269 41.714 26.0046C40.0917 24.3823 38.0248 23.2775 35.7746 22.8299C33.5245 22.3823 31.1921 22.612 29.0725 23.49C26.9528 24.368 25.1412 25.8548 23.8665 27.7624C22.5919 29.67 21.9116 31.9127 21.9116 34.207C21.9153 37.2824 23.1386 40.2307 25.3132 42.4053C27.4879 44.58 30.4362 45.8033 33.5116 45.807ZM33.5116 24.999C35.3326 24.9988 37.1128 25.5386 38.627 26.5502C40.1412 27.5617 41.3214 28.9996 42.0185 30.6819C42.7155 32.3643 42.8979 34.2155 42.5428 36.0016C42.1877 37.7876 41.3109 39.4283 40.0233 40.716C38.7357 42.0037 37.0952 42.8807 35.3092 43.236C33.5231 43.5914 31.6719 43.4091 29.9895 42.7123C28.307 42.0154 26.869 40.8353 25.8573 39.3212C24.8456 37.8071 24.3056 36.027 24.3056 34.206C24.3085 31.7653 25.2793 29.4254 27.0052 27.6996C28.731 25.9738 31.0709 25.0019 33.5116 24.999ZM28.3876 33.11C28.5801 32.8577 28.8648 32.6919 29.1793 32.649C29.4938 32.6061 29.8125 32.6895 30.0656 32.881L32.7096 34.89L36.7486 29.857C36.8432 29.7235 36.9642 29.6108 37.104 29.5258C37.2438 29.4408 37.3995 29.3852 37.5615 29.3626C37.7236 29.34 37.8886 29.3507 38.0463 29.3942C38.2041 29.4377 38.3513 29.513 38.4788 29.6154C38.6064 29.7179 38.7117 29.8453 38.7882 29.99C38.8647 30.1346 38.9109 30.2933 38.9238 30.4565C38.9367 30.6196 38.9161 30.7836 38.8632 30.9385C38.8104 31.0933 38.7265 31.2358 38.6166 31.357L33.8476 37.3C33.6513 37.5424 33.3683 37.6989 33.0586 37.7362C32.7489 37.7735 32.4369 37.6888 32.1886 37.5L28.6166 34.785C28.3651 34.5925 28.1999 34.3084 28.157 33.9947C28.1142 33.6809 28.197 33.3629 28.3876 33.11ZM61.1926 71.11C61.1926 71.2676 61.1615 71.4236 61.1012 71.5692C61.0409 71.7148 60.9525 71.8471 60.8411 71.9585C60.7297 72.07 60.5974 72.1584 60.4518 72.2187C60.3062 72.279 60.1502 72.31 59.9926 72.31H23.0236C22.7053 72.31 22.4001 72.1836 22.1751 71.9585C21.95 71.7335 21.8236 71.4283 21.8236 71.11C21.8236 70.7917 21.95 70.4865 22.1751 70.2615C22.4001 70.0364 22.7053 69.91 23.0236 69.91H59.9996C60.3172 69.9119 60.621 70.0395 60.8447 70.265C61.0683 70.4905 61.1934 70.7954 61.1926 71.113V71.11ZM8.70159 71.11C8.70159 70.9524 8.73262 70.7964 8.79293 70.6508C8.85324 70.5052 8.94163 70.3729 9.05306 70.2615C9.16449 70.15 9.29677 70.0616 9.44237 70.0013C9.58796 69.941 9.744 69.91 9.90159 69.91H17.4746C17.7928 69.91 18.0981 70.0364 18.3231 70.2615C18.5482 70.4865 18.6746 70.7917 18.6746 71.11C18.6746 71.4283 18.5482 71.7335 18.3231 71.9585C18.0981 72.1836 17.7928 72.31 17.4746 72.31H9.89959C9.58185 72.31 9.27707 72.184 9.05212 71.9596C8.82716 71.7352 8.70038 71.4307 8.69959 71.113L8.70159 71.11ZM61.1926 78.372C61.1926 78.6903 61.0662 78.9955 60.8411 79.2205C60.6161 79.4456 60.3108 79.572 59.9926 79.572H9.89959C9.58133 79.572 9.2761 79.4456 9.05106 79.2205C8.82601 78.9955 8.69959 78.6903 8.69959 78.372C8.69959 78.0537 8.82601 77.7485 9.05106 77.5235C9.2761 77.2984 9.58133 77.172 9.89959 77.172H59.9996C60.3172 77.1738 60.621 77.3015 60.8447 77.527C61.0683 77.7525 61.1934 78.0574 61.1926 78.375V78.372ZM15.3726 37.936C15.4076 38.3618 15.3769 38.7905 15.2816 39.207C15.0584 40.0845 15.0931 41.0078 15.3816 41.866C15.7958 42.6714 16.4369 43.3378 17.2256 43.783C17.5748 43.9924 17.8901 44.2537 18.1606 44.558C18.3418 44.9228 18.4656 45.3134 18.5276 45.716C18.6429 46.6033 19.0152 47.4376 19.5986 48.116C19.7421 48.2592 19.9003 48.3869 20.0706 48.497L15.2866 58.797C15.1981 58.9879 15.1614 59.1986 15.1801 59.4082C15.1988 59.6177 15.2723 59.8187 15.3931 59.9909C15.5139 60.1631 15.6779 60.3005 15.8686 60.3893C16.0593 60.4781 16.27 60.5153 16.4796 60.497L22.1316 59.997L25.3936 64.64C25.5042 64.7971 25.651 64.9253 25.8216 65.0139C25.9921 65.1025 26.1814 65.1488 26.3736 65.149C26.4086 65.149 26.4446 65.149 26.4806 65.144C26.6898 65.1249 26.8903 65.0512 27.0621 64.9303C27.2339 64.8094 27.371 64.6455 27.4596 64.455L32.4506 53.7C32.7922 53.817 33.1505 53.8777 33.5116 53.88C34.1984 53.8579 34.8677 53.6584 35.4546 53.301L40.6316 64.452C40.7203 64.6426 40.8575 64.8066 41.0295 64.9275C41.2014 65.0485 41.4022 65.1221 41.6116 65.141C41.6466 65.141 41.6826 65.146 41.7176 65.146C41.9098 65.1458 42.0991 65.0995 42.2696 65.0109C42.4402 64.9223 42.5869 64.7941 42.6976 64.637L45.9606 60L51.6116 60.5C51.8212 60.5183 52.0319 60.4811 52.2225 60.3923C52.4132 60.3035 52.5772 60.166 52.6981 59.9939C52.8189 59.8217 52.8924 59.6207 52.9111 59.4112C52.9298 59.2016 52.893 58.9909 52.8046 58.8L47.6976 47.8C48.1103 47.1688 48.3831 46.4565 48.4976 45.711C48.5596 45.3084 48.6834 44.9178 48.8646 44.553C49.1347 44.2482 49.45 43.9868 49.7996 43.778C50.5883 43.3328 51.2294 42.6664 51.6436 41.861C51.9324 41.0028 51.9671 40.0795 51.7436 39.202C51.6488 38.7854 51.6181 38.3568 51.6526 37.931C51.7871 37.5275 51.9798 37.1458 52.2246 36.798C52.7887 36.0414 53.1246 35.1393 53.1926 34.198C53.1246 33.2567 52.7887 32.3546 52.2246 31.598C51.9798 31.2502 51.7871 30.8685 51.6526 30.465C51.6181 30.0392 51.6488 29.6106 51.7436 29.194C51.9671 28.3165 51.9324 27.3932 51.6436 26.535C51.2275 25.7335 50.5867 25.0708 49.7996 24.628C49.45 24.4192 49.1347 24.1578 48.8646 23.853C48.6844 23.4897 48.5613 23.1008 48.4996 22.7C48.3843 21.8127 48.012 20.9784 47.4286 20.3C46.7501 19.7166 45.9159 19.3443 45.0286 19.229C44.626 19.1672 44.2353 19.0434 43.8706 18.862C43.5658 18.5919 43.3044 18.2766 43.0956 17.927C42.6501 17.1385 41.9838 16.4975 41.1786 16.083C40.3204 15.7942 39.397 15.7595 38.5196 15.983C38.1029 16.0772 37.6744 16.1079 37.2486 16.074C36.8428 15.9396 36.459 15.7462 36.1096 15.5C35.3529 14.9361 34.4508 14.6002 33.5096 14.532C32.5683 14.6 31.6662 14.9359 30.9096 15.5C30.5618 15.7448 30.1801 15.9375 29.7766 16.072C29.3508 16.106 28.9222 16.0753 28.5056 15.981C27.6281 15.7575 26.7048 15.7922 25.8466 16.081C25.0411 16.4955 24.3744 17.1365 23.9286 17.925C23.7204 18.2747 23.4593 18.5901 23.1546 18.86C22.7903 19.0385 22.4008 19.1599 21.9996 19.22C21.1125 19.336 20.2784 19.7082 19.5996 20.291C19.0169 20.9698 18.645 21.8039 18.5296 22.691C18.4677 23.0936 18.3439 23.4843 18.1626 23.849C17.8921 24.1533 17.5768 24.4146 17.2276 24.624C16.4391 25.0694 15.7981 25.7358 15.3836 26.541C15.0951 27.3992 15.0604 28.3225 15.2836 29.2C15.3788 29.6165 15.4095 30.0452 15.3746 30.471C15.2405 30.8747 15.0478 31.2564 14.8026 31.604C14.2392 32.3609 13.9037 33.2629 13.8356 34.204C13.9037 35.1451 14.2392 36.0471 14.8026 36.804C15.047 37.1514 15.2391 37.5328 15.3726 37.936ZM26.1596 61.566L23.6926 58.055C23.5711 57.884 23.4068 57.7479 23.2163 57.6601C23.0257 57.5724 22.8155 57.5361 22.6066 57.555L18.3326 57.936L22.3526 49.275C22.6351 49.3271 22.9076 49.424 23.1596 49.562C23.4639 49.8325 23.7252 50.1478 23.9346 50.497C24.3797 51.2857 25.0462 51.9268 25.8516 52.341C26.7098 52.6295 27.6331 52.6642 28.5106 52.441C28.9271 52.3457 29.3558 52.315 29.7816 52.35C29.9756 52.4001 30.1617 52.4768 30.3346 52.578L26.1596 61.566ZM45.4846 57.551C45.2755 57.532 45.0651 57.5681 44.8743 57.6559C44.6836 57.7436 44.5192 57.8798 44.3976 58.051L41.9306 61.562L37.6406 52.321C37.9333 52.3426 38.2247 52.3797 38.5136 52.432C39.3911 52.6552 40.3143 52.6205 41.1726 52.332C41.9778 51.9175 42.6441 51.2765 43.0896 50.488C43.299 50.1388 43.5603 49.8235 43.8646 49.553C44.2294 49.3718 44.62 49.248 45.0226 49.186C45.2226 49.142 45.4226 49.096 45.6336 49.042L49.7586 57.927L45.4846 57.551ZM16.8396 32.865C17.2431 32.2851 17.541 31.6385 17.7196 30.955C17.826 30.2455 17.8012 29.5225 17.6466 28.822C17.533 28.3831 17.5126 27.9253 17.5866 27.478C17.8539 27.1175 18.1948 26.8179 18.5866 26.599C19.1893 26.2323 19.7177 25.7557 20.1446 25.194C20.508 24.5856 20.7527 23.9137 20.8656 23.214C20.9198 22.7791 21.0646 22.3605 21.2906 21.985C21.6662 21.7583 22.0853 21.6132 22.5206 21.559C23.2202 21.4459 23.8921 21.2013 24.5006 20.838C25.0606 20.4108 25.5354 19.8823 25.9006 19.28C26.1198 18.8881 26.4198 18.5473 26.7806 18.28C27.2279 18.2065 27.6856 18.2269 28.1246 18.34C28.8251 18.4946 29.5481 18.5194 30.2576 18.413C30.941 18.2345 31.5875 17.937 32.1676 17.534C32.5629 17.2325 33.0208 17.0234 33.5076 16.922C33.9947 17.0233 34.4529 17.2324 34.8486 17.534C35.4286 17.9371 36.0751 18.2347 36.7586 18.413C37.4707 18.5204 38.1965 18.4956 38.8996 18.34C39.3386 18.2269 39.7963 18.2065 40.2436 18.28C40.6041 18.5474 40.9037 18.8882 41.1226 19.28C41.4893 19.8827 41.9659 20.4112 42.5276 20.838C43.136 21.2015 43.8079 21.4461 44.5076 21.559C44.9426 21.613 45.3614 21.7582 45.7366 21.985C45.9634 22.3602 46.1086 22.7789 46.1626 23.214C46.2755 23.9137 46.5201 24.5856 46.8836 25.194C47.3091 25.7557 47.8363 26.2326 48.4376 26.6C48.8294 26.8189 49.1702 27.1185 49.4376 27.479C49.5111 27.9263 49.4906 28.384 49.3776 28.823C49.223 29.5235 49.1982 30.2465 49.3046 30.956C49.4831 31.6394 49.7806 32.2859 50.1836 32.866C50.4853 33.2616 50.6944 33.7199 50.7956 34.207C50.6942 34.6938 50.4851 35.1516 50.1836 35.547C49.7806 36.1271 49.4831 36.7736 49.3046 37.457C49.1982 38.1665 49.223 38.8895 49.3776 39.59C49.4909 40.029 49.511 40.4868 49.4366 40.934C49.1699 41.2951 48.8289 41.5948 48.4366 41.813C47.8339 42.1797 47.3054 42.6563 46.8786 43.218C46.5151 43.8264 46.2705 44.4983 46.1576 45.198C46.1034 45.6333 45.9582 46.0524 45.7316 46.428C45.3561 46.654 44.9375 46.7988 44.5026 46.853C43.8029 46.9659 43.131 47.2105 42.5226 47.574C41.9606 48.0009 41.484 48.5298 41.1176 49.133C40.8982 49.5245 40.5987 49.8652 40.2386 50.133C39.7913 50.2065 39.3336 50.1861 38.8946 50.073C38.1944 49.9185 37.4717 49.8938 36.7626 50C36.2794 50.1119 35.8171 50.2995 35.3926 50.556L35.3586 50.576C35.1836 50.676 35.0146 50.776 34.8526 50.876C34.4566 51.1769 33.9985 51.3856 33.5116 51.487C33.025 51.3856 32.5672 51.1769 32.1716 50.876C31.5916 50.4727 30.945 50.1748 30.2616 49.996C30.013 49.9465 29.76 49.9224 29.5066 49.924C29.0441 49.935 28.5832 49.9835 28.1286 50.069C27.6897 50.1826 27.2319 50.203 26.7846 50.129C26.424 49.8618 26.1243 49.5209 25.9056 49.129C25.5407 48.5263 25.0658 47.9974 24.5056 47.57C23.8972 47.2065 23.2253 46.9619 22.5256 46.849C22.0905 46.7946 21.6715 46.6498 21.2956 46.424C21.0698 46.0481 20.925 45.6291 20.8706 45.194C20.7575 44.4944 20.5129 43.8225 20.1496 43.214C19.7226 42.652 19.1938 42.1754 18.5906 41.809C18.1987 41.5902 17.8578 41.2906 17.5906 40.93C17.5166 40.4827 17.537 40.0249 17.6506 39.586C17.8052 38.8855 17.83 38.1625 17.7236 37.453C17.5448 36.7696 17.2469 36.123 16.8436 35.543C16.5427 35.1474 16.334 34.6896 16.2326 34.203C16.333 33.7174 16.5403 33.2603 16.8396 32.865Z" fill="url(#paint0_linear_108_121)"/>
</g>
<defs>
<linearGradient id="paint0_linear_108_121" x1="85.6487" y1="45" x2="0.350586" y2="45" gradientUnits="userSpaceOnUse">
<stop stop-color="#3377FE"/>
<stop offset="1" stop-color="#04E9EC"/>
</linearGradient>
<clipPath id="clip0_108_121">
<rect width="86" height="90" fill="white"/>
</clipPath>
</defs>
</svg>
