<svg width="82" height="86" viewBox="0 0 82 86" fill="none" xmlns="http://www.w3.org/2000/svg">
<g clip-path="url(#clip0_108_97)">
<path d="M6.30486 55.219H75.6959C78.485 55.219 80.7428 52.9612 80.7428 50.176C80.7428 47.3908 78.485 45.133 75.6959 45.133H74.9576V40.0588C74.9849 33.2619 72.9576 26.6178 69.149 20.9888C65.3404 15.3638 59.9224 11.0161 53.606 8.51179L53.4263 6.32429C53.1489 2.92589 50.313 0.304791 46.9029 0.293091H35.0979C31.6877 0.30481 28.8557 2.92589 28.5823 6.32429L28.4026 8.51179C22.0823 11.0118 16.6606 15.3595 12.8516 20.9888C9.043 26.6138 7.0157 33.2618 7.043 40.0588V45.133H6.30472C3.51952 45.133 1.26172 47.3908 1.26172 50.176C1.26172 52.9612 3.51966 55.219 6.30486 55.219ZM9.12516 40.059C9.10563 33.8598 10.9025 27.793 14.2932 22.606C17.6839 17.419 22.5237 13.3404 28.2072 10.876L27.1369 23.97C27.1095 24.2473 27.1955 24.5247 27.3751 24.7395C27.5548 24.9544 27.8126 25.0872 28.09 25.1106C28.3673 25.134 28.6447 25.0442 28.8556 24.8606C29.0665 24.677 29.1954 24.4192 29.215 24.138L30.6564 6.48995C30.8478 4.17355 32.7736 2.38835 35.0978 2.37665H46.9028C49.227 2.38837 51.1567 4.17745 51.3442 6.49385L52.7856 24.1389C52.8285 24.6818 53.2817 25.0998 53.8286 25.0959H53.9145C54.188 25.0724 54.4419 24.9435 54.6215 24.7326C54.8012 24.5217 54.8872 24.2482 54.8676 23.9748L53.7934 10.8768C59.477 13.3416 64.3164 17.4198 67.7074 22.6068C71.0984 27.7938 72.8949 33.8608 72.8754 40.0598V45.134H9.12544L9.12516 40.059ZM6.30486 47.2152H75.6959C77.3326 47.2152 78.6568 48.5394 78.6568 50.1761C78.6568 51.8089 77.3326 53.137 75.6959 53.137H6.30486C4.66816 53.137 3.34396 51.8089 3.34396 50.1761C3.34396 48.5394 4.66816 47.2152 6.30486 47.2152Z" fill="url(#paint0_linear_108_97)"/>
<path d="M51.6171 27.793L50.1952 27.5078C50.0233 26.9531 49.8007 26.414 49.5272 25.9023L50.3319 24.6953C50.6093 24.2812 50.5546 23.7305 50.203 23.3789L47.996 21.1719C47.6445 20.8203 47.0937 20.7657 46.6796 21.043L45.4726 21.8477V21.8438C44.9609 21.5743 44.4218 21.3516 43.8671 21.1797L43.582 19.7617C43.4843 19.2734 43.0585 18.9258 42.5625 18.9258H39.4375C38.9414 18.9258 38.5156 19.2734 38.418 19.7617L38.1328 21.1836C37.5781 21.3555 37.039 21.5782 36.5273 21.8477L35.3203 21.043C34.9062 20.7696 34.3555 20.8242 34.0039 21.1758L31.7969 23.3828C31.4453 23.7344 31.3907 24.2851 31.668 24.6992L32.4727 25.9062V25.9023C32.1992 26.4179 31.9766 26.957 31.8047 27.5117L30.3828 27.7969V27.7929C29.8984 27.8945 29.5508 28.3203 29.5508 28.8164V31.9414C29.5508 32.4374 29.8984 32.8632 30.3828 32.9608L31.8047 33.246C31.9766 33.8046 32.1992 34.3398 32.4727 34.8554L31.668 36.0624V36.0585C31.3907 36.4726 31.4453 37.0233 31.7969 37.3749L34.0039 39.5819C34.3555 39.9335 34.9062 39.9882 35.3203 39.7147L36.5273 38.91C37.039 39.1796 37.5781 39.4022 38.1328 39.5741L38.418 40.996C38.5156 41.4804 38.9414 41.8319 39.4375 41.8319H42.5625C43.0586 41.8319 43.4843 41.4804 43.582 40.996L43.8671 39.5741C44.4218 39.4022 44.9609 39.1796 45.4726 38.91L46.6796 39.7147C47.0937 39.9882 47.6445 39.9335 47.996 39.5819L50.203 37.3749C50.5546 37.0233 50.6093 36.4726 50.3319 36.0585L49.5272 34.8515V34.8554C49.8007 34.3398 50.0233 33.8046 50.1952 33.246L51.6171 32.9609C52.1015 32.8632 52.4491 32.4374 52.4491 31.9414V28.8164C52.453 28.3203 52.1015 27.8906 51.6171 27.793ZM50.3749 31.086L49.1601 31.3282C48.7578 31.4102 48.4414 31.7149 48.3515 32.1133C48.164 32.9024 47.8515 33.6563 47.4257 34.3477C47.2109 34.6954 47.2187 35.1329 47.4453 35.4727L48.1328 36.5039L47.1328 37.5039L46.1016 36.8164H46.0977C45.7578 36.5899 45.3203 36.582 44.9727 36.8008C44.2813 37.2266 43.5274 37.5391 42.7383 37.7227C42.3398 37.8164 42.0351 38.1328 41.957 38.5352L41.7148 39.75H40.2929L40.0507 38.5352C39.9687 38.1328 39.664 37.8164 39.2656 37.7227C38.4765 37.5391 37.7226 37.2266 37.0312 36.8008C36.6835 36.582 36.246 36.5899 35.9062 36.8164L34.875 37.5039L33.875 36.5039L34.5625 35.4727H34.5586C34.7851 35.1329 34.793 34.6954 34.5781 34.3477C34.1523 33.6563 33.8398 32.9024 33.6523 32.1133C33.5625 31.7149 33.2461 31.4102 32.8437 31.3282L31.6249 31.086V29.668L32.8397 29.4258C33.2421 29.3437 33.5585 29.0391 33.6483 28.6406C33.8358 27.8516 34.1483 27.0976 34.5741 26.4062C34.7889 26.0586 34.7811 25.6211 34.5546 25.2812L33.871 24.25L34.8749 23.25L35.9061 23.9375V23.9336C36.242 24.1641 36.6834 24.1719 37.0311 23.9531C37.7225 23.5274 38.4764 23.2149 39.2655 23.0274C39.6639 22.9375 39.9686 22.6211 40.0506 22.2188L40.2928 21.004H41.7108L41.953 22.2188H41.9491C42.0311 22.6211 42.3358 22.9375 42.7343 23.0274C43.5233 23.2149 44.2773 23.5274 44.9687 23.9531C45.3163 24.168 45.7538 24.1602 46.0937 23.9336L47.1249 23.2461L48.1288 24.2461L47.4413 25.2773V25.2812C47.2147 25.6211 47.2069 26.0586 47.4217 26.4062C47.8475 27.0976 48.16 27.8515 48.3475 28.6406C48.4374 29.0391 48.7538 29.3437 49.1561 29.4258L50.3749 29.668V31.086Z" fill="url(#paint1_linear_108_97)"/>
<path d="M41 24.953C38.8047 24.953 36.8281 26.2733 35.9883 28.3007C35.1484 30.328 35.6133 32.664 37.1641 34.2148C38.7149 35.7656 41.0508 36.2304 43.0782 35.3906C45.1056 34.5508 46.4259 32.5742 46.4259 30.3789C46.422 27.3828 43.9961 24.9569 41 24.953ZM41 33.7225C39.6484 33.7225 38.4297 32.9061 37.9102 31.6561C37.3945 30.41 37.6797 28.9686 38.6367 28.0155C39.5938 27.0585 41.0312 26.7733 42.2773 27.2889C43.5273 27.8085 44.3437 29.0272 44.3437 30.3787C44.3398 32.2225 42.8438 33.7185 41 33.7225Z" fill="url(#paint2_linear_108_97)"/>
<path d="M24.1993 63.609C23.793 63.2028 23.1329 63.2028 22.7266 63.609L13.5508 72.7926C13.3477 72.984 13.2344 73.2536 13.2305 73.5309C13.2305 73.8121 13.3398 74.0778 13.5352 74.277C13.7344 74.4762 14.0039 74.5856 14.2812 74.5817C14.5625 74.5817 14.8281 74.4645 15.0234 74.2653L24.1992 65.0856C24.3945 64.8902 24.5078 64.6246 24.5078 64.3473C24.5078 64.0699 24.3946 63.8043 24.1993 63.609Z" fill="url(#paint3_linear_108_97)"/>
<path d="M27.1133 64.707L17.9336 73.8828C17.5273 74.289 17.5273 74.9492 17.9336 75.3555C18.3398 75.7656 19 75.7656 19.4063 75.3555L28.5821 66.1797H28.586C28.7852 65.9844 28.8985 65.7187 28.9024 65.4414C28.9063 65.1601 28.793 64.8906 28.5977 64.6953C28.3985 64.4961 28.1329 64.3867 27.8516 64.3906C27.5743 64.3906 27.3047 64.5077 27.1133 64.707Z" fill="url(#paint4_linear_108_97)"/>
<path d="M79.3051 62.766H76.9809C76.4262 60.2113 74.1645 58.3871 71.5512 58.3832H10.4492C7.83589 58.3871 5.57419 60.2113 5.01949 62.766H2.69529C1.51559 62.766 0.558586 63.723 0.554688 64.9027V73.6722C0.554688 74.8519 1.51172 75.8128 2.69529 75.8128H5.85549H5.85158C7.24608 78.9417 10.0039 81.2542 13.3282 82.0784L26.9372 85.4768C30.363 86.3401 33.9372 84.7541 35.5934 81.633L39.5661 74.1877C39.8473 73.6564 40.3981 73.3283 40.9997 73.3283C41.5973 73.3283 42.1481 73.6564 42.4333 74.1877L46.406 81.633H46.4021C48.0623 84.7541 51.6326 86.34 55.0583 85.4768L68.6673 82.0745C71.9915 81.2503 74.7532 78.9417 76.1478 75.8128H79.308H79.3041C80.4877 75.8128 81.4408 74.8557 81.4447 73.6761V64.9027C81.4408 63.723 80.4847 62.766 79.3051 62.766ZM2.63709 73.672L2.69177 64.8517H4.87927V71.2658L4.88318 71.2619C4.88709 72.0861 4.98084 72.9103 5.16443 73.7111L2.63709 73.672ZM68.1641 80.0548L54.5551 83.4571C52.059 84.086 49.4535 82.9297 48.2426 80.6524L44.2738 73.2071C43.6293 72.0001 42.3715 71.2462 41.0004 71.2462C39.6293 71.2462 38.3715 72.0001 37.727 73.2071L33.7543 80.6524H33.7582C32.5473 82.9297 29.9418 84.086 27.4457 83.4571L13.8367 80.0548C9.79759 79.0509 6.96559 75.422 6.96949 71.2618V63.9454C6.9734 62.0235 8.52809 60.4688 10.45 60.4649H71.552C73.4739 60.4688 75.0286 62.0235 75.0325 63.9454V71.2618C75.0364 75.422 72.2044 79.0509 68.1653 80.0548H68.1641ZM79.3091 73.7267H76.8325C77.02 72.9181 77.1137 72.09 77.1176 71.2619V64.8674L79.3638 64.9025L79.3091 73.7267Z" fill="url(#paint5_linear_108_97)"/>
</g>
<defs>
<linearGradient id="paint0_linear_108_97" x1="80.7429" y1="27.756" x2="1.26172" y2="27.756" gradientUnits="userSpaceOnUse">
<stop stop-color="#3377FE"/>
<stop offset="1" stop-color="#04E9EC"/>
</linearGradient>
<linearGradient id="paint1_linear_108_97" x1="52.4492" y1="30.3789" x2="29.5508" y2="30.3789" gradientUnits="userSpaceOnUse">
<stop stop-color="#3377FE"/>
<stop offset="1" stop-color="#04E9EC"/>
</linearGradient>
<linearGradient id="paint2_linear_108_97" x1="46.4259" y1="30.3783" x2="35.5752" y2="30.3783" gradientUnits="userSpaceOnUse">
<stop stop-color="#3377FE"/>
<stop offset="1" stop-color="#04E9EC"/>
</linearGradient>
<linearGradient id="paint3_linear_108_97" x1="24.5078" y1="68.9431" x2="13.2305" y2="68.9431" gradientUnits="userSpaceOnUse">
<stop stop-color="#3377FE"/>
<stop offset="1" stop-color="#04E9EC"/>
</linearGradient>
<linearGradient id="paint4_linear_108_97" x1="28.9025" y1="70.0268" x2="17.6289" y2="70.0268" gradientUnits="userSpaceOnUse">
<stop stop-color="#3377FE"/>
<stop offset="1" stop-color="#04E9EC"/>
</linearGradient>
<linearGradient id="paint5_linear_108_97" x1="81.4448" y1="72.0467" x2="0.554688" y2="72.0467" gradientUnits="userSpaceOnUse">
<stop stop-color="#3377FE"/>
<stop offset="1" stop-color="#04E9EC"/>
</linearGradient>
<clipPath id="clip0_108_97">
<rect width="82" height="86" fill="white"/>
</clipPath>
</defs>
</svg>
