<svg width="84" height="69" viewBox="0 0 84 69" fill="none" xmlns="http://www.w3.org/2000/svg">
<g clip-path="url(#clip0_108_123)">
<mask id="mask0_108_123" style="mask-type:luminance" maskUnits="userSpaceOnUse" x="0" y="0" width="84" height="69">
<path d="M83.3 0H0V69H83.3V0Z" fill="white"/>
</mask>
<g mask="url(#mask0_108_123)">
<path d="M35.1996 15.9C36.7996 16.2 38.3996 16.6 39.8996 17.2C41.3996 17.8 42.8996 18.6 44.1996 19.6L48.5996 15.2C49.2996 14.5 50.2996 14.1 51.1996 14.1C52.0996 14.1 53.0996 14.5 53.7996 15.2L53.8996 15.3C54.5996 16 54.8996 16.9 54.8996 17.8C54.8996 18.7 54.4996 19.7 53.7996 20.4C53.7996 20.4 53.7996 20.5 53.6996 20.5L49.3996 24.7C50.2996 26 51.0996 27.3 51.6996 28.7C52.2996 30.1 52.7996 31.6 53.0996 33.1L55.0996 33L54.9996 31.9C54.8996 30.9 55.2996 29.9 55.9996 29.2C56.5996 28.5 57.4996 28 58.5996 28C59.5996 28 60.5996 28.3 61.2996 29C61.9996 29.7 62.4996 30.5 62.4996 31.6L62.8996 41.6C62.8996 42.6 62.5996 43.6 61.8996 44.3C61.1996 45 60.3996 45.5 59.2996 45.5C58.2996 45.6 57.2996 45.2 56.5996 44.5C55.8996 43.9 55.3996 43 55.3996 41.9L55.2996 40.6L53.1996 40.7C52.9996 42.4 52.4996 44 51.8996 45.6C51.2996 47.2 50.4996 48.7 49.4996 50.1L53.9996 54.5C54.6996 55.2 55.0996 56.1 55.0996 57.1C55.0996 58 54.7996 59 54.0996 59.7C53.3996 60.4 52.4996 60.8 51.4996 60.8C50.5996 60.8 49.5996 60.4 48.8996 59.8L44.4996 55.5C43.1996 56.5 41.6996 57.4 40.0996 58.1C38.5996 58.8 36.8996 59.3 35.1996 59.6V61.6H36.3996C37.3996 61.6 38.3996 62 39.0996 62.7C39.7996 63.4 40.1996 64.3 40.1996 65.3V65.4C40.1996 66.4 39.7996 67.3 39.0996 67.9C38.3996 68.6 37.4996 69 36.4996 69H36.3996H26.6996C25.6996 69 24.6996 68.6 23.9996 68C23.2996 67.3 22.8996 66.4 22.8996 65.4C22.8996 64.4 23.2996 63.4 23.8996 62.7C24.5996 62 25.4996 61.6 26.4996 61.6H27.7996V59.5C26.2996 59.2 24.7996 58.8 23.3996 58.3C21.9996 57.7 20.5996 57 19.2996 56.2L14.9996 60.7C14.2996 61.4 13.3996 61.8 12.3996 61.9C11.4996 61.9 10.4996 61.6 9.79958 60.9C9.09958 60.2 8.69958 59.3 8.69958 58.3C8.69958 57.4 8.99958 56.4 9.69958 55.7L13.8996 51.3C12.8996 50 11.9996 48.5 11.2996 46.9C10.5996 45.4 9.99958 43.7 9.69958 42.1L7.69958 42.2V43.5V43.6C7.69958 44.6 7.29958 45.5 6.69958 46.2C5.99958 46.9 5.09958 47.3 4.09958 47.4C3.09958 47.4 2.19958 47 1.49958 46.4C0.799581 45.7 0.399581 44.9 0.299581 43.8V43.7L-0.000418678 33.7C-0.100419 32.7 0.299581 31.7 0.999581 31C1.69958 30.3 2.49958 29.8 3.59958 29.8C4.59958 29.8 5.59958 30.2 6.29958 30.8C6.99958 31.5 7.49958 32.4 7.49958 33.4L7.59958 34.7L9.69958 34.6C9.89958 33.1 10.2996 31.6 10.7996 30.2C11.2996 28.7 11.9996 27.4 12.7996 26.1L7.99958 21.8C7.29958 21.1 6.89958 20.3 6.89958 19.3C6.89958 18.4 7.19958 17.4 7.89958 16.7L7.99958 16.6C8.69958 15.8 9.59958 15.4 10.4996 15.4C11.3996 15.4 12.3996 15.7 13.0996 16.4L17.5996 20.5C19.0996 19.3 20.5996 18.4 22.3996 17.5C24.0996 16.8 25.8996 16.2 27.7996 15.9V13.9H26.4996C25.4996 13.9 24.5996 13.5 23.8996 12.8C23.1996 12.1 22.7996 11.2 22.7996 10.1C22.7996 9.1 23.1996 8.2 23.8996 7.5C24.5996 6.8 25.4996 6.4 26.4996 6.4L36.4996 6.3C37.4996 6.3 38.3996 6.7 39.0996 7.4C39.7996 8.1 40.1996 9 40.1996 10V10.1C40.1996 11.1 39.7996 12 39.0996 12.6C38.3996 13.3 37.4996 13.7 36.4996 13.7H36.3996H35.1996V15.9ZM33.4996 24.1L32.7996 23.4C32.2996 22.9 32.2996 22.2 32.7996 21.7C33.2996 21.2 33.9996 21.2 34.3996 21.7L35.0996 22.4C35.2996 22.3 35.4996 22.2 35.6996 22.1V21.1C35.6996 20.4 36.1996 19.9 36.8996 19.9C37.5996 19.9 38.0996 20.4 38.0996 21.1V22.1C38.2996 22.2 38.4996 22.2 38.6996 22.3L39.3996 21.6C39.8996 21.1 40.5996 21.1 40.9996 21.6C41.4996 22.1 41.4996 22.8 40.9996 23.3L40.3996 24C40.4996 24.2 40.5996 24.5 40.6996 24.7H41.6996C42.3996 24.7 42.8996 25.2 42.8996 25.9C42.8996 26.6 42.3996 27.1 41.6996 27.1H40.6996C40.5996 27.3 40.5996 27.5 40.4996 27.7L41.1996 28.4C41.6996 28.9 41.6996 29.6 41.1996 30C40.6996 30.5 39.9996 30.5 39.5996 30L38.8996 29.3C38.6996 29.4 38.3996 29.5 38.1996 29.6V30.6C38.1996 31.3 37.6996 31.8 36.9996 31.8C36.2996 31.8 35.7996 31.3 35.7996 30.6V29.6C35.5996 29.5 35.3996 29.5 35.1996 29.4L34.4996 30C33.9996 30.5 33.2996 30.5 32.7996 30C32.2996 29.5 32.2996 28.8 32.7996 28.4L33.4996 27.7C33.3996 27.5 33.2996 27.2 33.1996 27H32.1996C31.5996 27 30.9996 26.5 31.0996 25.8C31.0996 25.1 31.5996 24.6 32.2996 24.6H33.2996C33.3996 24.4 33.4996 24.2 33.4996 24.1ZM38.0996 24.8C37.7996 24.5 37.3996 24.3 36.9996 24.3C36.5996 24.3 36.1996 24.4 35.8996 24.8C35.5996 25.1 35.3996 25.5 35.3996 25.9C35.3996 26.3 35.4996 26.7 35.8996 27C36.1996 27.3 36.5996 27.5 36.9996 27.5C37.3996 27.5 37.7996 27.4 38.0996 27C38.3996 26.7 38.5996 26.3 38.5996 25.9C38.5996 25.5 38.3996 25.1 38.0996 24.8ZM27.3996 47.6C28.1996 47.6 28.8996 47.9 29.3996 48.3C29.5996 48.2 29.7996 48.1 29.9996 47.9C30.3996 47.5 30.5996 47 30.5996 46.4C30.5996 45.8 30.3996 45.3 29.9996 44.9C29.5996 44.5 29.0996 44.3 28.4996 44.3C27.8996 44.3 27.3996 44.5 26.9996 44.9C26.5996 45.3 26.3996 45.8 26.3996 46.4C26.3996 46.9 26.4996 47.2 26.7996 47.6C26.9996 47.7 27.1996 47.6 27.3996 47.6ZM30.4996 50.5V50.7C30.4996 51.6 30.0996 52.3 29.5996 52.9C28.9996 53.4 28.2996 53.8 27.3996 53.8C26.5996 53.8 25.7996 53.4 25.1996 52.9C24.6996 52.3 24.2996 51.6 24.2996 50.7C24.2996 50.1 24.4996 49.5 24.7996 49C24.2996 48.3 23.9996 47.5 23.9996 46.5C23.9996 45.3 24.4996 44.2 25.2996 43.4C26.0996 42.6 27.1996 42.1 28.3996 42.1C29.5996 42.1 30.6996 42.6 31.4996 43.4C32.2996 44.2 32.7996 45.3 32.7996 46.5C32.7996 47.7 32.2996 48.8 31.4996 49.6C31.2996 50 30.8996 50.3 30.4996 50.5ZM26.6996 50.6V50.7C26.6996 50.9 26.7996 51.1 26.8996 51.2C26.9996 51.3 27.1996 51.4 27.3996 51.4C27.5996 51.4 27.7996 51.3 27.8996 51.2C27.9996 51.1 27.9996 51 28.0996 50.9C27.5996 50.9 27.0996 50.7 26.6996 50.6ZM46.0996 33.6C46.9996 33.6 47.6996 34 48.2996 34.5C48.8996 35 49.1996 35.8 49.1996 36.6C49.1996 37.5 48.8996 38.2 48.2996 38.8C47.6996 39.4 46.9996 39.7 46.0996 39.7C45.2996 39.7 44.4996 39.4 43.9996 38.8C43.3996 38.2 43.0996 37.5 43.0996 36.6C43.0996 35.8 43.4996 35 43.9996 34.5C44.4996 34 45.1996 33.6 46.0996 33.6ZM46.5996 36.2C46.4996 36.1 46.2996 36 46.0996 36C45.8996 36 45.6996 36.1 45.5996 36.2C45.4996 36.3 45.3996 36.5 45.3996 36.7C45.3996 36.9 45.4996 37.1 45.5996 37.2C45.6996 37.3 45.8996 37.4 46.0996 37.4C46.2996 37.4 46.4996 37.3 46.5996 37.2C46.6996 37.1 46.7996 36.9 46.7996 36.7C46.7996 36.5 46.6996 36.3 46.5996 36.2ZM18.8996 36.4C20.0996 36.4 21.1996 36.9 21.9996 37.7C22.7996 38.5 23.2996 39.6 23.2996 40.8C23.2996 42 22.7996 43.1 21.9996 43.9C21.1996 44.7 20.0996 45.2 18.8996 45.2C17.6996 45.2 16.5996 44.7 15.7996 43.9C14.9996 43.1 14.4996 42 14.4996 40.8C14.4996 39.6 14.9996 38.5 15.7996 37.7C16.4996 36.9 17.5996 36.4 18.8996 36.4ZM20.2996 39.3C19.8996 38.9 19.3996 38.7 18.7996 38.7C18.1996 38.7 17.6996 38.9 17.2996 39.3C16.8996 39.7 16.6996 40.2 16.6996 40.8C16.6996 41.4 16.8996 41.9 17.2996 42.3C17.6996 42.7 18.1996 42.9 18.7996 42.9C19.3996 42.9 19.8996 42.7 20.2996 42.3C20.6996 41.9 20.8996 41.4 20.8996 40.8C20.8996 40.2 20.6996 39.7 20.2996 39.3ZM39.4996 46.3C40.2996 46.3 41.0996 46.6 41.5996 47.2C42.1996 47.7 42.4996 48.5 42.4996 49.3C42.4996 50.2 42.0996 50.9 41.5996 51.5C41.0996 52.1 40.2996 52.4 39.4996 52.4C38.5996 52.4 37.8996 52.1 37.2996 51.5C36.6996 51 36.3996 50.2 36.3996 49.3C36.3996 48.5 36.6996 47.7 37.2996 47.2C37.8996 46.6 38.6996 46.3 39.4996 46.3ZM39.9996 48.8C39.8996 48.7 39.6996 48.6 39.4996 48.6C39.2996 48.6 39.0996 48.7 38.9996 48.8C38.8996 48.9 38.7996 49.1 38.7996 49.3C38.7996 49.5 38.8996 49.7 38.9996 49.8C39.0996 49.9 39.2996 50 39.4996 50C39.6996 50 39.8996 49.9 39.9996 49.8C40.0996 49.7 40.1996 49.5 40.1996 49.3C40.1996 49.2 40.1996 49 39.9996 48.8ZM24.6996 19.9C25.4996 19.9 26.2996 20.2 26.7996 20.8C27.3996 21.3 27.6996 22.1 27.6996 23C27.6996 23.8 27.2996 24.6 26.7996 25.1C26.4996 25.4 26.0996 25.6 25.7996 25.8C25.8996 26.1 25.8996 26.5 25.8996 26.8C25.8996 28 25.3996 29.1 24.5996 29.9C23.7996 30.7 22.6996 31.2 21.4996 31.2C20.2996 31.2 19.1996 30.7 18.3996 29.9C17.5996 29.1 17.0996 28 17.0996 26.8C17.0996 25.6 17.5996 24.5 18.3996 23.7C19.1996 22.9 20.2996 22.4 21.4996 22.4H21.5996C21.6996 21.8 21.9996 21.2 22.4996 20.8C23.0996 20.3 23.7996 19.9 24.6996 19.9ZM23.1996 25.7C22.9996 25.6 22.6996 25.4 22.4996 25.2C22.3996 25.2 22.3996 25.1 22.3996 25.1C22.0996 25 21.8996 24.9 21.4996 24.9C20.8996 24.9 20.3996 25.1 19.9996 25.5C19.5996 25.9 19.3996 26.4 19.3996 27C19.3996 27.6 19.5996 28.1 19.9996 28.5C20.3996 28.9 20.8996 29.1 21.4996 29.1C22.0996 29.1 22.5996 28.9 22.9996 28.5C23.3996 28.1 23.5996 27.6 23.5996 27C23.5996 26.4 23.3996 26 23.1996 25.7ZM25.1996 22.5C25.0996 22.4 24.8996 22.3 24.6996 22.3C24.4996 22.3 24.2996 22.4 24.1996 22.5C23.9996 22.6 23.9996 22.8 23.9996 23C23.9996 23.1 23.9996 23.1 23.9996 23.2C24.1996 23.3 24.3996 23.5 24.5996 23.7H24.6996C24.8996 23.7 25.0996 23.6 25.1996 23.5C25.2996 23.4 25.3996 23.2 25.3996 23C25.3996 22.8 25.2996 22.6 25.1996 22.5ZM34.7996 31.8C35.5996 31.8 36.3996 32.1 36.8996 32.7C37.4996 33.2 37.7996 34 37.7996 34.9C37.7996 35.2 37.7996 35.4 37.6996 35.7C38.5996 35.8 39.3996 36.3 39.9996 36.9C40.7996 37.7 41.2996 38.8 41.2996 40C41.2996 41.2 40.7996 42.3 39.9996 43.1C39.1996 43.9 38.0996 44.4 36.8996 44.4C35.6996 44.4 34.5996 43.9 33.7996 43.1C32.9996 42.3 32.4996 41.2 32.4996 40C32.4996 39.1 32.7996 38.2 33.1996 37.5C32.9996 37.4 32.6996 37.2 32.5996 37C31.9996 36.5 31.6996 35.7 31.6996 34.9C31.6996 34 31.9996 33.3 32.5996 32.7C33.1996 32.1 33.9996 31.8 34.7996 31.8ZM35.2996 34.4C35.1996 34.3 34.9996 34.2 34.7996 34.2C34.5996 34.2 34.3996 34.3 34.2996 34.4C34.1996 34.5 34.0996 34.7 34.0996 34.9C34.0996 35.1 34.1996 35.3 34.2996 35.4C34.3996 35.5 34.5996 35.6 34.7996 35.6C34.9996 35.6 35.1996 35.5 35.2996 35.4C35.3996 35.3 35.4996 35.1 35.4996 34.9C35.4996 34.7 35.4996 34.5 35.2996 34.4ZM38.3996 38.6C37.9996 38.2 37.4996 38 36.9996 38C36.3996 38 35.8996 38.2 35.4996 38.6C35.0996 39 34.8996 39.5 34.8996 40.1C34.8996 40.7 35.0996 41.2 35.4996 41.5C35.8996 41.9 36.3996 42.1 36.9996 42.1C37.5996 42.1 38.0996 41.9 38.3996 41.5C38.7996 41.1 38.9996 40.6 38.9996 40.1C38.9996 39.4 38.7996 38.9 38.3996 38.6ZM24.1996 32.1C25.0996 32.1 25.7996 32.5 26.3996 33C26.8996 33.6 27.2996 34.3 27.2996 35.2C27.2996 36 26.8996 36.8 26.3996 37.4C25.7996 37.9 25.0996 38.3 24.1996 38.3C23.3996 38.3 22.5996 37.9 21.9996 37.4C21.4996 36.8 21.0996 36.1 21.0996 35.2C21.0996 34.4 21.4996 33.6 21.9996 33C22.5996 32.5 23.3996 32.1 24.1996 32.1ZM24.6996 34.7C24.5996 34.6 24.3996 34.5 24.1996 34.5C23.9996 34.5 23.7996 34.6 23.6996 34.7C23.5996 34.8 23.4996 35 23.4996 35.2C23.4996 35.4 23.5996 35.6 23.6996 35.7C23.7996 35.8 23.9996 35.9 24.1996 35.9C24.3996 35.9 24.5996 35.8 24.6996 35.7C24.7996 35.6 24.8996 35.4 24.8996 35.2C24.8996 35 24.8996 34.8 24.6996 34.7ZM38.9996 19.4C37.3996 18.7 35.6996 18.3 33.8996 18.1C33.2996 18 32.8996 17.5 32.8996 16.9V12.8V12.7C32.8996 12 33.3996 11.5 34.0996 11.5H36.3996H36.4996C36.8996 11.5 37.1996 11.3 37.4996 11.1C37.6996 10.9 37.8996 10.5 37.8996 10.2V10.1C37.8996 9.7 37.7996 9.4 37.4996 9.1C37.2996 8.9 36.8996 8.7 36.4996 8.7L26.4996 8.8C26.0996 8.8 25.7996 9 25.4996 9.2C25.2996 9.5 25.0996 9.8 25.0996 10.2C25.0996 10.6 25.1996 10.9 25.4996 11.2C25.6996 11.4 26.0996 11.6 26.4996 11.6H28.8996C29.4996 11.6 29.9996 12.1 29.9996 12.7V12.8V16.9C29.9996 17.5 29.4996 18 28.9996 18.1C26.9996 18.4 25.0996 18.9 23.2996 19.7C21.4996 20.5 19.7996 21.6 18.2996 23C17.8996 23.4 17.1996 23.4 16.7996 23L11.4996 18.2C11.1996 18 10.8996 17.8 10.4996 17.8C10.1996 17.8 9.89958 17.9 9.59958 18.2C9.59958 18.2 9.49958 18.2 9.49958 18.3C9.29958 18.6 9.19958 18.9 9.19958 19.2C9.19958 19.5 9.29958 19.8 9.59958 20.1C9.59958 20.1 9.59958 20.2 9.69958 20.2L14.9996 25C15.3996 25.4 15.4996 26 15.1996 26.5C14.1996 27.9 13.4996 29.4 12.8996 31C12.3996 32.5 11.9996 34.2 11.7996 35.9C11.6996 36.5 11.2996 37 10.6996 37H6.59958H6.49958C5.89958 37 5.29958 36.5 5.29958 35.9L5.19958 33.5C5.19958 33.1 4.99958 32.8 4.69958 32.5C4.39958 32.3 4.09958 32.1 3.69958 32.1C3.29958 32.1 2.99958 32.3 2.69958 32.6C2.49958 32.9 2.29958 33.2 2.29958 33.6L2.69958 43.5V43.6C2.69958 44 2.89958 44.3 3.19958 44.5C3.39958 44.7 3.79958 44.9 4.09958 44.9H4.19958C4.59958 44.9 4.89958 44.7 5.09958 44.4C5.29958 44.2 5.49958 43.8 5.49958 43.5V43.4L5.39958 41C5.39958 40.4 5.89958 39.8 6.59958 39.8C7.89958 39.8 9.29958 39.7 10.6996 39.7C11.2996 39.6 11.8996 40.1 11.9996 40.7C12.2996 42.6 12.7996 44.3 13.5996 45.9C14.2996 47.6 15.3996 49.1 16.4996 50.5C16.8996 51 16.8996 51.6 16.4996 52.1L11.5996 57.3C11.2996 57.6 11.1996 57.9 11.1996 58.3C11.1996 58.6 11.2996 59 11.5996 59.2C11.7996 59.4 12.1996 59.6 12.4996 59.6C12.8996 59.6 13.1996 59.5 13.3996 59.2L18.3996 53.9C18.7996 53.4 19.4996 53.4 19.8996 53.8C21.1996 54.8 22.6996 55.6 24.2996 56.2C25.7996 56.8 27.4996 57.2 29.1996 57.4C29.7996 57.5 30.1996 58 30.1996 58.6V62.7V62.8C30.1996 63.4 29.6996 64 28.9996 64L26.5996 64.1C26.1996 64.1 25.8996 64.2 25.5996 64.5C25.3996 64.7 25.1996 65.1 25.1996 65.5C25.1996 65.9 25.3996 66.2 25.6996 66.5C25.8996 66.8 26.2996 66.9 26.6996 66.9L36.4996 66.8C36.5996 66.8 36.5996 66.8 36.5996 66.8C36.9996 66.8 37.2996 66.6 37.5996 66.3C37.7996 66.1 37.9996 65.8 37.9996 65.4V65.3C37.9996 64.9 37.7996 64.6 37.4996 64.3C37.2996 64 36.8996 63.9 36.4996 63.9C35.6996 63.9 34.8996 63.9 34.0996 63.9C33.4996 63.9 32.8996 63.4 32.9996 62.7C32.9996 61.3 32.9996 59.9 32.9996 58.6C32.9996 58 33.3996 57.5 33.9996 57.4C35.8996 57.2 37.5996 56.7 39.2996 55.9C40.9996 55 42.5996 54 43.9996 52.9C44.4996 52.5 45.0996 52.5 45.4996 53L50.5996 58C50.8996 58.2 51.1996 58.4 51.4996 58.4C51.8996 58.4 52.1996 58.3 52.3996 58C52.6996 57.7 52.7996 57.4 52.7996 57.1C52.7996 56.7 52.6996 56.4 52.3996 56.2L47.3996 51C46.9996 50.6 46.8996 50 47.2996 49.5C48.3996 48 49.2996 46.5 49.8996 44.7C50.4996 43 50.8996 41.3 51.0996 39.4C51.0996 38.8 51.5996 38.3 52.1996 38.3L56.2996 38.2H56.3996C56.9996 38.2 57.5996 38.7 57.5996 39.3L57.6996 41.7C57.6996 42.1 57.8996 42.4 58.1996 42.7C58.4996 42.9 58.7996 43.1 59.1996 43.1C59.5996 43.1 59.8996 42.9 60.1996 42.6C60.4996 42.3 60.5996 42 60.5996 41.6L60.1996 31.6C60.1996 31.2 59.9996 30.9 59.6996 30.6C59.3996 30.3 59.0996 30.2 58.6996 30.2C58.2996 30.2 57.9996 30.4 57.6996 30.7C57.4996 31 57.2996 31.3 57.2996 31.7L57.3996 34.1V34.2C57.3996 34.8 56.8996 35.4 56.2996 35.4C54.8996 35.4 53.4996 35.5 52.0996 35.5C51.4996 35.5 50.9996 35.1 50.8996 34.5C50.5996 32.8 50.1996 31.2 49.4996 29.6C48.7996 28.1 47.9996 26.6 46.8996 25.3C46.4996 24.8 46.4996 24.2 46.9996 23.8L51.9996 18.8C51.9996 18.8 51.9996 18.8 52.0996 18.8C52.3996 18.6 52.4996 18.2 52.4996 17.9C52.4996 17.6 52.3996 17.3 52.1996 17C51.8996 16.7 51.5996 16.6 51.1996 16.6C50.8996 16.6 50.4996 16.7 50.2996 17L45.1996 22C44.7996 22.5 44.0996 22.5 43.5996 22.1C42.1996 21 40.5996 20.1 38.9996 19.4ZM59.4996 26H79.0996C81.3996 26 83.2996 24.1 83.2996 21.8C83.2996 21.1 83.0996 20.4 82.7996 19.8L73.0996 2.2C72.3996 0.8 70.9996 0 69.3996 0H69.1996C67.6996 0 66.2996 0.8 65.4996 2.2L55.7996 19.8C55.4996 20.4 55.2996 21.1 55.2996 21.8C55.2996 24.1 57.1996 26 59.4996 26ZM57.5996 20.8L67.2996 3.2C67.6996 2.4 68.3996 2 69.1996 2H69.3996C70.1996 2 70.8996 2.4 71.2996 3.1L80.9996 20.8C81.1996 21.1 81.2996 21.5 81.2996 21.9C81.2996 23.1 80.2996 24.1 79.0996 24.1H59.4996C58.2996 24.1 57.2996 23.1 57.2996 21.9C57.2996 21.5 57.3996 21.1 57.5996 20.8ZM68.2996 16V10C68.2996 9.4 68.6996 9 69.2996 9C69.8996 9 70.2996 9.4 70.2996 10V16C70.2996 16.6 69.8996 17 69.2996 17C68.7996 17 68.2996 16.6 68.2996 16ZM70.2996 20C70.2996 20.6 69.8996 21 69.2996 21C68.6996 21 68.2996 20.6 68.2996 20C68.2996 19.4 68.6996 19 69.2996 19C69.8996 19 70.2996 19.4 70.2996 20Z" fill="url(#paint0_linear_108_123)"/>
</g>
</g>
<defs>
<linearGradient id="paint0_linear_108_123" x1="83.2997" y1="34.5" x2="-0.015625" y2="34.5" gradientUnits="userSpaceOnUse">
<stop stop-color="#3377FE"/>
<stop offset="1" stop-color="#04E9EC"/>
</linearGradient>
<clipPath id="clip0_108_123">
<rect width="84" height="69" fill="white"/>
</clipPath>
</defs>
</svg>
