<svg width="17" height="13" viewBox="0 0 17 13" fill="none" xmlns="http://www.w3.org/2000/svg">
<path d="M15.5 13H1.5C0.65 13 0 12.35 0 11.5V1.5C0 0.65 0.65 0 1.5 0H15.5C16.35 0 17 0.65 17 1.5V11.5C17 12.35 16.35 13 15.5 13ZM1.5 1C1.2 1 1 1.2 1 1.5V11.5C1 11.8 1.2 12 1.5 12H15.5C15.8 12 16 11.8 16 11.5V1.5C16 1.2 15.8 1 15.5 1H1.5Z" fill="black"/>
<path d="M11.0004 6C9.90039 6 9.00039 5.1 9.00039 4C9.00039 2.9 9.90039 2 11.0004 2C12.1004 2 13.0004 2.9 13.0004 4C13.0004 5.1 12.1004 6 11.0004 6ZM11.0004 3C10.4504 3 10.0004 3.45 10.0004 4C10.0004 4.55 10.4504 5 11.0004 5C11.5504 5 12.0004 4.55 12.0004 4C12.0004 3.45 11.5504 3 11.0004 3ZM13.6504 12.85L5.50039 5.2L0.85039 9.5L0.150391 8.8L5.50039 3.8L14.3504 12.15L13.6504 12.85Z" fill="black"/>
<path d="M16.1996 10.35L13.4996 8.14997L11.2496 9.99998L10.5996 9.19998L13.4996 6.84998L16.7996 9.54998L16.1996 10.35Z" fill="black"/>
</svg>
