<svg width="88" height="80" viewBox="0 0 88 80" fill="none" xmlns="http://www.w3.org/2000/svg">
<g clip-path="url(#clip0_108_145)">
<path d="M86.1883 75.9381H83.0633V46.2501C83.0633 44.1798 82.2391 42.1915 80.7742 40.7267C79.3094 39.2619 77.3211 38.4376 75.2508 38.4376H73.6883V29.2657C73.6844 27.6212 72.8211 26.0938 71.4071 25.2501L62.0321 19.6251C60.5868 18.7579 58.786 18.7384 57.3173 19.5704C55.8485 20.3985 54.9423 21.9532 54.9384 23.6407V38.4377H51.8134V29.2658C51.8095 27.6213 50.9462 26.0939 49.5322 25.2502L40.1572 19.6252C38.7119 18.758 36.9111 18.7385 35.4424 19.5705C33.9736 20.3986 33.0674 21.9533 33.0635 23.6408V38.4378H29.9385V18.1258C29.9385 15.536 27.8408 13.4383 25.251 13.4383H9.62598C7.03618 13.4383 4.93848 15.536 4.93848 18.1258V75.9378H1.81348C0.950197 75.9378 0.250977 76.637 0.250977 77.5003C0.250977 78.3636 0.950197 79.0628 1.81348 79.0628H86.1885C87.0518 79.0628 87.751 78.3636 87.751 77.5003C87.751 76.637 87.0516 75.9381 86.1883 75.9381ZM58.0633 23.6411C58.0633 23.0786 58.3641 22.563 58.8523 22.2817C59.3406 22.0043 59.9382 22.0122 60.4226 22.2973L69.7976 27.9223C70.2703 28.2036 70.5633 28.7153 70.5633 29.2661V38.438H58.0633V23.6411ZM36.1883 23.6411C36.1883 23.0786 36.4891 22.563 36.9773 22.2817C37.4656 22.0043 38.0632 22.0122 38.5476 22.2973L47.9226 27.9223C48.3953 28.2036 48.6883 28.7153 48.6883 29.2661V38.438H36.1883V23.6411ZM8.06328 25.938H26.8133V29.063H8.06328V25.938ZM9.62578 16.563H25.2508C25.6648 16.563 26.0633 16.727 26.3563 17.02C26.6493 17.313 26.8133 17.7114 26.8133 18.1255V22.813H8.06331V18.1255C8.06331 17.2622 8.7625 16.563 9.62578 16.563ZM8.06328 32.188H26.8133V38.438H25.2508C20.9344 38.438 17.4383 41.9341 17.4383 46.2505V75.9385H8.06328V32.188ZM58.0633 75.938V65C58.0633 64.1367 58.7625 63.4375 59.6258 63.4375H69.0008C69.4148 63.4375 69.8133 63.6015 70.1063 63.8945C70.3993 64.1875 70.5633 64.5859 70.5633 65V75.938H58.0633ZM73.6883 75.938V65C73.6883 62.4102 71.5906 60.3125 69.0008 60.3125H59.6258C57.036 60.3125 54.9383 62.4102 54.9383 65V75.938H20.5633V46.25C20.5633 43.6602 22.661 41.5625 25.2508 41.5625H75.2508C77.8406 41.5625 79.9383 43.6602 79.9383 46.25V75.938H73.6883ZM34.6263 47.813H31.5013C28.9115 47.813 26.8138 49.9107 26.8138 52.5005V55.6255C26.8138 58.2153 28.9115 60.313 31.5013 60.313H34.6263C37.2161 60.313 39.3138 58.2153 39.3138 55.6255V52.5005C39.3138 49.9107 37.2161 47.813 34.6263 47.813ZM36.1888 55.6255C36.1888 56.0395 36.0247 56.438 35.7317 56.731C35.4388 57.024 35.0403 57.188 34.6262 57.188H31.5012C30.638 57.188 29.9387 56.4888 29.9387 55.6255V52.5005C29.9387 51.6372 30.638 50.938 31.5012 50.938H34.6262C35.0403 50.938 35.4387 51.1021 35.7317 51.395C36.0247 51.688 36.1888 52.0865 36.1888 52.5005V55.6255ZM50.2508 47.813H47.1258C44.536 47.813 42.4383 49.9107 42.4383 52.5005V55.6255C42.4383 58.2153 44.536 60.313 47.1258 60.313H50.2508C52.8406 60.313 54.9383 58.2153 54.9383 55.6255V52.5005C54.9383 49.9107 52.8406 47.813 50.2508 47.813ZM51.8133 55.6255C51.8133 56.0395 51.6492 56.438 51.3562 56.731C51.0633 57.024 50.6648 57.188 50.2507 57.188H47.1257C46.2625 57.188 45.5632 56.4888 45.5632 55.6255V52.5005C45.5632 51.6372 46.2625 50.938 47.1257 50.938H50.2507C50.6648 50.938 51.0632 51.1021 51.3562 51.395C51.6492 51.688 51.8133 52.0865 51.8133 52.5005V55.6255ZM11.1883 8.75049V5.62549C11.1883 3.03569 13.286 0.937988 15.8758 0.937988H62.7508C63.6141 0.937988 64.3133 1.63721 64.3133 2.50049C64.3133 3.36377 63.6141 4.06299 62.7508 4.06299H15.8758C15.0125 4.06299 14.3133 4.76221 14.3133 5.62549V8.75049C14.3133 9.61377 13.6141 10.313 12.7508 10.313C11.8875 10.313 11.1883 9.61377 11.1883 8.75049ZM45.5633 7.18799C46.4266 7.18799 47.1258 7.88721 47.1258 8.75049C47.1258 9.61377 46.4266 10.313 45.5633 10.313H23.6883C22.825 10.313 22.1258 9.61377 22.1258 8.75049C22.1258 7.88721 22.825 7.18799 23.6883 7.18799H45.5633ZM58.0633 7.18799C58.9266 7.18799 59.6258 7.88721 59.6258 8.75049C59.6258 9.61377 58.9266 10.313 58.0633 10.313H51.8133C50.95 10.313 50.2508 9.61377 50.2508 8.75049C50.2508 7.88721 50.95 7.18799 51.8133 7.18799H58.0633Z" fill="url(#paint0_linear_108_145)"/>
</g>
<defs>
<linearGradient id="paint0_linear_108_145" x1="87.7511" y1="40.0004" x2="0.250977" y2="40.0004" gradientUnits="userSpaceOnUse">
<stop stop-color="#3377FE"/>
<stop offset="1" stop-color="#04E9EC"/>
</linearGradient>
<clipPath id="clip0_108_145">
<rect width="88" height="80" fill="white"/>
</clipPath>
</defs>
</svg>
