<svg width="12" height="13" viewBox="0 0 12 13" fill="none" xmlns="http://www.w3.org/2000/svg">
<path d="M11.7565 12.7589V8.08598C11.7565 5.78942 11.301 4.0351 8.83211 4.0351C7.64178 4.0351 6.84823 4.73682 6.52493 5.40666H6.49553V4.24242H4.15895V12.7589H6.5984V8.53253C6.5984 7.41615 6.78944 6.34761 8.05326 6.34761C9.30237 6.34761 9.31707 7.60753 9.31707 8.59633V12.7429H11.7565V12.7589Z" fill="white"/>
<path d="M0.191172 4.24274H2.63062V12.7592H0.191172V4.24274Z" fill="white"/>
<path d="M1.41077 0C0.631905 0 0 0.68578 0 1.53104C0 2.37631 0.631905 3.07804 1.41077 3.07804C2.18963 3.07804 2.82153 2.37631 2.82153 1.53104C2.82153 0.68578 2.18963 0 1.41077 0Z" fill="white"/>
</svg>
