<svg width="1169" height="381" viewBox="0 0 1169 381" fill="none" xmlns="http://www.w3.org/2000/svg">
<g opacity="0.5">
<path d="M161.56 -213.975C161.56 -213.975 500.123 236.739 715.907 202.794C931.691 168.848 1388.34 -295.036 1310.77 -566.088C1233.2 -837.14 1667.27 -775.447 1667.27 -775.447" stroke="white" stroke-opacity="0.09" stroke-miterlimit="10"/>
<path d="M169.268 -220.618C169.213 -219.726 487.754 237.522 705.507 207.051C923.261 176.581 1364.14 -289.414 1296.22 -556.629C1228.28 -823.844 1662.26 -766.216 1662.26 -766.216" stroke="white" stroke-opacity="0.09" stroke-miterlimit="10"/>
<path d="M177.001 -227.248C176.883 -225.463 475.404 238.316 695.14 211.333C914.876 184.35 1339.97 -283.778 1281.68 -547.15C1223.41 -810.525 1657.27 -756.959 1657.27 -756.959" stroke="white" stroke-opacity="0.09" stroke-miterlimit="10"/>
<path d="M184.733 -233.914C184.56 -231.238 463.05 239.08 684.773 215.567C906.495 192.054 1315.79 -278.187 1267.15 -537.72C1218.53 -797.253 1652.28 -747.755 1652.28 -747.755" stroke="white" stroke-opacity="0.09" stroke-miterlimit="10"/>
<path d="M192.435 -240.595C192.209 -237.035 450.671 239.819 674.369 219.784C898.068 199.747 1291.56 -272.605 1252.59 -528.299C1213.61 -783.989 1647.26 -738.562 1647.26 -738.562" stroke="white" stroke-opacity="0.09" stroke-miterlimit="10"/>
<path d="M200.16 -247.253C199.87 -242.801 438.312 240.59 663.994 224.032C889.676 207.472 1267.4 -267.001 1238.05 -518.852C1208.73 -770.705 1642.27 -729.338 1642.27 -729.338" stroke="white" stroke-opacity="0.09" stroke-miterlimit="10"/>
<path d="M207.883 -253.884C207.54 -248.541 425.956 241.378 653.614 228.295C881.271 215.213 1243.2 -261.378 1223.51 -509.381C1203.84 -757.394 1637.27 -720.094 1637.27 -720.094" stroke="white" stroke-opacity="0.09" stroke-miterlimit="10"/>
<path d="M215.592 -260.542C215.185 -254.309 413.587 242.137 643.225 232.54C872.866 222.935 1219.01 -255.768 1208.97 -499.94C1198.93 -744.11 1632.26 -710.88 1632.26 -710.88" stroke="white" stroke-opacity="0.09" stroke-miterlimit="10"/>
<path d="M223.333 -267.198C222.872 -260.071 401.251 242.908 632.865 236.778C864.48 230.648 1194.85 -250.173 1194.44 -490.495C1194.04 -730.819 1627.27 -701.662 1627.27 -701.662" stroke="white" stroke-opacity="0.09" stroke-miterlimit="10"/>
<path d="M231.085 -273.837C230.569 -265.82 388.926 243.682 622.523 241.03C856.12 238.376 1170.69 -244.553 1179.94 -481.045C1189.19 -717.537 1622.29 -692.433 1622.29 -692.433" stroke="white" stroke-opacity="0.09" stroke-miterlimit="10"/>
<path d="M238.773 -280.463C238.194 -271.563 376.539 244.48 612.109 245.302C847.679 246.124 1146.47 -238.921 1165.36 -471.564C1184.25 -704.208 1617.24 -683.178 1617.24 -683.178" stroke="white" stroke-opacity="0.09" stroke-miterlimit="10"/>
<path d="M246.511 -287.08C245.878 -277.288 364.205 245.276 601.757 249.574C839.309 253.871 1122.32 -233.29 1150.84 -462.094C1179.36 -690.899 1612.27 -673.936 1612.27 -673.936" stroke="white" stroke-opacity="0.09" stroke-miterlimit="10"/>
<path d="M254.249 -293.786C253.561 -283.103 351.871 245.99 591.405 253.755C830.939 261.519 1098.16 -227.741 1136.33 -452.714C1174.49 -677.688 1607.28 -664.773 1607.28 -664.773" stroke="white" stroke-opacity="0.09" stroke-miterlimit="10"/>
<path d="M261.944 -300.393C261.193 -288.819 339.497 246.795 581.001 258.042C822.506 269.288 1073.95 -222.094 1121.76 -443.219C1169.56 -664.343 1602.24 -655.506 1602.24 -655.506" stroke="white" stroke-opacity="0.09" stroke-miterlimit="10"/>
<path d="M269.707 -307.021C268.902 -294.555 327.193 247.577 570.678 262.299C814.163 277.021 1049.83 -216.477 1107.27 -433.763C1164.71 -651.047 1597.28 -646.273 1597.28 -646.273" stroke="white" stroke-opacity="0.09" stroke-miterlimit="10"/>
<path d="M277.426 -313.694C276.557 -300.34 314.845 248.318 560.302 266.506C805.76 284.692 1025.65 -210.899 1092.73 -424.347C1159.8 -637.793 1592.27 -637.077 1592.27 -637.077" stroke="white" stroke-opacity="0.09" stroke-miterlimit="10"/>
<path d="M285.169 -320.354C284.247 -306.116 302.526 249.066 549.961 270.735C797.397 292.396 1001.51 -205.308 1078.22 -414.917C1154.94 -624.526 1587.29 -627.873 1587.29 -627.873" stroke="white" stroke-opacity="0.09" stroke-miterlimit="10"/>
<path d="M292.882 -326.98C291.906 -311.851 290.174 249.854 539.582 274.988C788.989 300.121 977.328 -199.695 1063.68 -405.456C1150.02 -611.225 1582.28 -618.638 1582.28 -618.638" stroke="white" stroke-opacity="0.09" stroke-miterlimit="10"/>
<path d="M300.614 -333.6C299.575 -317.58 277.849 250.64 529.234 279.246C780.62 307.853 953.188 -194.065 1049.17 -395.997C1145.14 -597.93 1577.28 -609.395 1577.28 -609.395" stroke="white" stroke-opacity="0.09" stroke-miterlimit="10"/>
<path d="M308.335 -340.266C307.242 -323.357 265.513 251.375 518.874 283.463C772.236 315.552 929.028 -188.486 1034.64 -386.572C1140.25 -584.657 1572.28 -600.196 1572.28 -600.196" stroke="white" stroke-opacity="0.09" stroke-miterlimit="10"/>
<path d="M316.057 -346.913C314.908 -329.112 253.177 252.139 508.509 287.69C763.842 323.242 904.863 -182.898 1020.12 -377.144C1135.37 -571.389 1567.27 -590.991 1567.27 -590.991" stroke="white" stroke-opacity="0.09" stroke-miterlimit="10"/>
<path d="M323.774 -353.562C322.562 -334.871 240.85 252.892 498.15 291.914C755.451 330.936 880.714 -177.301 1005.59 -367.719C1130.47 -558.137 1562.27 -581.783 1562.27 -581.783" stroke="white" stroke-opacity="0.09" stroke-miterlimit="10"/>
<path d="M312.346 -338.982C311.197 -321.174 253.76 233.986 503.646 274.348C753.534 314.702 876.463 -156.25 1004.04 -339.725C1131.62 -523.201 1566.13 -573.86 1565.44 -573.392" stroke="white" stroke-opacity="0.09" stroke-miterlimit="10"/>
<path d="M300.868 -324.432C299.775 -307.507 266.644 215.026 509.111 256.722C751.578 298.418 872.179 -135.215 1002.46 -311.752C1132.73 -488.29 1569.96 -565.976 1568.59 -565.046" stroke="white" stroke-opacity="0.09" stroke-miterlimit="10"/>
<path d="M289.391 -309.886C288.35 -293.844 279.554 196.033 514.594 239.066C749.643 282.1 867.901 -114.172 1000.87 -283.767C1133.85 -453.362 1573.8 -558.113 1571.73 -556.698" stroke="white" stroke-opacity="0.09" stroke-miterlimit="10"/>
<path d="M277.892 -295.327C276.915 -280.17 292.468 177.025 520.082 221.398C747.695 265.778 863.613 -93.1139 999.294 -255.751C1134.97 -418.389 1577.64 -550.237 1574.89 -548.357" stroke="white" stroke-opacity="0.09" stroke-miterlimit="10"/>
<path d="M266.395 -280.697C265.473 -266.425 305.409 158.049 525.581 203.772C745.753 249.495 859.331 -71.964 997.717 -227.656C1136.1 -383.347 1581.49 -542.303 1578.05 -539.957" stroke="white" stroke-opacity="0.09" stroke-miterlimit="10"/>
<path d="M254.881 -266.093C254.012 -252.698 318.355 139.027 531.077 186.103C743.8 233.179 855.04 -50.8169 996.129 -199.549C1137.22 -348.28 1585.33 -534.384 1581.2 -531.562" stroke="white" stroke-opacity="0.09" stroke-miterlimit="10"/>
<path d="M243.369 -251.456C242.563 -238.947 331.328 120.004 536.604 168.43C741.879 216.854 850.76 -29.6418 994.563 -171.397C1138.37 -313.153 1589.21 -526.451 1584.38 -523.157" stroke="white" stroke-opacity="0.09" stroke-miterlimit="10"/>
<path d="M231.866 -236.762C231.114 -225.143 344.333 101.006 542.145 150.78C739.949 200.553 846.496 -8.38703 993.009 -143.169C1139.52 -277.951 1593.07 -518.467 1587.58 -514.708" stroke="white" stroke-opacity="0.09" stroke-miterlimit="10"/>
<path d="M220.327 -222.099C219.638 -211.366 357.332 81.9441 547.666 133.07C738 184.196 842.203 12.8527 991.427 -114.949C1140.65 -242.752 1596.93 -510.52 1590.73 -506.291" stroke="white" stroke-opacity="0.09" stroke-miterlimit="10"/>
<path d="M208.804 -207.41C208.17 -197.567 370.361 62.8703 553.218 115.351C736.082 167.843 837.923 34.1315 989.869 -86.6811C1141.82 -207.494 1600.81 -502.555 1593.91 -497.848" stroke="white" stroke-opacity="0.09" stroke-miterlimit="10"/>
<path d="M197.253 -192.685C196.676 -183.733 383.385 43.7816 558.762 97.6391C734.137 151.498 833.638 55.461 988.299 -58.3547C1142.96 -172.17 1604.68 -494.567 1597.09 -489.383" stroke="white" stroke-opacity="0.09" stroke-miterlimit="10"/>
<path d="M185.743 -177.977C185.226 -169.908 396.465 24.645 564.346 79.863C732.228 135.081 829.383 76.7855 986.759 -30.0243C1144.14 -136.834 1608.56 -486.595 1600.28 -480.936" stroke="white" stroke-opacity="0.09" stroke-miterlimit="10"/>
<path d="M174.245 -163.249C173.784 -156.072 409.572 5.48261 569.946 62.0594C730.322 118.637 825.121 98.1313 985.22 -1.65841C1145.32 -101.448 1612.43 -478.597 1603.46 -472.46" stroke="white" stroke-opacity="0.09" stroke-miterlimit="10"/>
<path d="M162.826 -148.588C162.419 -142.306 422.753 -13.804 575.604 44.1283C728.456 102.061 820.904 119.384 983.707 26.6386C1146.51 -66.1063 1616.29 -470.651 1606.61 -464.042" stroke="white" stroke-opacity="0.09" stroke-miterlimit="10"/>
<path d="M151.563 -134.043C151.219 -128.658 436.068 -33.2624 581.38 26.013C726.69 85.2979 816.769 140.478 982.269 54.7924C1147.77 -30.8933 1620.14 -462.783 1609.79 -455.704" stroke="white" stroke-opacity="0.09" stroke-miterlimit="10"/>
<path d="M140.457 -119.632C140.168 -115.146 449.508 -52.8963 587.247 7.7171C724.986 68.3318 812.682 161.384 980.86 82.7674C1149.04 4.15109 1623.96 -455.007 1612.91 -447.45" stroke="white" stroke-opacity="0.09" stroke-miterlimit="10"/>
<path d="M129.455 -105.344C129.23 -101.755 463.024 -72.6803 593.176 -10.7392C723.328 51.1938 808.643 182.103 979.474 110.582C1150.31 39.0608 1627.74 -447.318 1616 -439.295" stroke="white" stroke-opacity="0.09" stroke-miterlimit="10"/>
<path d="M118.561 -91.1075C118.388 -88.4102 476.636 -92.5081 599.193 -29.2547C721.75 33.9985 804.676 202.747 978.152 138.319C1151.63 73.8908 1631.55 -439.66 1619.12 -431.166" stroke="white" stroke-opacity="0.09" stroke-miterlimit="10"/>
<path d="M107.687 -76.9174C107.57 -75.1201 490.24 -112.377 605.2 -47.8162C720.16 16.7446 800.691 223.322 976.804 165.988C1152.92 108.654 1635.32 -432.035 1622.19 -423.071" stroke="white" stroke-opacity="0.09" stroke-miterlimit="10"/>
<path d="M96.8603 -62.7339C96.8056 -61.8354 503.879 -132.241 611.238 -66.3681C718.597 -0.493707 796.726 243.875 975.478 193.643C1154.23 143.411 1639.08 -424.401 1625.27 -414.956" stroke="white" stroke-opacity="0.09" stroke-miterlimit="10"/>
<path d="M86.041 -48.6023C86.041 -48.6023 517.515 -152.143 617.275 -84.966C717.044 -17.7883 792.763 264.367 974.146 221.226C1155.53 178.086 1642.84 -416.814 1628.34 -406.902" stroke="white" stroke-opacity="0.09" stroke-miterlimit="10"/>
</g>
</svg>
