<?xml version="1.0" encoding="utf-8"?>
<!-- Generator: Adobe Illustrator 27.3.1, SVG Export Plug-In . SVG Version: 6.00 Build 0)  -->
<svg version="1.1" id="Layer_1" xmlns="http://www.w3.org/2000/svg" xmlns:xlink="http://www.w3.org/1999/xlink" x="0px" y="0px"
	 viewBox="0 0 333 100.1" style="enable-background:new 0 0 333 100.1;" xml:space="preserve">
<style type="text/css">
	.st0{fill:#04E9EC;}
	.st1{fill:#3377FE;}
	.st2{fill:url(#SVGID_1_);}
	.st3{fill-rule:evenodd;clip-rule:evenodd;fill:#3377FE;}
</style>
<g>
	<path class="st0" d="M98.6,61.6L98.6,61.6L98.6,61.6C98.6,61.7,98.6,61.6,98.6,61.6z"/>
	<path class="st1" d="M98.6,61.7c-0.4,1.5-0.8,3-1.3,4.4l-24.8-3.3l0-0.1c0.2-0.3,0.4-0.7,0.6-1H98.6z"/>
	<linearGradient id="SVGID_1_" gradientUnits="userSpaceOnUse" x1="85.6044" y1="156.1894" x2="85.6044" y2="-70.1745">
		<stop  offset="0" style="stop-color:#104BC0"/>
		<stop  offset="1" style="stop-color:#3377FE"/>
	</linearGradient>
	<path class="st2" d="M98.7,61.7l-0.6,2.2c0,0.1,0,0.2-0.1,0.2L97.5,66l-0.1,0.2h0l-0.1,0l-24.8-3.3l0-0.1l0.5-1H98.7z"/>
	<path class="st1" d="M98.7,61.7l-0.6,2.2c0,0.1,0,0.2-0.1,0.2L97.5,66c0,0.1,0,0.1-0.1,0.2c-6.2,18.3-22.7,31.9-42.7,33.8
		C74.6,98,91.1,84.4,97.3,66.1c0.5-1.5,0.9-2.9,1.3-4.4H98.7z"/>
	<path class="st0" d="M75.8,50.1c0,4.2-1,8.1-2.7,11.6H50.7l-0.2-24.5h22C74.6,41,75.8,45.4,75.8,50.1z"/>
	<path class="st0" d="M73.1,61.7c1.8-3.5,2.7-7.4,2.7-11.6c0-4.7-1.2-9-3.4-12.8h4.2l6.9,7.7l5.9,6.6l4.6,5.1l4.5,5c0,0,0,0.1,0,0.1
		H73.1z"/>
	<path class="st1" d="M54.8,24.1l-2.6,0.1c-0.8-0.1-1.5-0.1-2.3-0.1H54.8z"/>
	<path class="st1" d="M53.7,100c-0.8,0.1-1.6,0.1-2.5,0.1C52.1,100.1,52.9,100.1,53.7,100z"/>
	<path class="st1" d="M63.8,72c-4,2.6-8.8,4-13.9,4c-14.4,0-26-11.6-26-26s11.6-26,26-26c0.8,0,1.5,0,2.3,0.1L50,24.3
		c-14.3,0-25.8,11.6-25.8,25.8C24.2,64.4,35.7,76,50,76C55.1,76,59.8,74.5,63.8,72z"/>
	<path class="st1" d="M97.3,66.1C91.1,84.4,74.6,98,54.7,99.9c-0.3,0-0.7,0.1-1,0.1c-0.8,0.1-1.6,0.1-2.5,0.1h-2.5
		C21.7,99.4,0,77.3,0,50.1c0-9.5,2.4-18.4,7.1-26h0C15.8,9.6,31.7,0,49.9,0C54,0,58,0.5,61.8,1.4v22.4l-7,0.3h-4.9
		c-14.4,0-26,11.6-26,26s11.6,26,26,26c5.1,0,9.9-1.5,13.9-4c0.5-0.3,1-0.6,1.5-1c0.2-0.1,0.3-0.2,0.5-0.3c0.6-0.4,1.1-0.9,1.6-1.4
		c0.3-0.3,0.6-0.6,0.9-0.9c1.7-1.7,3.2-3.6,4.3-5.7l0,0.1L97.3,66.1z"/>
	<polygon class="st1" points="61.8,23.8 61.8,24.1 54.8,24.1 	"/>
	<path class="st0" d="M38.9,49.5c0-6.8,5.5-12.2,12.2-12.2h0.4c6.8,0,12.2,5.5,12.2,12.2c0,6.8-5.5,12.2-12.2,12.2h-0.4
		C44.4,61.7,38.9,56.2,38.9,49.5z"/>
	<path class="st3" d="M131.7,6.2c0.7,0,1.3,0.6,1.3,1.3v85c0,0.7-0.6,1.3-1.3,1.3c-0.7,0-1.3-0.6-1.3-1.3v-85
		C130.4,6.8,131,6.2,131.7,6.2z"/>
	<path class="st1" d="M164.8,19.4l5.7-15.7h3.4l5.7,15.7h-3.2l-4.2-12.2L168,19.4H164.8z M167.3,15.9l0.8-2.4h8l0.8,2.4H167.3z"/>
	<path class="st1" d="M181.7,19.4V3.8h3v13.3h6.9v2.4H181.7z"/>
	<path class="st1" d="M209.3,19.4V3.8h3v15.7H209.3z M199.5,19.4V3.8h3v15.7H199.5z M202.1,12.6v-2.4h7.8v2.4H202.1z"/>
	<path class="st1" d="M214.4,19.4l5.7-15.7h3.4l5.7,15.7h-3.2l-4.2-12.2l-4.3,12.2H214.4z M216.9,15.9l0.8-2.4h8l0.8,2.4H216.9z"/>
	<path class="st1" d="M231.3,19.4V3.8h5.8c1.3,0,2.3,0.2,3.1,0.6c0.8,0.4,1.4,1,1.8,1.7c0.4,0.7,0.6,1.5,0.6,2.4
		c0,0.8-0.2,1.6-0.6,2.4c-0.4,0.7-1,1.3-1.8,1.7c-0.8,0.4-1.9,0.6-3.2,0.6h-2.8v6.1H231.3z M239.4,19.4l-3.2-6.9h3.3l3.4,6.9H239.4z
		 M234.3,11.1h2.6c0.9,0,1.6-0.2,2-0.7c0.4-0.4,0.6-1,0.6-1.8c0-0.7-0.2-1.3-0.6-1.7c-0.4-0.4-1.1-0.6-2-0.6h-2.6V11.1z"/>
	<path class="st1" d="M245.4,19.4V3.8h6.4c1.1,0,2,0.2,2.8,0.5c0.7,0.3,1.3,0.8,1.7,1.4c0.4,0.6,0.6,1.3,0.6,2.1
		c0,0.8-0.2,1.5-0.5,2c-0.3,0.5-0.8,1-1.4,1.3c-0.6,0.3-1.2,0.4-1.8,0.5l0.4-0.2c0.7,0,1.4,0.2,1.9,0.6c0.6,0.3,1,0.8,1.3,1.4
		c0.3,0.6,0.5,1.2,0.5,1.9c0,0.8-0.2,1.6-0.6,2.2c-0.4,0.6-1,1.1-1.7,1.5c-0.8,0.4-1.7,0.5-2.8,0.5H245.4z M248.5,17h3.1
		c0.8,0,1.5-0.2,1.9-0.6c0.4-0.4,0.7-0.9,0.7-1.6c0-0.7-0.2-1.2-0.7-1.6c-0.5-0.4-1.1-0.6-1.9-0.6h-3.1V17z M248.5,10.3h2.9
		c0.8,0,1.4-0.2,1.8-0.5c0.4-0.4,0.6-0.9,0.6-1.5c0-0.6-0.2-1.1-0.6-1.5c-0.4-0.4-1-0.6-1.8-0.6h-2.9V10.3z"/>
	<path class="st1" d="M259.7,19.4V3.8h3v15.7H259.7z"/>
	<path class="st1" d="M186.7,44c-0.5-1-1.3-1.7-2.3-2.2c-1-0.5-2.2-0.8-3.5-0.8c-2.3,0-4.2,0.8-5.6,2.3c-1.4,1.5-2.1,3.6-2.1,6.1
		c0,2.7,0.7,4.9,2.2,6.4c1.5,1.5,3.5,2.3,6.1,2.3c1.8,0,3.3-0.5,4.5-1.4c1.2-0.9,2.1-2.2,2.7-3.9h-9.2v-5.3h15.8v6.7
		c-0.5,1.8-1.5,3.5-2.8,5c-1.3,1.6-2.9,2.8-4.9,3.8c-2,1-4.2,1.4-6.7,1.4c-2.9,0-5.6-0.6-7.9-1.9c-2.3-1.3-4.1-3.1-5.4-5.4
		c-1.3-2.3-1.9-4.9-1.9-7.8c0-2.9,0.6-5.6,1.9-7.8c1.3-2.3,3.1-4.1,5.4-5.4c2.3-1.3,4.9-2,7.8-2c3.6,0,6.6,0.9,9,2.6
		c2.5,1.7,4.1,4.1,4.9,7.2H186.7z"/>
	<path class="st1" d="M206.5,58.8h9.5v5.6h-16.8V34.6h7.3V58.8z"/>
	<path class="st1" d="M233.5,64.7c-2.8,0-5.4-0.7-7.7-2c-2.3-1.3-4.2-3.1-5.6-5.4c-1.4-2.3-2-5-2-7.9c0-2.9,0.7-5.5,2-7.8
		c1.4-2.3,3.2-4.1,5.6-5.4c2.3-1.3,4.9-2,7.7-2c2.8,0,5.4,0.7,7.7,2c2.3,1.3,4.2,3.1,5.5,5.4c1.4,2.3,2,4.9,2,7.8
		c0,2.9-0.7,5.5-2,7.9c-1.4,2.3-3.2,4.1-5.5,5.4C238.9,64,236.3,64.7,233.5,64.7z M233.5,58.1c2.4,0,4.3-0.8,5.7-2.4
		c1.4-1.6,2.2-3.7,2.2-6.3c0-2.6-0.7-4.7-2.2-6.3c-1.4-1.6-3.3-2.4-5.7-2.4c-2.4,0-4.3,0.8-5.8,2.3c-1.4,1.6-2.1,3.7-2.1,6.3
		c0,2.6,0.7,4.7,2.1,6.3C229.2,57.3,231.1,58.1,233.5,58.1z"/>
	<path class="st1" d="M270.8,49.1c1.7,0.4,3.1,1.2,4.2,2.6c1,1.3,1.6,2.9,1.6,4.6c0,2.5-0.9,4.5-2.6,5.9c-1.7,1.4-4.1,2.2-7.3,2.2
		h-13.9V34.6h13.4c3,0,5.4,0.7,7.1,2.1c1.7,1.4,2.6,3.3,2.6,5.6c0,1.8-0.5,3.2-1.4,4.4C273.6,47.9,272.3,48.7,270.8,49.1z M260,46.7
		h4.8c1.2,0,2.1-0.3,2.7-0.8c0.7-0.5,1-1.3,1-2.3c0-1-0.3-1.8-1-2.3c-0.6-0.5-1.5-0.8-2.7-0.8H260V46.7z M265.4,58.5
		c1.2,0,2.1-0.3,2.8-0.8c0.7-0.6,1-1.4,1-2.4c0-1-0.4-1.9-1.1-2.5c-0.7-0.6-1.6-0.9-2.8-0.9H260v6.6H265.4z"/>
	<path class="st1" d="M299.3,59.1h-11.1l-1.8,5.3h-7.6l10.8-29.8h8.4l10.8,29.8h-7.7L299.3,59.1z M297.4,53.5l-3.7-10.9l-3.6,10.9
		H297.4z"/>
	<path class="st1" d="M319.3,58.8h9.5v5.6H312V34.6h7.3V58.8z"/>
	<path class="st1" d="M172.4,96.4c-1.5,0-2.7-0.3-3.8-1c-1-0.7-1.9-1.5-2.4-2.7c-0.6-1.2-0.8-2.5-0.8-4c0-1.5,0.3-2.8,0.8-4
		c0.6-1.2,1.4-2.1,2.4-2.7c1.1-0.7,2.3-1,3.8-1c1.7,0,3.1,0.4,4.2,1.3c1.1,0.8,1.8,2,2.1,3.5h-2.3c-0.2-0.9-0.7-1.6-1.3-2.1
		c-0.7-0.5-1.5-0.8-2.7-0.8c-1,0-1.9,0.2-2.6,0.7s-1.3,1.1-1.7,2c-0.4,0.9-0.6,1.9-0.6,3.1c0,1.2,0.2,2.2,0.6,3.1
		c0.4,0.9,1,1.5,1.7,2c0.7,0.5,1.6,0.7,2.6,0.7c1.1,0,2-0.2,2.7-0.7c0.7-0.5,1.1-1.2,1.3-2.1h2.3c-0.3,1.5-1,2.6-2.1,3.5
		C175.5,96,174.1,96.4,172.4,96.4z"/>
	<path class="st1" d="M190,96.4c-1.4,0-2.7-0.3-3.8-1c-1.1-0.7-1.9-1.5-2.5-2.7c-0.6-1.2-0.9-2.5-0.9-4c0-1.5,0.3-2.8,0.9-4
		c0.6-1.2,1.5-2.1,2.5-2.7c1.1-0.7,2.3-1,3.8-1c1.5,0,2.7,0.3,3.8,1c1.1,0.7,1.9,1.6,2.5,2.7c0.6,1.1,0.9,2.5,0.9,4
		c0,1.5-0.3,2.9-0.9,4c-0.6,1.1-1.4,2-2.5,2.7C192.7,96.1,191.4,96.4,190,96.4z M190,94.5c1,0,1.9-0.2,2.7-0.7
		c0.8-0.5,1.4-1.1,1.8-2c0.4-0.9,0.6-1.9,0.6-3.1c0-1.2-0.2-2.2-0.6-3.1c-0.4-0.9-1-1.5-1.8-2c-0.8-0.5-1.7-0.7-2.7-0.7
		c-1,0-1.9,0.2-2.7,0.7c-0.8,0.5-1.4,1.1-1.8,2c-0.4,0.9-0.6,1.9-0.6,3.1c0,1.2,0.2,2.2,0.6,3.1c0.4,0.9,1,1.5,1.8,2
		C188.1,94.2,189,94.5,190,94.5z"/>
	<path class="st1" d="M201.9,96.1V81.3h2.1l7.6,11.4V81.3h2.1v14.8h-2.1L204,84.7v11.4H201.9z"/>
	<path class="st1" d="M222.4,96.1V83H218v-1.7h10.9V83h-4.4v13.1H222.4z"/>
	<path class="st1" d="M233.2,96.1V81.3h5c1.2,0,2.1,0.2,2.9,0.6s1.3,0.9,1.7,1.6c0.4,0.7,0.6,1.4,0.6,2.2c0,0.8-0.2,1.5-0.6,2.2
		c-0.4,0.7-0.9,1.2-1.7,1.6c-0.8,0.4-1.7,0.6-2.9,0.6h-2.8v6H233.2z M241,96.1l-3.2-6.6h2.3l3.3,6.6H241z M235.3,88.5h2.8
		c1,0,1.8-0.3,2.3-0.8c0.5-0.5,0.7-1.2,0.7-2c0-0.8-0.2-1.5-0.7-2c-0.5-0.5-1.3-0.7-2.3-0.7h-2.8V88.5z"/>
	<path class="st1" d="M247.2,96.1l5.5-14.8h2.3l5.5,14.8h-2.3l-4.3-12.3l-4.4,12.3H247.2z M249.7,92.4l0.6-1.7h7l0.6,1.7H249.7z"/>
	<path class="st1" d="M270.3,96.4c-1.5,0-2.7-0.3-3.8-1c-1-0.7-1.9-1.5-2.4-2.7c-0.6-1.2-0.8-2.5-0.8-4c0-1.5,0.3-2.8,0.8-4
		c0.6-1.2,1.4-2.1,2.4-2.7c1.1-0.7,2.3-1,3.8-1c1.7,0,3.1,0.4,4.2,1.3c1.1,0.8,1.8,2,2.1,3.5h-2.3c-0.2-0.9-0.7-1.6-1.3-2.1
		c-0.7-0.5-1.5-0.8-2.7-0.8c-1,0-1.9,0.2-2.6,0.7c-0.7,0.5-1.3,1.1-1.7,2c-0.4,0.9-0.6,1.9-0.6,3.1c0,1.2,0.2,2.2,0.6,3.1
		c0.4,0.9,1,1.5,1.7,2c0.7,0.5,1.6,0.7,2.6,0.7c1.1,0,2-0.2,2.7-0.7c0.7-0.5,1.1-1.2,1.3-2.1h2.3c-0.3,1.5-1,2.6-2.1,3.5
		C273.5,96,272.1,96.4,270.3,96.4z"/>
	<path class="st1" d="M284.5,96.1V83h-4.4v-1.7H291V83h-4.4v13.1H284.5z"/>
	<path class="st1" d="M295.3,96.1V81.3h2.1v14.8H295.3z"/>
	<path class="st1" d="M302.6,96.1V81.3h2.1l7.6,11.4V81.3h2.1v14.8h-2.1l-7.6-11.4v11.4H302.6z"/>
	<path class="st1" d="M326.1,96.4c-1.4,0-2.6-0.3-3.7-1c-1-0.6-1.9-1.5-2.4-2.7c-0.6-1.1-0.9-2.5-0.9-4c0-1.5,0.3-2.8,0.9-4
		c0.6-1.2,1.4-2.1,2.5-2.7c1.1-0.7,2.4-1,3.9-1c1.7,0,3.1,0.4,4.2,1.2c1.1,0.8,1.9,1.9,2.2,3.4h-2.4c-0.2-0.8-0.7-1.5-1.3-1.9
		c-0.7-0.5-1.6-0.7-2.7-0.7c-1,0-2,0.2-2.7,0.7c-0.8,0.5-1.4,1.1-1.8,2c-0.4,0.9-0.6,1.9-0.6,3.1c0,1.2,0.2,2.2,0.6,3.1
		c0.4,0.9,1,1.5,1.7,2c0.7,0.5,1.6,0.7,2.6,0.7c1.5,0,2.6-0.4,3.4-1.3c0.8-0.9,1.2-2,1.3-3.5h-4.1v-1.6h6.2v8h-1.9l-0.2-2.3
		c-0.3,0.6-0.7,1-1.2,1.4c-0.4,0.4-1,0.7-1.5,0.8C327.6,96.3,326.9,96.4,326.1,96.4z"/>
</g>
</svg>
