<svg width="16" height="13" viewBox="0 0 16 13" fill="none" xmlns="http://www.w3.org/2000/svg">
<path d="M2.50042 0C1.83727 0 1.20127 0.263436 0.732355 0.732355C0.263436 1.20127 0 1.83726 0 2.50042V10.1684C0 10.8315 0.263436 11.4675 0.732355 11.9364C1.20127 12.4053 1.83727 12.6688 2.50042 12.6688H13.4996C14.1627 12.6688 14.7987 12.4053 15.2676 11.9364C15.7366 11.4675 16 10.8315 16 10.1684V2.50042C16 1.83726 15.7366 1.20127 15.2676 0.732355C14.7987 0.263436 14.1627 0 13.4996 0H2.50042ZM1.00017 2.50042C1.00017 2.10253 1.15823 1.72093 1.43958 1.43958C1.72093 1.15823 2.10253 1.00017 2.50042 1.00017H13.4996C13.8975 1.00017 14.2791 1.15823 14.5604 1.43958C14.8418 1.72093 14.9998 2.10253 14.9998 2.50042V3.01984L7.99867 6.60577L1.00017 3.02117V2.50042ZM1.00017 4.14536L7.77063 7.6126C7.8412 7.64876 7.91937 7.66762 7.99867 7.66762C8.07797 7.66762 8.15613 7.64876 8.2267 7.6126L14.9998 4.14402V10.169C14.9998 10.5669 14.8418 10.9485 14.5604 11.2299C14.2791 11.5112 13.8975 11.6693 13.4996 11.6693H2.50108C2.10319 11.6693 1.7216 11.5112 1.44025 11.2299C1.15889 10.9485 1.00083 10.5669 1.00083 10.169L1.00017 4.14536Z" fill="white"/>
</svg>
