<svg width="13" height="19" viewBox="0 0 13 19" fill="none" xmlns="http://www.w3.org/2000/svg">
<path d="M6.5 4C7.16304 4 7.79893 4.26339 8.26777 4.73223C8.73661 5.20107 9 5.83696 9 6.5C9 6.8283 8.93534 7.15339 8.8097 7.45671C8.68406 7.76002 8.49991 8.03562 8.26777 8.26777C8.03562 8.49991 7.76002 8.68406 7.45671 8.8097C7.15339 8.93534 6.8283 9 6.5 9C5.83696 9 5.20107 8.73661 4.73223 8.26777C4.26339 7.79893 4 7.16304 4 6.5C4 5.83696 4.26339 5.20107 4.73223 4.73223C5.20107 4.26339 5.83696 4 6.5 4ZM6.5 5C6.10218 5 5.72064 5.15804 5.43934 5.43934C5.15804 5.72064 5 6.10218 5 6.5C5 6.89782 5.15804 7.27936 5.43934 7.56066C5.72064 7.84196 6.10218 8 6.5 8C6.89782 8 7.27936 7.84196 7.56066 7.56066C7.84196 7.27936 8 6.89782 8 6.5C8 6.10218 7.84196 5.72064 7.56066 5.43934C7.27936 5.15804 6.89782 5 6.5 5ZM1.8 9.36L6.5 17.09L11.2 9.36C11.71 8.5 12 7.55 12 6.5C12 5.04131 11.4205 3.64236 10.3891 2.61091C9.35764 1.57946 7.95869 1 6.5 1C5.04131 1 3.64236 1.57946 2.61091 2.61091C1.57946 3.64236 1 5.04131 1 6.5C1 7.55 1.29 8.5 1.8 9.36ZM12.05 9.88L6.5 19L0.95 9.88C0.35 8.89 0 7.74 0 6.5C0 4.77609 0.684819 3.12279 1.90381 1.90381C3.12279 0.684819 4.77609 0 6.5 0C8.22391 0 9.87721 0.684819 11.0962 1.90381C12.3152 3.12279 13 4.77609 13 6.5C13 7.74 12.65 8.89 12.05 9.88Z" fill="white"/>
</svg>
