<svg xmlns="http://www.w3.org/2000/svg" viewBox="0 0 64 80" x="0px" y="0px"><path d="m60.65087891,33.24072266c-.375-.32128906-.92675781-.32128906-1.30175781,0-3.67871094,3.15332031-9.01953125,3.15332031-12.69824219,0-.375-.32128906-.92675781-.32128906-1.30175781,0-3.67871094,3.15332031-9.01953125,3.15332031-12.69824219,0-.375-.32128906-.92675781-.32128906-1.30175781,0-3.67871094,3.15332031-9.01953125,3.15332031-12.69824219,0-.375-.32128906-.92675781-.32128906-1.30175781,0-3.67871094,3.15332031-9.01953125,3.15332031-12.69824219,0-.375-.32128906-.92675781-.32128906-1.30175781,0l-3,2.57128906c-.41943359.359375-.46777344.99072266-.10839844,1.41015625.35888672.41845703.99121094.46777344,1.41015625.10839844l2.37255859-2.03369141c2.17773438,1.61279297,4.75567627,2.37384033,7.31542969,2.29937744-.21514893.77862549-.33886719,1.58691406-.33886719,2.40374756,0,4.24853516,2.97167969,7.88671875,7.03857422,8.78808594.39697266,4.04296875,3.81591797,7.21191406,7.96142578,7.21191406,2.30615234,0,4.49804688-1.01318359,6-2.71289062,1.50146484,1.69970703,3.69335938,2.71289062,6,2.71289062,4.12841797,0,7.53613281-3.14306641,7.95654297-7.2109375,4.06982422-.89892578,7.04345703-4.53857422,7.04345703-8.7890625,0-.81695557-.1237793-1.62524414-.33898926-2.4039917.11303711.0032959.22589111.0133667.33898926.0133667,2.44726562,0,4.89501953-.77099609,6.9765625-2.3125l2.37255859,2.03369141c.41943359.36035156,1.05126953.31103516,1.41015625-.10839844.359375-.41943359.31103516-1.05078125-.10839844-1.41015625l-3-2.57128906Zm-9.65087891,6.75927734c0,3.52783203-2.63232422,6.51464844-6.12304688,6.94775391-.50097656.06201172-.87695312.54736328-.87695312,1.05224609,0,3.30859375-2.69140625,6-6,6-2.12890625,0-4.05126953-1.08886719-5.14160156-2.91308594-.18066406-.30175781-.50634766-.48681641-.85839844-.48681641-.3515625,0-.67773438.18505859-.85839844.48681641-1.09082031,1.82421875-3.01318359,2.91308594-5.14160156,2.91308594-3.30859375,0-6-2.69140625-6-6.06005859,0-.50488281-.37597656-.93017578-.87695312-.9921875-3.49072266-.43310547-6.12304688-3.41992188-6.12304688-6.94775391,0-.92736816.19329834-1.84039307.54217529-2.67779541,1.57458496-.35205078,3.09552002-1.02868652,4.45782471-2.04290771,4.17382812,3.10742188,9.82617188,3.10742188,14,0,4.17382812,3.10742188,9.82617188,3.10742188,14,0,1.36236572,1.01428223,2.88323975,1.69104004,4.45782471,2.04302979.34887695.83740234.54217529,1.75036621.54217529,2.67767334Zm-10.81738281-14h19.63476562c2.30615234,0,4.18261719-1.87646484,4.18261719-4.18261719,0-.70263672-.17919922-1.39941406-.51806641-2.015625L53.78320312,2.16699219c-.73486328-1.33642578-2.13916016-2.16699219-3.66503906-2.16699219h-.23632812c-1.52587891,0-2.93017578.83056641-3.66455078,2.16699219l-9.69970703,17.63476562c-.33837891.61621094-.51757812,1.31298828-.51757812,2.015625,0,2.30615234,1.87646484,4.18261719,4.18261719,4.18261719Zm-1.91259766-5.234375L47.96972656,3.13085938c.38330078-.69775391,1.11572266-1.13085938,1.91210938-1.13085938h.23632812c.79638672,0,1.52880859.43310547,1.91259766,1.13085938l9.69873047,17.63476562c.17724609.32128906.27050781.68505859.27050781,1.05175781,0,1.20361328-.97900391,2.18261719-2.18261719,2.18261719h-19.63476562c-1.20361328,0-2.18261719-.97900391-2.18261719-2.18261719,0-.36669922.09326172-.73046875.27001953-1.05175781Zm10.72998047-4.765625v-6c0-.55224609.44775391-1,1-1s1,.44775391,1,1v6c0,.55224609-.44775391,1-1,1s-1-.44775391-1-1Zm2.02001953,4c0,.55224609-.44775391,1-1,1s-1.00488281-.44775391-1.00488281-1,.44238281-1,.99462891-1h.01025391c.55224609,0,1,.44775391,1,1ZM10,52c-3.36425781,0-6,1.75683594-6,4s2.63574219,4,6,4,6-1.75683594,6-4-2.63574219-4-6-4Zm0,6c-2.28955078,0-4-1.05566406-4-2s1.71044922-2,4-2,4,1.05566406,4,2-1.71044922,2-4,2Zm44-2c-.49658203,0-.98974609.04101562-1.47509766.12304688-.6796875-1.28564453-2.01953125-2.12304688-3.52490234-2.12304688-2.20556641,0-4,1.79443359-4,4,0,2.13623047,1.68310547,3.88671875,3.79345703,3.99462891,1.03857422,1.234375,2.99951172,2.00537109,5.20654297,2.00537109,3.36425781,0,6-1.75683594,6-4s-2.63574219-4-6-4Zm0,6c-2.03808594,0-3.41992188-.79150391-3.84130859-1.52636719-.17919922-.31298828-.51171875-.50292969-.8671875-.50292969-.03173828,0-.06347656.00146484-.09570312.00439453l-.19580078.02490234c-1.10302734,0-2-.89697266-2-2s.89697266-2,2-2c.91796875,0,1.71289062.62646484,1.93310547,1.52294922.06445312.26269531.23291016.48779297.46630859.62451172.23388672.13671875.51318359.17236328.77294922.10009766.59082031-.1640625,1.20556641-.24755859,1.82763672-.24755859,2.28955078,0,4,1.05566406,4,2s-1.71044922,2-4,2ZM15,30c2.75683594,0,5-2.24316406,5-5,0-3.40185547-3.94970703-6.46240234-4.39990234-6.79980469-.35546875-.26660156-.84472656-.26660156-1.20019531,0-.45019531.33740234-4.39990234,3.39794922-4.39990234,6.79980469,0,2.75683594,2.24316406,5,5,5Zm0-9.70751953c1.18115234,1.03759766,3,2.99951172,3,4.70751953,0,1.65429688-1.34570312,3-3,3s-3-1.34570312-3-3c0-1.70800781,1.81884766-3.66992188,3-4.70751953Zm12-1.29248047c2.75683594,0,5-2.24316406,5-5,0-3.40185547-3.94970703-6.46240234-4.39990234-6.79980469-.35546875-.26660156-.84472656-.26660156-1.20019531,0-.45019531.33740234-4.39990234,3.39794922-4.39990234,6.79980469,0,2.75683594,2.24316406,5,5,5Zm0-9.70751953c1.18115234,1.03759766,3,2.99951172,3,4.70751953,0,1.65429688-1.34570312,3-3,3s-3-1.34570312-3-3c0-1.70800781,1.81884766-3.66992188,3-4.70751953Z" style="" stroke-width="0px"/><text x="0" y="79" fill="#000000" font-size="5px" font-weight="bold" font-family="'Helvetica Neue', Helvetica, Arial-Unicode, Arial, Sans-serif">Created by Kmg Design</text><text x="0" y="84" fill="#000000" font-size="5px" font-weight="bold" font-family="'Helvetica Neue', Helvetica, Arial-Unicode, Arial, Sans-serif">from the Noun Project</text></svg>