<svg width="80" height="64" viewBox="0 0 80 64" fill="none" xmlns="http://www.w3.org/2000/svg">
<g clip-path="url(#clip0_108_178)">
<path d="M76.5 27H74.3C72.4 27 70.9 28.5 70.8 30.3H55.8C52.6 30.3 50.1 32.9 50.1 36V49.4C50.1 49.7 49.9 49.9 49.6 49.9H34.7C34.4 49.9 34.2 49.7 34.2 49.4V30.4C34.2 27.3 31.6 24.7 28.5 24.7H9.3C9.2 22.9 7.7 21.4 5.8 21.4H3.5C1.5 21.4 0 23 0 24.9V38.1C0 40.1 1.6 41.6 3.5 41.6H5.7C7.6 41.6 9.1 40.1 9.2 38.3H20.5V57.8C20.5 61 23.1 63.5 26.2 63.5H57.8C60.9 63.5 63.5 61 63.5 57.8V43.9H70.6C70.7 45.7 72.2 47.2 74.1 47.2H76.3C78.2 47.2 79.8 45.6 79.8 43.7V30.5C80 28.6 78.4 27 76.5 27ZM7 38.1C7 38.8 6.5 39.3 5.8 39.3H3.5C2.8 39.3 2.3 38.8 2.3 38.1V24.9C2.3 24.2 2.8 23.7 3.5 23.7H5.7C6.4 23.7 6.9 24.2 6.9 24.9V38.1H7ZM70.7 41.6H63.6C62.3 41.6 61.3 42.6 61.3 43.9V57.7C61.3 59.6 59.8 61.1 57.9 61.1H26.3C24.4 61.1 22.9 59.6 22.9 57.7V38.3C22.9 37 21.8 36 20.6 36H9.3V27H28.5C30.4 27 31.9 28.5 31.9 30.4V49.4C31.9 51 33.2 52.2 34.7 52.2H49.5C51.1 52.2 52.3 50.9 52.3 49.4V36C52.3 34.1 53.8 32.6 55.7 32.6H70.7V41.6ZM77.7 43.7C77.7 44.4 77.2 44.9 76.5 44.9H74.3C73.6 44.9 73.1 44.4 73.1 43.7V30.5C73.1 29.8 73.6 29.3 74.3 29.3H76.5C77.2 29.3 77.7 29.8 77.7 30.5V43.7Z" fill="url(#paint0_linear_108_178)"/>
<path d="M57.3002 0H55.1002C53.7002 0 52.4002 0.9 51.9002 2.1H28.2002C27.6002 0.9 26.4002 0 24.9002 0H22.7002C20.7002 0 19.2002 1.6 19.2002 3.5V16.7C19.2002 18.7 20.8002 20.2 22.7002 20.2H24.9002C26.3002 20.2 27.6002 19.3 28.1002 18.1H51.8002C52.3002 19.3 53.6002 20.2 55.0002 20.2H57.2002C59.2002 20.2 60.7002 18.6 60.7002 16.7V3.5C60.8002 1.6 59.2002 0 57.3002 0ZM26.1002 16.7C26.1002 17.4 25.6002 17.9 24.9002 17.9H22.7002C22.0002 17.9 21.5002 17.4 21.5002 16.7V3.5C21.5002 2.8 22.0002 2.3 22.7002 2.3H24.9002C25.6002 2.3 26.1002 2.8 26.1002 3.5V16.7ZM51.5002 15.8H28.5002V4.4H51.6002V15.8H51.5002ZM58.5002 16.7C58.5002 17.4 58.0002 17.9 57.3002 17.9H55.1002C54.4002 17.9 53.9002 17.4 53.9002 16.7V3.5C53.9002 2.8 54.4002 2.3 55.1002 2.3H57.3002C58.0002 2.3 58.5002 2.8 58.5002 3.5V16.7Z" fill="url(#paint1_linear_108_178)"/>
<path d="M43.7996 54.8V58.5H40.0996V54.8H43.7996ZM43.9996 52.8H39.9996C38.9996 52.8 38.0996 53.6 38.0996 54.7V58.7C38.0996 59.7 38.8996 60.6 39.9996 60.6H43.9996C44.9996 60.6 45.8996 59.8 45.8996 58.7V54.7C45.7996 53.6 44.9996 52.8 43.9996 52.8Z" fill="url(#paint2_linear_108_178)"/>
</g>
<defs>
<linearGradient id="paint0_linear_108_178" x1="79.817" y1="42.45" x2="0" y2="42.45" gradientUnits="userSpaceOnUse">
<stop stop-color="#3377FE"/>
<stop offset="1" stop-color="#04E9EC"/>
</linearGradient>
<linearGradient id="paint1_linear_108_178" x1="60.7047" y1="10.1" x2="19.2002" y2="10.1" gradientUnits="userSpaceOnUse">
<stop stop-color="#3377FE"/>
<stop offset="1" stop-color="#04E9EC"/>
</linearGradient>
<linearGradient id="paint2_linear_108_178" x1="45.8996" y1="56.7" x2="38.0996" y2="56.7" gradientUnits="userSpaceOnUse">
<stop stop-color="#3377FE"/>
<stop offset="1" stop-color="#04E9EC"/>
</linearGradient>
<clipPath id="clip0_108_178">
<rect width="80" height="64" fill="white"/>
</clipPath>
</defs>
</svg>
