<svg width="24" height="26" viewBox="0 0 24 26" fill="none" xmlns="http://www.w3.org/2000/svg">
<mask id="path-1-inside-1_95_74" fill="white">
<path d="M3.45114 25.1501C2.83042 25.1488 2.22126 24.9821 1.68637 24.6671C1.17324 24.3736 0.74692 23.9496 0.450731 23.438C0.154541 22.9264 -0.000966682 22.3456 4.52138e-06 21.7544V3.39594C-0.000966682 2.8048 0.154541 2.22395 0.450731 1.71237C0.74692 1.20079 1.17324 0.776727 1.68637 0.48325C2.21307 0.17148 2.81296 0.00477821 3.42499 0.000101199C4.03703 -0.00457582 4.63939 0.152939 5.1708 0.456623L21.4428 9.63698C21.9676 9.92769 22.405 10.3536 22.7095 10.8705C23.0141 11.3874 23.1747 11.9764 23.1747 12.5763C23.1747 13.1762 23.0141 13.7652 22.7095 14.2821C22.405 14.799 21.9676 15.2249 21.4428 15.5156L5.1708 24.696C4.64626 24.9929 4.05391 25.1494 3.45114 25.1501ZM3.45114 1.48176C3.09286 1.48218 2.7412 1.57846 2.43267 1.7606C2.14353 1.92475 1.90301 2.16253 1.73555 2.44977C1.5681 2.737 1.47968 3.06345 1.47928 3.39594V21.7566C1.47968 22.0891 1.5681 22.4156 1.73555 22.7028C1.90301 22.9901 2.14353 23.2278 2.43267 23.392C2.73681 23.5719 3.08313 23.6681 3.43648 23.6708C3.78982 23.6735 4.13759 23.5827 4.44448 23.4075L20.7165 14.2272C21.0131 14.0655 21.2607 13.8268 21.4333 13.5363C21.6058 13.2458 21.6968 12.9142 21.6968 12.5763C21.6968 12.2384 21.6058 11.9068 21.4333 11.6163C21.2607 11.3258 21.0131 11.0871 20.7165 10.9254L4.44448 1.74507C4.14154 1.57329 3.7994 1.48259 3.45114 1.48176Z"/>
</mask>
<path d="M3.45114 25.1501C2.83042 25.1488 2.22126 24.9821 1.68637 24.6671C1.17324 24.3736 0.74692 23.9496 0.450731 23.438C0.154541 22.9264 -0.000966682 22.3456 4.52138e-06 21.7544V3.39594C-0.000966682 2.8048 0.154541 2.22395 0.450731 1.71237C0.74692 1.20079 1.17324 0.776727 1.68637 0.48325C2.21307 0.17148 2.81296 0.00477821 3.42499 0.000101199C4.03703 -0.00457582 4.63939 0.152939 5.1708 0.456623L21.4428 9.63698C21.9676 9.92769 22.405 10.3536 22.7095 10.8705C23.0141 11.3874 23.1747 11.9764 23.1747 12.5763C23.1747 13.1762 23.0141 13.7652 22.7095 14.2821C22.405 14.799 21.9676 15.2249 21.4428 15.5156L5.1708 24.696C4.64626 24.9929 4.05391 25.1494 3.45114 25.1501ZM3.45114 1.48176C3.09286 1.48218 2.7412 1.57846 2.43267 1.7606C2.14353 1.92475 1.90301 2.16253 1.73555 2.44977C1.5681 2.737 1.47968 3.06345 1.47928 3.39594V21.7566C1.47968 22.0891 1.5681 22.4156 1.73555 22.7028C1.90301 22.9901 2.14353 23.2278 2.43267 23.392C2.73681 23.5719 3.08313 23.6681 3.43648 23.6708C3.78982 23.6735 4.13759 23.5827 4.44448 23.4075L20.7165 14.2272C21.0131 14.0655 21.2607 13.8268 21.4333 13.5363C21.6058 13.2458 21.6968 12.9142 21.6968 12.5763C21.6968 12.2384 21.6058 11.9068 21.4333 11.6163C21.2607 11.3258 21.0131 11.0871 20.7165 10.9254L4.44448 1.74507C4.14154 1.57329 3.7994 1.48259 3.45114 1.48176Z" fill="white"/>
<path d="M3.45114 25.1501L3.42865 35.8167L3.44645 35.8168L3.46426 35.8168L3.45114 25.1501ZM1.68637 24.6671L7.09867 15.4755L7.04055 15.4413L6.982 15.4078L1.68637 24.6671ZM4.52138e-06 21.7544L10.6667 21.772L10.6667 21.7632V21.7544H4.52138e-06ZM4.52138e-06 3.39594H10.6667V3.38717L10.6667 3.37841L4.52138e-06 3.39594ZM1.68637 0.48325L6.982 9.74252L7.05118 9.70296L7.11976 9.66236L1.68637 0.48325ZM5.1708 0.456623L-0.121677 9.7177L-0.0961387 9.73229L-0.0705203 9.74675L5.1708 0.456623ZM21.4428 9.63698L16.2015 18.9271L16.2377 18.9475L16.274 18.9677L21.4428 9.63698ZM21.4428 15.5156L16.274 6.18491L16.2377 6.20505L16.2015 6.22548L21.4428 15.5156ZM5.1708 24.696L-0.0705201 15.4058L-0.0774307 15.4097L-0.0843354 15.4136L5.1708 24.696ZM3.45114 1.48176L3.47675 -9.18488L3.45763 -9.18492L3.43852 -9.1849L3.45114 1.48176ZM2.43267 1.7606L7.69896 11.0366L7.77748 10.992L7.85524 10.9461L2.43267 1.7606ZM1.47928 3.39594L-9.18739 3.38311V3.39594H1.47928ZM1.47928 21.7566L-9.1874 21.7566L-9.18738 21.7695L1.47928 21.7566ZM2.43267 23.392L7.86281 14.211L7.78131 14.1627L7.69896 14.116L2.43267 23.392ZM4.44448 23.4075L-0.796843 14.1174L-0.820088 14.1305L-0.843268 14.1437L4.44448 23.4075ZM20.7165 14.2272L15.6117 4.8613L15.5431 4.89867L15.4751 4.93704L20.7165 14.2272ZM21.6968 12.5763L11.0302 12.5763L21.6968 12.5763ZM20.7165 10.9254L15.4751 20.2155L15.5431 20.2539L15.6117 20.2913L20.7165 10.9254ZM4.44448 1.74507L-0.816998 11.0238L-0.806926 11.0295L-0.796843 11.0352L4.44448 1.74507ZM3.47364 14.4835C4.74867 14.4861 5.99996 14.8286 7.09867 15.4755L-3.72592 33.8587C-1.55744 35.1355 0.912167 35.8114 3.42865 35.8167L3.47364 14.4835ZM6.982 15.4078C8.10317 16.0491 9.03466 16.9756 9.68184 18.0934L-8.78038 28.7826C-7.54082 30.9235 -5.75669 32.6982 -3.60925 33.9264L6.982 15.4078ZM9.68184 18.0934C10.329 19.2112 10.6688 20.4804 10.6667 21.772L-10.6666 21.7369C-10.6707 24.2108 -10.0199 26.6416 -8.78038 28.7826L9.68184 18.0934ZM10.6667 21.7544V3.39594H-10.6667V21.7544H10.6667ZM10.6667 3.37841C10.6688 4.67002 10.329 5.93917 9.68184 7.05694L-8.78038 -3.6322C-10.0199 -1.49128 -10.6707 0.939591 -10.6666 3.41346L10.6667 3.37841ZM9.68184 7.05694C9.03467 8.17472 8.10319 9.10129 6.982 9.74252L-3.60925 -8.77602C-5.75671 -7.54783 -7.54083 -5.77313 -8.78038 -3.6322L9.68184 7.05694ZM7.11976 9.66236C6.02516 10.3103 4.77847 10.6567 3.5065 10.6665L3.34349 -10.6663C0.847445 -10.6472 -1.59901 -9.96733 -3.74701 -8.69586L7.11976 9.66236ZM3.5065 10.6665C2.23455 10.6762 0.982705 10.3488 -0.121677 9.7177L10.4633 -8.80445C8.29608 -10.0429 5.83952 -10.6853 3.34349 -10.6663L3.5065 10.6665ZM-0.0705203 9.74675L16.2015 18.9271L26.6841 0.346856L10.4121 -8.8335L-0.0705203 9.74675ZM16.274 18.9677C15.1329 18.3355 14.1818 17.4094 13.5196 16.2855L31.8995 5.45548C30.6281 3.29781 28.8023 1.51985 26.6115 0.306287L16.274 18.9677ZM13.5196 16.2855C12.8573 15.1616 12.508 13.8808 12.508 12.5763H33.8414C33.8414 10.0719 33.1709 7.61315 31.8995 5.45548L13.5196 16.2855ZM12.508 12.5763C12.508 11.2717 12.8573 9.99101 13.5196 8.8671L31.8995 19.6971C33.1709 17.5394 33.8414 15.0807 33.8414 12.5763H12.508ZM13.5196 8.8671C14.1818 7.74319 15.1329 6.81705 16.274 6.18491L26.6115 24.8463C28.8023 23.6327 30.6281 21.8548 31.8995 19.6971L13.5196 8.8671ZM16.2015 6.22548L-0.0705201 15.4058L10.4121 33.9861L26.6841 24.8057L16.2015 6.22548ZM-0.0843354 15.4136C0.990084 14.8054 2.2034 14.485 3.43803 14.4834L3.46426 35.8168C5.90441 35.8138 8.30244 35.1805 10.4259 33.9783L-0.0843354 15.4136ZM3.43852 -9.1849C1.17707 -9.18222 -1.04248 -8.57455 -2.9899 -7.4249L7.85524 10.9461C6.52488 11.7315 5.00864 12.1466 3.46377 12.1484L3.43852 -9.1849ZM-2.83363 -7.51539C-4.76054 -6.42141 -6.36346 -4.83677 -7.47945 -2.92253L10.9506 7.82206C10.1695 9.16183 9.0476 10.2709 7.69896 11.0366L-2.83363 -7.51539ZM-7.47945 -2.92253C-8.59544 -1.00829 -9.18472 1.1673 -9.18738 3.38311L12.1459 3.40876C12.1441 4.9596 11.7316 6.48229 10.9506 7.82206L-7.47945 -2.92253ZM-9.18739 3.39594V21.7566H12.1459V3.39594H-9.18739ZM-9.18738 21.7695C-9.18472 23.9853 -8.59544 26.1609 -7.47945 28.0751L10.9506 17.3305C11.7316 18.6703 12.1441 20.193 12.1459 21.7438L-9.18738 21.7695ZM-7.47945 28.0751C-6.36345 29.9894 -4.76053 31.574 -2.83363 32.668L7.69896 14.116C9.04759 14.8817 10.1695 15.9907 10.9506 17.3305L-7.47945 28.0751ZM-2.99748 32.573C-1.073 33.7113 1.1184 34.3199 3.35413 34.3371L3.51883 13.0044C5.04787 13.0162 6.54661 13.4325 7.86281 14.211L-2.99748 32.573ZM3.35413 34.3371C5.58986 34.3544 7.79039 33.7797 9.73222 32.6713L-0.843268 14.1437C0.484795 13.3857 1.98978 12.9926 3.51883 13.0044L3.35413 34.3371ZM9.68579 32.6976L25.9578 23.5173L15.4751 4.93704L-0.796843 14.1174L9.68579 32.6976ZM25.8212 23.593C27.801 22.514 29.4534 20.9214 30.6046 18.9827L12.2619 8.08988C13.0681 6.73224 14.2253 5.61696 15.6117 4.8613L25.8212 23.593ZM30.6046 18.9827C31.7559 17.0441 32.3635 14.831 32.3635 12.5763L11.0302 12.5763C11.0302 10.9973 11.4557 9.44749 12.2619 8.08988L30.6046 18.9827ZM32.3635 12.5763C32.3635 10.3215 31.7559 8.10849 30.6046 6.16986L12.2619 17.0627C11.4557 15.7051 11.0302 14.1553 11.0302 12.5763L32.3635 12.5763ZM30.6046 6.16986C29.4534 4.23121 27.801 2.63861 25.8212 1.55957L15.6117 20.2913C14.2253 19.5356 13.0681 18.4203 12.2619 17.0627L30.6046 6.16986ZM25.9578 1.6353L9.68579 -7.54505L-0.796843 11.0352L15.4751 20.2155L25.9578 1.6353ZM9.70595 -7.53365C7.80622 -8.61089 5.66064 -9.17964 3.47675 -9.18488L3.42554 12.1484C1.93815 12.1448 0.476857 11.7575 -0.816998 11.0238L9.70595 -7.53365Z" fill="#FCCD0E" mask="url(#path-1-inside-1_95_74)"/>
</svg>
