<svg width="118" height="118" viewBox="0 0 118 118" fill="none" xmlns="http://www.w3.org/2000/svg">
<path d="M103.429 64.5719C103.519 63.867 103.731 63.2693 104.064 62.779C104.398 62.2887 104.816 61.9184 105.32 61.6683C105.832 61.4279 106.4 61.3214 107.025 61.349L106.954 62.5194C106.263 62.5272 105.706 62.7137 105.284 63.0791C104.861 63.4531 104.602 64.0054 104.509 64.7362C104.427 65.3723 104.484 65.882 104.68 66.2653C104.883 66.6582 105.221 66.8849 105.694 66.9453C105.978 66.9816 106.236 66.9447 106.468 66.8346C106.708 66.7342 106.943 66.5065 107.172 66.1513C107.408 65.8058 107.663 65.2793 107.937 64.5716C108.208 63.8898 108.478 63.352 108.746 62.9582C109.014 62.573 109.315 62.3057 109.648 62.1561C109.981 62.0152 110.375 61.9738 110.831 62.0321C111.346 62.098 111.782 62.2761 112.138 62.5662C112.502 62.8661 112.762 63.2576 112.919 63.7407C113.084 64.2249 113.127 64.7807 113.046 65.4083C112.961 66.0788 112.758 66.6383 112.439 67.0868C112.128 67.5363 111.735 67.8749 111.26 68.1025C110.786 68.3302 110.264 68.4427 109.697 68.44L109.768 67.2696C110.336 67.2636 110.821 67.0941 111.222 66.7609C111.63 66.4374 111.879 65.9318 111.966 65.244C112.039 64.6766 111.959 64.2077 111.727 63.8373C111.503 63.468 111.172 63.2553 110.734 63.1992C110.45 63.1629 110.205 63.1972 110 63.302C109.802 63.4164 109.608 63.6362 109.418 63.9614C109.236 64.2877 109.022 64.7628 108.777 65.3867C108.49 66.1276 108.184 66.7045 107.861 67.1175C107.545 67.5401 107.202 67.824 106.834 67.9692C106.465 68.123 106.061 68.1718 105.623 68.1158C105.09 68.0476 104.643 67.8507 104.283 67.5251C103.931 67.2005 103.679 66.7838 103.526 66.2749C103.381 65.7671 103.349 65.1994 103.429 64.5719Z" fill="#3377FE"/>
<path d="M100.203 76.3278C100.524 75.5695 100.981 74.9773 101.576 74.5511C102.178 74.1284 102.878 73.8974 103.675 73.8584C104.473 73.8193 105.331 73.9939 106.249 74.3822C107.166 74.7704 107.889 75.2643 108.417 75.8638C108.952 76.4667 109.278 77.1314 109.394 77.8581C109.51 78.5847 109.408 79.3271 109.087 80.0854C108.652 81.1151 108.055 81.8036 107.296 82.1509C106.537 82.4982 105.674 82.5705 104.706 82.368L105.095 81.2481C105.752 81.3849 106.339 81.3321 106.856 81.0895C107.372 80.8469 107.781 80.3704 108.081 79.66C108.311 79.1173 108.374 78.5793 108.27 78.046C108.171 77.5242 107.911 77.0378 107.49 76.5868C107.077 76.1393 106.511 75.7636 105.793 75.4597C105.074 75.1559 104.411 75.0117 103.802 75.0271C103.193 75.0425 102.667 75.1963 102.224 75.4886C101.777 75.7889 101.438 76.2104 101.209 76.7532C100.895 77.4955 100.843 78.1513 101.054 78.7204C101.273 79.2929 101.692 79.7712 102.311 80.1552L101.778 81.2143C101.207 80.8506 100.754 80.4192 100.42 79.92C100.085 79.4209 99.8925 78.8642 99.8417 78.2499C99.7956 77.647 99.9161 77.0063 100.203 76.3278Z" fill="#3377FE"/>
<path d="M95.6033 85.0685L102.781 90.8719L100.582 93.5912C99.9715 94.346 99.2938 94.7844 98.5487 94.9064C97.8036 95.0284 97.0975 94.8196 96.4303 94.2802C96.154 94.0567 95.9476 93.7951 95.8111 93.4953C95.6814 93.2009 95.6125 92.9 95.6047 92.5928C95.5968 92.2855 95.6497 91.9995 95.7634 91.7348C95.4534 92.0079 95.1237 92.1537 94.7744 92.1722C94.4197 92.1974 94.0434 92.0771 93.6455 91.811L91.3692 90.3049L92.0803 89.4254L94.2492 90.8782C94.5676 91.091 94.8738 91.1603 95.1679 91.086C95.4565 91.0185 95.7698 90.7758 96.1076 90.358L97.7914 88.2756L94.9003 85.9379L95.6033 85.0685ZM98.6406 88.9622L97.0549 90.9233C96.7007 91.3613 96.5312 91.7983 96.5466 92.2342C96.5619 92.6702 96.7751 93.0543 97.1862 93.3867C97.604 93.7246 98.0304 93.852 98.4653 93.769C98.907 93.6914 99.3294 93.4033 99.7326 92.9046L101.228 91.0547L98.6406 88.9622Z" fill="#3377FE"/>
<path d="M84.5636 95.6187C85.2844 95.122 86.0135 94.8512 86.7508 94.8063C87.4859 94.7734 88.1967 94.9573 88.8832 95.3578C89.5696 95.7584 90.1956 96.3691 90.7611 97.1898C91.3265 98.0105 91.6742 98.8129 91.804 99.597C91.9387 100.388 91.8598 101.122 91.5672 101.797C91.2675 102.477 90.7572 103.065 90.0364 103.562C89.3085 104.063 88.5769 104.331 87.8418 104.363C87.0996 104.401 86.3828 104.216 85.6914 103.809C85.0049 103.408 84.379 102.797 83.8135 101.977C83.248 101.156 82.9004 100.354 82.7706 99.5694C82.6408 98.7853 82.7258 98.0532 83.0255 97.3731C83.3229 96.705 83.8357 96.1202 84.5636 95.6187ZM85.1832 96.5179C84.3981 97.0588 83.9688 97.7493 83.8951 98.5894C83.8192 99.4416 84.1131 100.349 84.7769 101.313C85.4408 102.276 86.1843 102.874 87.0076 103.107C87.8287 103.352 88.6318 103.203 89.4169 102.663C90.1948 102.127 90.6192 101.429 90.6902 100.57C90.759 99.7224 90.4614 98.8171 89.7976 97.8536C89.1338 96.8902 88.3938 96.2897 87.5776 96.0521C86.7592 95.8267 85.9611 95.9819 85.1832 96.5179Z" fill="#3377FE"/>
<path d="M75.8087 100.765L78.724 109.522L77.6633 109.875L75.0928 102.154L70.7141 103.612L70.3692 102.576L75.8087 100.765Z" fill="#3377FE"/>
<path d="M64.3734 103.774L64.9428 112.986L63.8269 113.055L63.3249 104.933L58.7187 105.218L58.6513 104.128L64.3734 103.774Z" fill="#3377FE"/>
<path d="M45.0672 102.141L41.7276 110.746L39.0614 109.711C37.7363 109.197 36.8641 108.426 36.4448 107.399C36.0142 106.376 36.067 105.174 36.6032 103.793C37.1363 102.419 37.8985 101.497 38.8899 101.027C39.8813 100.556 41.0274 100.573 42.3282 101.078L45.0672 102.141ZM43.6298 102.755L42.0059 102.124C39.9779 101.337 38.5406 102.034 37.6939 104.216C36.841 106.414 37.4285 107.906 39.4565 108.693L41.0805 109.323L43.6298 102.755Z" fill="#3377FE"/>
<path d="M31.0734 94.5709C31.764 95.1087 32.2417 95.7225 32.5065 96.4121C32.7591 97.1032 32.7978 97.8364 32.6224 98.6116C32.447 99.3868 32.0531 100.168 31.4407 100.954C30.8283 101.74 30.1677 102.313 29.459 102.673C28.745 103.04 28.0221 103.185 27.2901 103.109C26.5514 103.028 25.8367 102.719 25.1461 102.181C24.4487 101.638 23.9737 101.021 23.721 100.329C23.4615 99.6329 23.4221 98.8937 23.6028 98.1117C23.7782 97.3365 24.1721 96.5557 24.7845 95.7694C25.3969 94.9831 26.0575 94.4101 26.7662 94.0503C27.4749 93.6905 28.1986 93.5511 28.9374 93.6322C29.664 93.7148 30.376 94.0277 31.0734 94.5709ZM30.4024 95.4324C29.6503 94.8466 28.8626 94.645 28.0392 94.8276C27.2037 95.0117 26.4265 95.5653 25.7076 96.4884C24.9886 97.4114 24.6421 98.3005 24.6682 99.1557C24.682 100.012 25.065 100.734 25.8171 101.319C26.5624 101.9 27.3554 102.095 28.1963 101.904C29.0249 101.714 29.7987 101.158 30.5177 100.235C31.2366 99.3118 31.5865 98.4254 31.5673 97.5756C31.536 96.7273 31.1477 96.0129 30.4024 95.4324Z" fill="#3377FE"/>
<path d="M22.4986 86.5053L16.1982 93.6752L15.516 92.6614L20.8413 86.7901L13.404 89.5228L12.6927 88.4659L18.018 82.5946L10.5807 85.3273L9.8912 84.3027L18.906 81.1665L19.6899 82.3314L14.774 87.8331L21.7221 85.3513L22.4986 86.5053Z" fill="#3377FE"/>
<path d="M15.7512 74.6194L6.85172 77.0673L6.43108 75.5381L13.0424 68.9871L5.22089 71.1386L4.92438 70.0606L13.8238 67.6126L14.2651 69.217L7.78358 75.6515L15.4547 73.5414L15.7512 74.6194Z" fill="#3377FE"/>
<path d="M13.9544 50.4885C13.8319 51.1885 13.5928 51.7758 13.2371 52.2502C12.8814 52.7247 12.4461 53.0753 11.9313 53.302C11.4095 53.5186 10.8368 53.5988 10.2132 53.5425L10.338 52.3766C11.0288 52.4006 11.5936 52.2399 12.0324 51.8943C12.4727 51.5402 12.7563 51.0003 12.8832 50.2747C12.9937 49.643 12.9601 49.1312 12.7823 48.7393C12.5974 48.3375 12.2702 48.0955 11.8007 48.0133C11.5189 47.9641 11.2594 47.9891 11.0221 48.0883C10.7777 48.1775 10.5331 48.3943 10.2881 48.7386C10.0361 49.0728 9.75695 49.5871 9.45073 50.2813C9.149 50.95 8.85484 51.4749 8.56824 51.8558C8.28313 52.2283 7.97048 52.4815 7.63029 52.6156C7.2916 52.7411 6.89602 52.7643 6.44356 52.6851C5.93134 52.5955 5.50405 52.3976 5.1617 52.0914C4.8123 51.7751 4.57046 51.3721 4.43618 50.8823C4.29337 50.391 4.27647 49.8337 4.38548 49.2105C4.50196 48.5447 4.73007 47.9951 5.06981 47.5618C5.40101 47.127 5.80895 46.8069 6.29362 46.6013C6.77829 46.3957 7.30405 46.3073 7.8709 46.3361L7.74613 47.5021C7.17779 47.4818 6.68575 47.6289 6.27002 47.9433C5.84725 48.2477 5.57614 48.7414 5.45667 49.4243C5.35811 49.9878 5.4163 50.4599 5.63124 50.8406C5.83765 51.2198 6.15855 51.4475 6.59394 51.5237C6.87566 51.573 7.12163 51.55 7.33185 51.4548C7.53502 51.3496 7.73903 51.1389 7.9439 50.8228C8.14022 50.5052 8.37549 50.0405 8.64969 49.4286C8.97042 48.7016 9.30193 48.1393 9.64423 47.7417C9.97949 47.334 10.3343 47.0662 10.7086 46.9381C11.0844 46.8015 11.49 46.7712 11.9254 46.8474C12.4547 46.94 12.8918 47.1572 13.2368 47.4991C13.5731 47.8395 13.8062 48.2674 13.936 48.7828C14.0573 49.2967 14.0634 49.8653 13.9544 50.4885Z" fill="#3377FE"/>
<path d="M17.6779 38.9686C17.3236 39.7118 16.8401 40.283 16.2274 40.6822C15.6068 41.0777 14.8973 41.2771 14.0988 41.2805C13.3003 41.2839 12.4512 41.0711 11.5515 40.6422C10.6518 40.2133 9.95192 39.6877 9.45177 39.0652C8.94379 38.439 8.64804 37.7604 8.56452 37.0293C8.48099 36.2982 8.61637 35.561 8.97067 34.8178C9.45176 33.8086 10.079 33.1475 10.8523 32.8345C11.6256 32.5214 12.4913 32.4877 13.4496 32.7333L13.0109 33.8347C12.3604 33.6686 11.7717 33.6952 11.2447 33.9145C10.7178 34.1337 10.2883 34.5914 9.95639 35.2877C9.70279 35.8197 9.61593 36.3544 9.69582 36.8917C9.77161 37.4175 10.0097 37.915 10.41 38.3843C10.8026 38.8498 11.3509 39.2504 12.055 39.5861C12.7591 39.9217 13.4155 40.0955 14.0244 40.1073C14.6332 40.1191 15.1657 39.9889 15.6219 39.7167C16.0818 39.4367 16.4386 39.0307 16.6922 38.4987C17.039 37.7712 17.1198 37.1184 16.9345 36.5404C16.7413 35.9587 16.3443 35.4622 15.7435 35.051L16.323 34.0166C16.8769 34.4055 17.3098 34.8567 17.6219 35.3703C17.9339 35.8839 18.1015 36.4487 18.1247 37.0646C18.1439 37.669 17.9949 38.3037 17.6779 38.9686Z" fill="#3377FE"/>
<path d="M22.598 30.4988L15.6809 24.3876L17.9963 21.7669C18.639 21.0394 19.3352 20.631 20.0848 20.5417C20.8345 20.4523 21.5309 20.6917 22.1739 21.2598C22.4402 21.495 22.635 21.7654 22.7582 22.0709C22.875 22.3707 22.9306 22.6743 22.9251 22.9816C22.9195 23.289 22.8542 23.5724 22.729 23.8318C23.0507 23.5725 23.3864 23.4412 23.7362 23.438C24.0917 23.4283 24.4624 23.565 24.8483 23.8481L27.0566 25.4522L26.3078 26.2998L24.2044 24.7537C23.8956 24.5272 23.5927 24.4446 23.2957 24.506C23.0044 24.5608 22.6808 24.7896 22.325 25.1923L20.5519 27.1992L23.3383 29.6609L22.598 30.4988ZM19.7336 26.4762L21.4034 24.5862C21.7764 24.164 21.9647 23.7348 21.9684 23.2987C21.9722 22.8625 21.7759 22.4694 21.3797 22.1194C20.9771 21.7636 20.5566 21.6177 20.1185 21.6816C19.6739 21.7398 19.2393 22.0093 18.8147 22.4899L17.2395 24.2727L19.7336 26.4762Z" fill="#3377FE"/>
<path d="M33.9875 20.4692C33.2455 20.9337 32.5053 21.1722 31.7667 21.1847C31.0308 21.1852 30.3288 20.9703 29.6606 20.5399C28.9924 20.1095 28.3939 19.4719 27.8651 18.6271C27.3363 17.7823 27.0242 16.9654 26.929 16.1764C26.8293 15.3799 26.9404 14.6509 27.2623 13.9892C27.5916 13.323 28.1273 12.7576 28.8692 12.2931C29.6185 11.8241 30.3611 11.5893 31.0969 11.5888C31.8401 11.5836 32.5481 11.7999 33.2209 12.2376C33.8891 12.668 34.4876 13.3056 35.0164 14.1504C35.5453 14.9952 35.8573 15.8121 35.9525 16.6012C36.0477 17.3902 35.9306 18.1179 35.6013 18.7842C35.2747 19.4385 34.7368 20.0002 33.9875 20.4692ZM33.4081 19.5437C34.2161 19.0378 34.6754 18.3668 34.786 17.5308C34.8993 16.6828 34.6455 15.7629 34.0247 14.7712C33.4039 13.7795 32.6874 13.1493 31.8751 12.8808C31.0655 12.6002 30.2567 12.7129 29.4487 13.2187C28.6479 13.72 28.1932 14.3983 28.0845 15.2536C27.9786 16.0971 28.236 17.0146 28.8568 18.0063C29.4776 18.998 30.1905 19.6305 30.9954 19.9037C31.8031 20.1649 32.6073 20.0449 33.4081 19.5437Z" fill="#3377FE"/>
<path d="M43.0823 15.6194L40.5669 6.73879L41.6426 6.43411L43.8604 14.2641L48.3007 13.0064L48.5983 14.0571L43.0823 15.6194Z" fill="#3377FE"/>
<path d="M54.7115 13.1L54.569 3.87107L55.6868 3.85381L55.8125 11.9908L60.4269 11.9196L60.4438 13.0114L54.7115 13.1Z" fill="#3377FE"/>
<path d="M73.9424 15.5879L77.6959 7.15556L80.3088 8.31861C81.6073 8.89661 82.441 9.70886 82.81 10.7554C83.1904 11.7975 83.0793 12.9955 82.4766 14.3494C81.8775 15.6954 81.0714 16.5793 80.0583 17.0011C79.0452 17.4229 77.9013 17.3501 76.6265 16.7827L73.9424 15.5879ZM75.4079 15.0449L76.9993 15.7533C78.9867 16.6379 80.4561 16.0114 81.4077 13.8736C82.3664 11.72 81.852 10.2009 79.8647 9.31624L78.2732 8.60783L75.4079 15.0449Z" fill="#3377FE"/>
<path d="M87.6195 23.8232C86.9551 23.2532 86.507 22.6176 86.2751 21.9162C86.0555 21.2139 86.0516 20.4797 86.2634 19.7137C86.4753 18.9477 86.9057 18.1864 87.5546 17.43C88.2036 16.6735 88.8905 16.1324 89.6154 15.8065C90.346 15.4741 91.075 15.363 91.8025 15.4733C92.5367 15.5893 93.2359 15.9322 93.9002 16.5022C94.5712 17.0778 95.0165 17.7167 95.2361 18.419C95.4623 19.1269 95.4667 19.8672 95.2492 20.6398C95.0374 21.4059 94.607 22.1671 93.958 22.9235C93.3091 23.68 92.6221 24.2211 91.8972 24.547C91.1723 24.8729 90.4428 24.9778 89.7087 24.8619C88.9868 24.745 88.2904 24.3988 87.6195 23.8232ZM88.3305 22.9944C89.054 23.6151 89.8313 23.8538 90.6624 23.7103C91.5057 23.5659 92.3082 23.0497 93.07 22.1617C93.8319 21.2737 94.22 20.402 94.2345 19.5466C94.2612 18.6902 93.9128 17.9517 93.1892 17.331C92.4722 16.7159 91.6893 16.4838 90.8404 16.6348C90.0037 16.7848 89.2044 17.3038 88.4426 18.1918C87.6808 19.0798 87.2893 19.9487 87.2683 20.7985C87.2595 21.6473 87.6135 22.3793 88.3305 22.9944Z" fill="#3377FE"/>
<path d="M95.7925 32.2223L102.428 25.361L103.061 26.4062L97.4616 32.0169L105.021 29.6419L105.681 30.7316L100.082 36.3422L107.641 33.9673L108.281 35.0236L99.1265 37.7263L98.3991 36.5254L103.572 31.2644L96.5132 33.4121L95.7925 32.2223Z" fill="#3377FE"/>
<path d="M101.992 44.3964L110.993 42.3567L111.344 43.9035L104.441 50.1463L112.352 48.3537L112.599 49.4441L103.597 51.4837L103.23 49.8609L109.998 43.7286L102.239 45.4867L101.992 44.3964Z" fill="#3377FE"/>
</svg>
