<?xml version="1.0" encoding="utf-8"?>
<!-- Generator: Adobe Illustrator 27.3.1, SVG Export Plug-In . SVG Version: 6.00 Build 0)  -->
<svg version="1.1" id="Layer_1" xmlns="http://www.w3.org/2000/svg" xmlns:xlink="http://www.w3.org/1999/xlink" x="0px" y="0px"
	 viewBox="0 0 176.3 176.3" style="enable-background:new 0 0 176.3 176.3;" xml:space="preserve">
<style type="text/css">
	.st0{fill:none;}
	.st1{fill:#F07D2B;}
	.st2{fill:#FFC001;}
</style>
<g>
	<path class="st0" d="M132.8,132.9C132.8,132.9,132.8,132.9,132.8,132.9C132.9,132.9,132.9,132.9,132.8,132.9L132.8,132.9
		C132.9,132.9,132.9,132.9,132.8,132.9c0.1-0.1,0.1-0.1,0.1-0.2c0,0,0,0,0.1-0.1c1.6-1.8,14.6-17.7,18.4-44.5v0
		c0-0.8-1.5-22.1-18.5-44.7v0c0,0-0.1,0-0.1-0.1c0,0,0,0-0.1-0.1c-1.8-1.6-17.8-14.6-44.5-18.4c0,0,0,0,0,0v126.5c0,0,0,0,0,0
		C88.1,151.4,109.8,150.3,132.8,132.9z"/>
	<path class="st0" d="M43.4,43.4C43.4,43.4,43.4,43.4,43.4,43.4C43,43.9,28.8,60,24.9,88.1c0,0,1.1,21.7,18.5,44.8l0,0c0,0,0,0,0,0
		c0,0,0.1,0.1,0.1,0.1c1.8,1.6,17.7,14.6,44.6,18.4V24.9C87.6,24.9,66.1,26.2,43.4,43.4z"/>
	<path class="st1" d="M88.2,24.9c26.8,3.7,42.7,16.8,44.5,18.4c0,0,0.1,0,0.1,0.1c0,0,0.1,0.1,0.1,0.1v0
		c17.1,22.6,18.5,43.9,18.5,44.7v0c-3.7,26.8-16.8,42.7-18.4,44.5c0,0,0,0.1-0.1,0.1c0,0,0,0,0,0.1s0,0,0,0l0,0c0,0,0,0,0,0s0,0,0,0
		c-23,17.3-44.7,18.5-44.7,18.5c0,0,0,0,0,0v24.9c0,0,0,0,0,0c48.7,0,88.1-39.5,88.1-88.1C176.3,39.5,136.8,0,88.1,0c0,0,0,0,0,0
		L88.2,24.9C88.1,24.9,88.2,24.9,88.2,24.9z"/>
	<path class="st2" d="M0,88.1c0,48.7,39.5,88.1,88.1,88.1v-24.9c-26.8-3.7-42.7-16.8-44.6-18.4c0-0.1-0.1-0.1-0.1-0.1c0,0,0,0,0,0
		l0,0c-17.4-23-18.5-44.8-18.5-44.8C28.8,60,43,43.9,43.4,43.4c0,0,0,0,0,0c22.7-17.2,44.2-18.5,44.7-18.5V0C39.5,0,0,39.5,0,88.1z"
		/>
</g>
</svg>
