<?xml version="1.0" encoding="utf-8"?>
<!-- Generator: Adobe Illustrator 27.3.1, SVG Export Plug-In . SVG Version: 6.00 Build 0)  -->
<svg version="1.1" id="Layer_1" xmlns="http://www.w3.org/2000/svg" xmlns:xlink="http://www.w3.org/1999/xlink" x="0px" y="0px"
	 viewBox="0 0 176.3 176.3" style="enable-background:new 0 0 176.3 176.3;" xml:space="preserve">
<style type="text/css">
	.st0{fill:none;}
	.st1{fill:#F07D2B;}
	.st2{fill:#A6A6A6;}
</style>
<g>
	<path class="st0" d="M43.4,43.3C43.4,43.3,43.4,43.4,43.4,43.3C43.4,43.4,43.4,43.4,43.4,43.3L43.4,43.3
		C43.4,43.4,43.4,43.4,43.4,43.3c-0.1,0.1-0.1,0.1-0.1,0.2c0,0,0,0-0.1,0.1c-1.6,1.8-14.6,17.7-18.4,44.5v0
		c0,0.8,1.5,22.1,18.5,44.7v0c0,0,0.1,0,0.1,0.1c0,0,0,0,0.1,0.1c1.8,1.6,17.8,14.6,44.5,18.4c0,0,0,0,0,0V24.9c0,0,0,0,0,0
		C88.1,24.9,66.4,26,43.4,43.3z"/>
	<path class="st0" d="M132.9,132.9C132.9,132.9,132.9,132.9,132.9,132.9c0.5-0.5,14.6-16.6,18.5-44.7c0,0-1.1-21.7-18.5-44.8l0,0
		c0,0,0,0,0,0c0,0-0.1-0.1-0.1-0.1c-1.8-1.6-17.7-14.6-44.6-18.4v126.5C88.7,151.4,110.1,150,132.9,132.9z"/>
	<path class="st1" d="M88.1,151.4c-26.8-3.7-42.7-16.8-44.5-18.4c0,0-0.1,0-0.1-0.1c0,0-0.1-0.1-0.1-0.1v0
		C26.3,110.3,24.9,89,24.9,88.1v0c3.7-26.8,16.8-42.7,18.4-44.5c0,0,0-0.1,0.1-0.1c0,0,0,0,0-0.1s0,0,0,0l0,0c0,0,0,0,0,0s0,0,0,0
		c23-17.3,44.7-18.5,44.7-18.5c0,0,0,0,0,0V0c0,0,0,0,0,0C39.5,0,0,39.5,0,88.1c0,48.7,39.5,88.1,88.1,88.1c0,0,0,0,0,0L88.1,151.4
		C88.1,151.4,88.1,151.4,88.1,151.4z"/>
	<path class="st2" d="M176.3,88.1C176.3,39.5,136.8,0,88.1,0v24.9c26.8,3.7,42.7,16.8,44.6,18.4c0,0.1,0.1,0.1,0.1,0.1c0,0,0,0,0,0
		l0,0c17.4,23,18.5,44.8,18.5,44.8c-3.9,28.1-18.1,44.2-18.5,44.7c0,0,0,0,0,0c-22.7,17.2-44.2,18.5-44.7,18.5v24.9
		C136.8,176.3,176.3,136.8,176.3,88.1z"/>
</g>
</svg>
