<svg width="85" height="91" viewBox="0 0 85 91" fill="none" xmlns="http://www.w3.org/2000/svg">
<g clip-path="url(#clip0_108_188)">
<mask id="mask0_108_188" style="mask-type:luminance" maskUnits="userSpaceOnUse" x="0" y="0" width="85" height="91">
<path d="M84.4 0H0V90.4H84.4V0Z" fill="white"/>
</mask>
<g mask="url(#mask0_108_188)">
<path d="M42.2 13.8C26.5 13.8 13.8 26.6 13.8 42.2C13.8 46.8 14.9 51.1 16.9 55.2C18.9 59.1 21.8 62.5 25.3 65.1C27.9 67 29.7 69.5 30.7 72.4C28.8 72.9 27.4 74.6 27.4 76.6C27.4 78.9 29.2 80.8 31.5 81C32.2 86.3 36.7 90.5 42.2 90.5C47.7 90.5 52.3 86.3 52.9 81C55 80.7 56.7 78.9 56.7 76.7C56.7 74.8 55.5 73.1 53.7 72.6C54.6 69.7 56.5 67.2 59.1 65.2C62.6 62.6 65.5 59.2 67.5 55.3C69.6 51.3 70.6 46.9 70.6 42.3C70.6 26.5 57.9 13.8 42.2 13.8ZM42.2 87.9C38.1 87.9 34.6 84.9 34 80.9H50.4C49.8 84.9 46.3 87.9 42.2 87.9ZM52.3 78.5H31.7C30.7 78.5 29.8 77.7 29.8 76.6C29.8 75.5 30.6 74.7 31.7 74.7H52.3C53.3 74.7 54.2 75.5 54.2 76.6C54.2 77.7 53.4 78.5 52.3 78.5ZM57.7 63C54.5 65.4 52.3 68.5 51.3 72.2H33.3C32.3 68.6 30 65.4 26.9 63C20.2 58 16.4 50.5 16.4 42.2C16.4 27.9 28 16.2 42.4 16.2C56.7 16.2 68.4 27.8 68.4 42.2C68.2 50.5 64.3 58.1 57.7 63ZM58.3 11.8L61.6 6.1C61.9 5.5 62.7 5.3 63.3 5.6C63.9 5.9 64.1 6.7 63.8 7.3L60.5 13C60.3 13.4 59.9 13.6 59.4 13.6C59.2 13.6 59 13.5 58.8 13.4C58.2 13.2 58 12.4 58.3 11.8ZM13.5 58.8C13.8 59.4 13.6 60.2 13 60.5L7.3 63.8C7.1 63.9 6.9 64 6.7 64C6.3 64 5.9 63.8 5.6 63.4C5.3 62.8 5.5 62 6.1 61.7L11.8 58.4C12.4 58 13.2 58.2 13.5 58.8ZM7.8 43.4H1.2C0.5 43.4 0 42.8 0 42.2C0 41.5 0.6 41 1.2 41H7.8C8.5 41 9 41.6 9 42.2C9.1 42.9 8.5 43.4 7.8 43.4ZM70.9 25.6C70.6 25 70.8 24.2 71.4 23.9L77.1 20.6C77.7 20.3 78.5 20.5 78.8 21.1C79.1 21.7 78.9 22.5 78.3 22.8L72.6 26.1C72.4 26.2 72.2 26.3 72 26.3C71.5 26.3 71.1 26 70.9 25.6ZM20.6 7.4C20.3 6.8 20.5 6 21.1 5.7C21.7 5.4 22.5 5.6 22.8 6.2L26.1 11.9C26.4 12.5 26.2 13.3 25.6 13.6C25.4 13.7 25.2 13.8 25 13.8C24.6 13.8 24.2 13.6 23.9 13.2L20.6 7.4ZM41 7.8V1.2C41 0.6 41.5 0 42.2 0C42.9 0 43.4 0.6 43.4 1.2V7.8C43.4 8.5 42.8 9 42.2 9C41.5 9.1 41 8.5 41 7.8ZM78.7 63.3C78.5 63.7 78.1 63.9 77.6 63.9C77.4 63.9 77.2 63.8 77 63.7L71.3 60.4C70.7 60.1 70.5 59.3 70.8 58.7C71.1 58.1 71.9 57.9 72.5 58.2L78.2 61.5C78.9 61.9 79.1 62.7 78.7 63.3ZM84.4 42.2C84.4 42.9 83.8 43.4 83.2 43.4H76.6C75.9 43.4 75.4 42.8 75.4 42.2C75.4 41.5 76 41 76.6 41H83.2C83.8 41 84.4 41.5 84.4 42.2ZM13.5 25.6C13.3 26 12.9 26.2 12.4 26.2C12.2 26.2 12 26.1 11.8 26L6.1 22.7C5.5 22.4 5.3 21.6 5.6 21C5.9 20.4 6.7 20.2 7.3 20.5L13 23.8C13.7 24.3 13.9 25 13.5 25.6ZM58.3 33.5L59.4 32.1C60.3 31 60.2 29.4 59.2 28.3L56 25.3C55 24.3 53.4 24.2 52.2 25.1L50.8 26.2C49.7 25.6 48.6 25.1 47.4 24.8L47.2 23C47 21.6 45.8 20.5 44.4 20.5H40C38.6 20.5 37.4 21.6 37.2 23L37 24.7C35.8 25.1 34.7 25.5 33.6 26.1L32.2 25C31.1 24.1 29.5 24.2 28.4 25.2L25.3 28.3C24.3 29.3 24.2 30.9 25.1 32.1L26.2 33.5C25.6 34.6 25.1 35.7 24.8 36.9L23 37.2C21.6 37.4 20.5 38.6 20.5 40V44.4C20.5 45.8 21.6 47 23 47.2L24.7 47.4C25.1 48.6 25.5 49.7 26.1 50.8L25 52.2C24.1 53.3 24.2 54.9 25.2 56L28.3 59.1C29.3 60.1 30.9 60.2 32.1 59.3L33.5 58.2C34.6 58.8 35.7 59.3 36.9 59.6L37.1 61.3C37.3 62.7 38.5 63.8 39.9 63.8H44.3C45.7 63.8 46.9 62.7 47.1 61.3L47.3 59.6C48.5 59.2 49.6 58.8 50.7 58.2L52.1 59.3C53.2 60.2 54.8 60.1 55.9 59.1L59 56C60 55 60.1 53.4 59.2 52.2L58.1 50.8C58.7 49.7 59.2 48.6 59.5 47.4L61.2 47.2C62.6 47 63.7 45.8 63.7 44.4V40C63.7 38.6 62.6 37.4 61.2 37.2L59.7 37C59.3 35.8 58.9 34.6 58.3 33.5ZM61.4 40V44.4C61.4 44.6 61.3 44.7 61.1 44.7L58.5 45C58 45.1 57.6 45.4 57.4 45.9C57 47.4 56.4 48.9 55.6 50.2C55.3 50.6 55.4 51.2 55.7 51.6L57.3 53.6C57.4 53.7 57.4 53.9 57.3 54.1L54.2 57.2C54.1 57.3 53.9 57.3 53.7 57.2L51.7 55.6C51.3 55.3 50.7 55.2 50.3 55.5C49 56.3 47.5 56.9 46 57.3C45.5 57.4 45.1 57.8 45.1 58.4L44.8 61C44.8 61.2 44.6 61.3 44.5 61.3H40C39.8 61.3 39.7 61.2 39.7 61L39.4 58.4C39.3 57.9 39 57.5 38.5 57.3C37 56.9 35.5 56.3 34.2 55.5C34 55.4 33.8 55.3 33.6 55.3C33.3 55.3 33.1 55.4 32.8 55.6L30.8 57.2C30.7 57.3 30.5 57.3 30.3 57.2L27 54.2C26.9 54.1 26.9 53.9 27 53.7L28.6 51.7C28.9 51.3 29 50.7 28.7 50.3C27.9 49 27.3 47.5 26.9 46C26.8 45.5 26.4 45.1 25.8 45.1L23.2 44.8C23 44.8 22.9 44.6 22.9 44.5V40C22.9 39.8 23 39.7 23.2 39.7L25.8 39.4C26.3 39.3 26.7 39 26.9 38.5C27.3 37 27.9 35.5 28.7 34.2C29 33.8 28.9 33.2 28.6 32.8L27 30.8C26.9 30.7 26.9 30.5 27 30.3L30.1 27.2C30.2 27.1 30.4 27.1 30.6 27.2L32.6 28.8C33 29.1 33.6 29.2 34 28.9C35.3 28.1 36.8 27.5 38.3 27.1C38.8 27 39.2 26.6 39.2 26L39.5 23.4C39.5 23.2 39.7 23.1 39.8 23.1H44.2C44.4 23.1 44.5 23.2 44.5 23.4L44.8 26C44.9 26.5 45.2 26.9 45.7 27.1C47.2 27.5 48.7 28.1 50 28.9C50.4 29.2 51 29.1 51.4 28.8L53.4 27.2C53.5 27.1 53.7 27.1 53.9 27.2L57 30.3C57.1 30.4 57.1 30.6 57 30.8L55.4 32.8C55.1 33.2 55 33.8 55.3 34.2C56.1 35.5 56.7 37 57.1 38.5C57.2 39 57.6 39.4 58.2 39.4L60.8 39.7C61.3 39.7 61.4 39.8 61.4 40ZM42.2 30.7C35.8 30.7 30.7 35.9 30.7 42.2C30.7 48.5 35.9 53.7 42.2 53.7C48.6 53.7 53.7 48.5 53.7 42.2C53.7 35.9 48.6 30.7 42.2 30.7ZM42.2 51.2C37.2 51.2 33.2 47.1 33.2 42.2C33.2 37.3 37.3 33.2 42.2 33.2C47.2 33.2 51.2 37.3 51.2 42.2C51.2 47.1 47.2 51.2 42.2 51.2ZM47.1 38.6C47.6 39.1 47.6 39.9 47.1 40.4L41.8 45.9C41.6 46.2 41.2 46.3 40.9 46.3C40.6 46.3 40.3 46.2 40 46L37.3 43.4C36.8 42.9 36.8 42.1 37.3 41.6C37.8 41.1 38.6 41.1 39.1 41.6L40.9 43.3L45.4 38.7C45.8 38.1 46.6 38.1 47.1 38.6Z" fill="url(#paint0_linear_108_188)"/>
</g>
</g>
<defs>
<linearGradient id="paint0_linear_108_188" x1="84.4001" y1="45.25" x2="0" y2="45.25" gradientUnits="userSpaceOnUse">
<stop stop-color="#3377FE"/>
<stop offset="1" stop-color="#04E9EC"/>
</linearGradient>
<clipPath id="clip0_108_188">
<rect width="85" height="91" fill="white"/>
</clipPath>
</defs>
</svg>
