<svg width="142" height="50" viewBox="0 0 142 50" fill="none" xmlns="http://www.w3.org/2000/svg">
<g clip-path="url(#clip0_95_319)">
<path fill-rule="evenodd" clip-rule="evenodd" d="M27.3027 6.3323C27.8126 1.84458 31.6222 -0.529163 35.2659 0.175768L35.2748 0.177788C34.8277 4.38071 31.2487 7.09581 27.3027 6.3323Z" fill="white"/>
<path fill-rule="evenodd" clip-rule="evenodd" d="M37.0171 26.9958H33.7608V24.8572C31.7325 26.9417 29.0678 27.4095 27.4171 27.4095C21.6003 27.4095 17.7703 22.9734 17.45 17.7044C16.9748 9.88636 24.0932 6.02278 27.3028 9.20931C30.4508 6.12821 37.0757 9.52441 37.0171 17.1296V26.9958ZM33.7742 19.0375C35.0604 14.0449 31.5824 8.89582 27.3028 12.6447C22.9873 8.86795 19.4975 14.0436 20.7784 19.0375C21.7862 22.9565 24.5001 24.3207 27.3028 24.3207C30.118 24.3207 32.7652 22.9565 33.7742 19.0375ZM63.7278 26.9958V2.72798C63.9736 0.734379 65.6264 -0.247273 67.1917 0.053282V26.9958H63.7278ZM43.6994 17.7998C43.6994 21.3947 46.3514 24.3207 50.3316 24.3207C53.8145 24.3207 56.8031 21.5377 56.8031 17.7679C56.8031 14.2202 54.0395 11.1512 50.3316 11.1512C46.7636 11.1512 43.6994 13.7003 43.6994 17.7998ZM50.3316 27.4095C44.5144 27.4095 40.3641 22.9953 40.3641 17.7044C40.3641 12.7808 44.2731 8.06243 50.3316 8.06243C54.2474 8.06243 59.9276 11.3152 59.9276 17.7153L59.9312 26.9958H56.6997V24.8572C54.6714 26.9417 51.9823 27.4095 50.3316 27.4095ZM141.737 16.1132V26.9958H138.402V16.3677C138.402 14.545 138.073 13.7197 137.673 13.0111C137.034 11.9349 135.87 11.1512 134.173 11.1512C132.476 11.1512 131.312 11.9349 130.673 13.0111C130.273 13.7197 129.944 14.545 129.944 16.3677V26.9958H126.609V16.3677C126.609 14.545 126.28 13.7197 125.88 13.0111C125.241 11.9349 124.078 11.1512 122.381 11.1512C120.684 11.1512 119.519 11.9349 118.88 13.0111C118.48 13.7197 118.151 14.545 118.151 16.3677V26.9958H114.816V16.1132C114.816 9.79345 119.502 8.06243 122.381 8.06243C123.78 8.06243 126.656 8.62435 128.276 10.8874C129.897 8.62435 132.772 8.06243 134.173 8.06243C137.052 8.06243 141.737 9.79345 141.737 16.1132ZM73.8743 16.0166H86.2196C85.3493 12.6596 82.4563 11.1512 80.0362 11.1512C77.6384 11.1512 74.697 12.6653 73.8743 16.0166ZM89.7025 18.7923L89.6846 19.1054H73.8141C74.2653 21.9595 77.0419 24.3207 79.9987 24.3207C81.9628 24.2819 83.6233 23.5467 84.7674 22.1942H88.5498C86.8478 25.3141 83.9598 27.4095 80.0362 27.4095C74.8399 27.4095 70.3568 23.2304 70.3568 17.7679C70.3568 12.5425 74.6067 8.16383 80.0012 8.06243C84.0696 8.09636 86.9614 10.4842 88.2923 12.7816C89.491 14.6847 89.8254 16.6299 89.7025 18.7923ZM95.6553 16.0166H108.001C107.13 12.6596 104.237 11.1512 101.817 11.1512C99.4197 11.1512 96.478 12.6653 95.6553 16.0166ZM111.484 18.7923L111.466 19.1054H95.5946C96.0463 21.9595 98.8228 24.3207 101.78 24.3207C103.744 24.2819 105.404 23.5467 106.549 22.1942H110.331C108.629 25.3141 105.741 27.4095 101.817 27.4095C96.6208 27.4095 92.1377 23.2304 92.1377 17.7679C92.1377 12.5425 96.3876 8.16383 101.782 8.06243C105.851 8.09636 108.742 10.4842 110.073 12.7816C111.272 14.6847 111.607 16.6299 111.484 18.7923ZM11.1083 27.4095C8.11124 27.4095 5.42824 25.9394 5.42824 22.176V11.2785H0C0 10.1207 1.16369 8.06243 3.40155 8.06243H5.42824V5.22332C5.6736 3.23012 7.32636 2.24847 8.89164 2.54862V8.06243H14.7923V11.2785H8.89164V21.1572C8.89164 23.4158 10.1558 24.2399 12.0324 24.2399C12.9711 24.2399 13.8174 24.0613 14.7923 23.5952V26.6209C13.8174 27.123 12.4446 27.4095 11.1083 27.4095Z" fill="white"/>
<path fill-rule="evenodd" clip-rule="evenodd" d="M48.0749 44.9508C48.0749 42.7234 47.0769 41.8115 45.8098 41.8115C45.1929 41.8115 44.6993 42.1 44.2747 42.489V41.9345H43.1301V49.9268L44.2747 49.3372V47.2316C44.5996 47.5893 45.1597 47.901 45.7544 47.901C46.9762 47.901 48.0749 46.9544 48.0749 44.9508ZM46.9209 44.9827C46.9209 46.2197 46.4712 46.8431 45.6421 46.8431C45.0583 46.8431 44.5212 46.4186 44.2621 46.0739V43.6144C44.565 43.236 45.0475 42.8673 45.5969 42.8673C46.4488 42.8673 46.9209 43.5143 46.9209 44.9827Z" fill="white"/>
<path fill-rule="evenodd" clip-rule="evenodd" d="M51.349 40.4408C51.349 40.0286 50.9378 39.6956 50.4424 39.6956C49.9343 39.6956 49.52 40.0286 49.52 40.4408C49.52 40.8413 49.9343 41.1758 50.4424 41.1758C50.9378 41.1758 51.349 40.8413 51.349 40.4408ZM49.7259 47.7779H51.1436V41.9333H49.7259V47.7779Z" fill="white"/>
<path fill-rule="evenodd" clip-rule="evenodd" d="M56.2129 42.0551C55.9772 41.8992 55.6868 41.8115 55.215 41.8115C54.6319 41.8115 54.1391 42.1 53.8694 42.489V41.9345H52.7146V47.7779H53.8694V44.4387C53.8694 43.447 54.2963 42.9364 55.0239 42.9364C55.4055 42.9364 55.664 43.0127 55.9105 43.1464L56.2129 42.0551Z" fill="white"/>
<path fill-rule="evenodd" clip-rule="evenodd" d="M59.2303 40.4408C59.2303 40.0286 58.8189 39.6956 58.3238 39.6956C57.8138 39.6956 57.4014 40.0286 57.4014 40.4408C57.4014 40.8413 57.8138 41.1758 58.3238 41.1758C58.8189 41.1758 59.2303 40.8413 59.2303 40.4408ZM57.6089 47.7779H59.0247V41.9333H57.6089V47.7779Z" fill="white"/>
<path fill-rule="evenodd" clip-rule="evenodd" d="M65.3283 47.7779V44.427C65.3283 42.7002 64.5987 41.8115 63.2307 41.8115C62.6254 41.8115 62.0431 42.0666 61.7509 42.4904V41.9333H60.5952V47.7779H61.7509V44.361C61.7509 43.4147 62.188 42.8692 62.9617 42.8692C63.7243 42.8692 64.1733 43.2914 64.1733 44.4709V47.7779H65.3283Z" fill="white"/>
<path fill-rule="evenodd" clip-rule="evenodd" d="M71.7861 47.2214V41.9345H70.6315V42.4785C70.3164 42.1232 69.7573 41.8115 69.1628 41.8115C67.9504 41.8115 66.8411 42.7576 66.8411 44.7611C66.8411 46.987 67.8507 47.901 69.1064 47.901C69.7219 47.901 70.2049 47.61 70.6315 47.2214V47.3227C70.6315 48.5342 70.2714 48.9804 68.6127 49.0584L69.0053 49.9268C71.1352 49.8589 71.7861 49.0026 71.7861 47.2214ZM70.6527 46.0968C70.3498 46.4752 69.8687 46.8431 69.3198 46.8431C68.4667 46.8431 67.996 46.1977 67.996 44.7274C67.996 43.4911 68.4437 42.8673 69.2741 42.8673C69.8571 42.8673 70.3956 43.2914 70.6527 43.6361V46.0968Z" fill="white"/>
<path fill-rule="evenodd" clip-rule="evenodd" d="M81.7499 41.9333H80.5275L79.5305 44.8158C79.3503 45.3172 79.1036 46.1534 79.0023 46.4969C78.9359 46.175 78.6662 45.3055 78.4859 44.7938L77.5224 41.9333H76.2563L78.4194 47.6678L77.5676 49.8369H78.7888L81.7499 41.9333Z" fill="white"/>
<path fill-rule="evenodd" clip-rule="evenodd" d="M87.7702 44.8275C87.7702 43.0025 86.6492 41.8115 85.1469 41.8115C83.6658 41.8115 82.5222 42.9452 82.5222 44.8609C82.5222 46.6876 83.6324 47.901 85.1125 47.901C86.627 47.901 87.7702 46.7651 87.7702 44.8275ZM86.6046 44.8609C86.6046 45.9305 86.0313 46.8098 85.1577 46.8098C84.2834 46.8098 83.6888 46.1081 83.6888 44.8275C83.6888 43.6699 84.2272 42.9014 85.102 42.9014C86.0313 42.9014 86.6046 43.6699 86.6046 44.8609Z" fill="white"/>
<path fill-rule="evenodd" clip-rule="evenodd" d="M93.9926 47.7779V41.9333H92.8384V45.3495C92.8384 46.2972 92.4012 46.842 91.6255 46.842C90.8631 46.842 90.417 46.4206 90.417 45.2399V41.9333H89.2598V45.2839C89.2598 47.0102 89.9883 47.901 91.3566 47.901C91.9638 47.901 92.5461 47.6442 92.8384 47.2214V47.7779H93.9926Z" fill="white"/>
<path fill-rule="evenodd" clip-rule="evenodd" d="M100.541 47.7779V44.427C100.541 42.7002 99.8114 41.8115 98.4429 41.8115C97.8371 41.8115 97.2549 42.0666 96.9626 42.4904V41.9333H95.8069V47.7779H96.9626V44.361C96.9626 43.4147 97.3998 42.8692 98.174 42.8692C98.9364 42.8692 99.3856 43.2914 99.3856 44.4709V47.7779H100.541Z" fill="white"/>
<path fill-rule="evenodd" clip-rule="evenodd" d="M106.998 47.2214V41.9345H105.843V42.4785C105.53 42.1232 104.968 41.8115 104.374 41.8115C103.162 41.8115 102.054 42.7576 102.054 44.7611C102.054 46.987 103.062 47.901 104.318 47.901C104.934 47.901 105.417 47.61 105.843 47.2214V47.3227C105.843 48.5342 105.484 48.9804 103.824 49.0584L104.218 49.9268C106.349 49.8589 106.998 49.0026 106.998 47.2214ZM105.865 46.0968C105.562 46.4752 105.08 46.8431 104.531 46.8431C103.678 46.8431 103.208 46.1977 103.208 44.7274C103.208 43.4911 103.656 42.8673 104.486 42.8673C105.069 42.8673 105.608 43.2914 105.865 43.6361V46.0968Z" fill="white"/>
<path fill-rule="evenodd" clip-rule="evenodd" d="M119.945 47.7779V44.427C119.945 42.7002 119.294 41.8115 117.927 41.8115C117.008 41.8115 116.546 42.1443 116.121 42.668C115.808 42.1121 115.302 41.8115 114.507 41.8115C113.902 41.8115 113.396 42.0666 113.103 42.4904V41.9333H111.951V47.7779H113.103V44.361C113.103 43.4147 113.464 42.8692 114.238 42.8692C115.001 42.8692 115.37 43.2914 115.37 44.4709V47.7779H116.526V44.361C116.526 43.4147 116.883 42.8692 117.658 42.8692C118.42 42.8692 118.791 43.2914 118.791 44.4709V47.7779H119.945Z" fill="white"/>
<path fill-rule="evenodd" clip-rule="evenodd" d="M123.432 40.4408C123.432 40.0286 123.021 39.6956 122.527 39.6956C122.018 39.6956 121.603 40.0286 121.603 40.4408C121.603 40.8413 122.018 41.1758 122.527 41.1758C123.021 41.1758 123.432 40.8413 123.432 40.4408ZM121.811 47.7779H123.225V41.9333H121.811V47.7779Z" fill="white"/>
<path fill-rule="evenodd" clip-rule="evenodd" d="M129.53 47.7779V44.427C129.53 42.7002 128.802 41.8115 127.433 41.8115C126.828 41.8115 126.245 42.0666 125.953 42.4904V41.9333H124.798V47.7779H125.953V44.361C125.953 43.4147 126.39 42.8692 127.165 42.8692C127.927 42.8692 128.376 43.2914 128.376 44.4709V47.7779H129.53Z" fill="white"/>
<path fill-rule="evenodd" clip-rule="evenodd" d="M135.989 47.7779V39.6619L134.845 40.2515V42.4785C134.518 42.1221 133.958 41.8116 133.364 41.8116C132.141 41.8116 131.043 42.7557 131.043 44.7612C131.043 46.9882 132.04 47.9011 133.308 47.9011C133.924 47.9011 134.416 47.612 134.845 47.2215V47.7779H135.989ZM134.854 46.0968C134.552 46.4753 134.071 46.842 133.521 46.842C132.669 46.842 132.198 46.1977 132.198 44.7274C132.198 43.4927 132.646 42.8693 133.477 42.8693C134.059 42.8693 134.597 43.2915 134.854 43.6362V46.0968Z" fill="white"/>
<path fill-rule="evenodd" clip-rule="evenodd" d="M141.918 46.175C141.918 45.0724 141.246 44.7159 139.934 44.2156C139.048 43.8711 138.846 43.6582 138.846 43.3693C138.846 43.058 139.092 42.8351 139.653 42.8351C140.215 42.8351 140.696 43.0025 141.178 43.3353L141.683 42.4568C141.156 42.0768 140.427 41.8115 139.687 41.8115C138.51 41.8115 137.68 42.3567 137.68 43.4015C137.68 44.3274 138.139 44.7496 139.408 45.2399C140.259 45.5622 140.774 45.7735 140.774 46.2197C140.774 46.6317 140.427 46.8648 139.699 46.8648C139.148 46.8648 138.533 46.664 137.984 46.2855L137.455 47.1545C138.05 47.5883 138.914 47.901 139.709 47.901C140.865 47.901 141.918 47.4662 141.918 46.175Z" fill="white"/>
<path fill-rule="evenodd" clip-rule="evenodd" d="M29.5568 40.4408C29.5568 40.0286 29.1446 39.6956 28.6497 39.6956C28.1416 39.6956 27.7278 40.0286 27.7278 40.4408C27.7278 40.8413 28.1416 41.1758 28.6497 41.1758C29.1446 41.1758 29.5568 40.8413 29.5568 40.4408ZM27.9359 47.7779H29.3503V41.9333H27.9359V47.7779Z" fill="white"/>
<path fill-rule="evenodd" clip-rule="evenodd" d="M35.6544 47.7779V44.427C35.6544 42.7002 34.9251 41.8115 33.5576 41.8115C32.9527 41.8115 32.3696 42.0666 32.0779 42.4904V41.9333H30.9214V47.7779H32.0779V44.361C32.0779 43.4147 32.5151 42.8692 33.2879 42.8692C34.0513 42.8692 34.5003 43.2914 34.5003 44.4709V47.7779H35.6544Z" fill="white"/>
<path fill-rule="evenodd" clip-rule="evenodd" d="M41.5404 46.175C41.5404 45.0724 40.8672 44.7159 39.5552 44.2156C38.6702 43.8711 38.4677 43.6582 38.4677 43.3693C38.4677 43.058 38.7142 42.8351 39.2753 42.8351C39.8365 42.8351 40.3176 43.0025 40.801 43.3353L41.3048 42.4568C40.778 42.0768 40.0488 41.8115 39.3083 41.8115C38.1317 41.8115 37.3027 42.3567 37.3027 43.4015C37.3027 44.3274 37.7607 44.7496 39.0283 45.2399C39.8809 45.5622 40.3968 45.7735 40.3968 46.2197C40.3968 46.6317 40.0488 46.8648 39.321 46.8648C38.7696 46.8648 38.1543 46.664 37.6048 46.2855L37.0774 47.1545C37.6713 47.5883 38.5357 47.901 39.3315 47.901C40.4861 47.901 41.5404 47.4662 41.5404 46.175Z" fill="white"/>
</g>
<defs>
<clipPath id="clip0_95_319">
<rect width="142" height="50" fill="white"/>
</clipPath>
</defs>
</svg>
