<svg width="100" height="82" viewBox="0 0 100 82" fill="none" xmlns="http://www.w3.org/2000/svg">
<g clip-path="url(#clip0_108_194)">
<path d="M49.9996 0.539083C44.359 0.539083 39.7456 5.10158 39.7456 10.7111C39.7456 14.0666 41.394 17.047 43.9253 18.9025C37.8042 21.3009 33.4683 27.2189 33.4683 34.1485V37.9219V37.918C33.4683 38.332 33.6324 38.7305 33.9254 39.0274C34.2183 39.3203 34.6129 39.4844 35.0309 39.4883H64.9839H64.9799C65.8432 39.4844 66.5425 38.7813 66.5386 37.918V34.1446C66.5386 27.2149 62.1987 21.2966 56.0735 18.8986C58.6087 17.0431 60.2649 14.0627 60.2649 10.7072C60.2649 5.09782 55.6438 0.535217 50.0029 0.535217L49.9996 0.539083ZM49.9996 3.66408C53.9684 3.66408 57.1363 6.80858 57.1363 10.711C57.1363 14.6133 53.9683 17.7618 49.9996 17.7618C46.0309 17.7618 42.859 14.6173 42.859 10.711C42.859 6.80868 46.0309 3.66408 49.9996 3.66408ZM64.5466 11.0821C64.3435 11.0743 64.1365 11.1094 63.9451 11.1836C63.5544 11.3282 63.238 11.6251 63.0701 12.004C62.7146 12.7891 63.0662 13.711 63.8513 14.0665C73.8513 18.5977 80.9803 27.7305 82.9603 38.5195C83.0345 38.9296 83.2689 39.2929 83.6127 39.5273C83.9564 39.7616 84.3783 39.8515 84.7885 39.7773C85.1947 39.703 85.558 39.4687 85.7924 39.1249C86.0306 38.7851 86.1205 38.3632 86.0424 37.953C83.8783 26.16 76.0697 16.168 65.1404 11.219H65.1443C64.9568 11.1331 64.7537 11.086 64.5466 11.0821ZM35.4566 11.0938C35.2535 11.1016 35.0543 11.1485 34.8668 11.2344C23.9408 16.1875 16.1288 26.1684 13.9648 37.9574H13.9687C13.8906 38.3676 13.9804 38.7894 14.2187 39.1293C14.4531 39.4731 14.8163 39.7074 15.2265 39.7817C16.0741 39.9301 16.8827 39.3676 17.039 38.5239C19.0195 27.7389 26.164 18.6059 36.16 14.0749V14.071C36.9412 13.7155 37.285 12.7898 36.9295 12.0085C36.7615 11.6295 36.4451 11.3327 36.0545 11.1881V11.1842C35.8631 11.1178 35.6598 11.086 35.4566 11.0938ZM49.9996 20.8868C57.4644 20.8868 63.4096 26.7852 63.4096 34.1488V36.3636H36.5976V34.1488C36.5976 26.7855 42.5351 20.8868 49.9996 20.8868ZM16.5386 42.5158C10.898 42.5158 6.27262 47.0783 6.27262 52.6878C6.27262 56.0433 7.92492 59.0237 10.464 60.8792C4.33902 63.2737 -0.000976562 69.1917 -0.000976562 76.1212V79.8946C-0.000976562 80.3087 0.163083 80.711 0.456053 81.004C0.752933 81.297 1.15136 81.4649 1.56935 81.461H31.5104C31.9283 81.4649 32.3268 81.297 32.6198 81.004C32.9166 80.711 33.0807 80.3087 33.0807 79.8946V76.1212C33.0807 69.1915 28.7409 63.2732 22.6157 60.8752C25.1509 59.0197 26.8071 56.0393 26.8071 52.6838C26.8071 47.0744 22.1821 42.5118 16.5411 42.5118L16.5386 42.5158ZM83.4726 42.5158C77.832 42.5158 73.2066 47.0783 73.2066 52.6878C73.2066 56.0433 74.8589 59.0237 77.398 60.8792C71.273 63.2776 66.933 69.1956 66.933 76.1252V79.8986V79.8947C66.9291 80.758 67.6244 81.4572 68.4877 81.4611H98.4447C99.3041 81.4572 100.003 80.758 99.9994 79.8947V76.1213C99.9994 69.1916 95.6674 63.2733 89.5464 60.8753C92.0816 59.0198 93.7378 56.0394 93.7378 52.6839C93.7378 47.0745 89.1167 42.5119 83.4758 42.5119L83.4726 42.5158ZM16.5386 45.6291C20.5074 45.6291 23.6792 48.7853 23.6792 52.6877C23.6792 56.5901 20.5073 59.7346 16.5386 59.7346C12.5699 59.7346 9.40192 56.5901 9.40192 52.6877C9.40192 48.7853 12.5699 45.6291 16.5386 45.6291ZM83.4726 45.6291C87.4414 45.6291 90.6093 48.7853 90.6093 52.6877C90.6093 56.5901 87.4413 59.7346 83.4726 59.7346C79.5039 59.7346 76.332 56.5901 76.332 52.6877C76.332 48.7853 79.5039 45.6291 83.4726 45.6291ZM16.5386 62.8591C24.0034 62.8591 29.9526 68.7575 29.9526 76.1211V78.3359H3.12862V76.1211C3.12862 68.7578 9.07392 62.8591 16.5386 62.8591ZM83.4726 62.8591C90.9374 62.8591 96.8746 68.7575 96.8746 76.1211V78.3359H70.0586V76.1211C70.0586 68.7578 76.0078 62.8591 83.4726 62.8591ZM38.1876 75.9841H38.1837C37.5275 75.988 36.9454 76.4021 36.7228 77.0232C36.4338 77.8318 36.8595 78.7263 37.6681 79.0154C41.629 80.4295 45.7931 81.1482 50.0001 81.1482C54.2032 81.1482 58.3829 80.4295 62.3401 79.0154H62.344C63.1565 78.7263 63.5784 77.8318 63.2893 77.0232C63.0003 76.2107 62.1057 75.7849 61.2932 76.074C57.6721 77.367 53.8479 78.0232 50.0002 78.0232C46.1525 78.0232 42.34 77.3669 38.7192 76.074C38.5474 76.0154 38.3673 75.9841 38.1876 75.9841Z" fill="url(#paint0_linear_108_194)"/>
</g>
<defs>
<linearGradient id="paint0_linear_108_194" x1="99.9995" y1="40.9982" x2="-0.000976562" y2="40.9982" gradientUnits="userSpaceOnUse">
<stop stop-color="#3377FE"/>
<stop offset="1" stop-color="#04E9EC"/>
</linearGradient>
<clipPath id="clip0_108_194">
<rect width="100" height="82" fill="white"/>
</clipPath>
</defs>
</svg>
