<svg width="161" height="54" viewBox="0 0 161 54" fill="none" xmlns="http://www.w3.org/2000/svg">
<g clip-path="url(#clip0_95_311)">
<mask id="mask0_95_311" style="mask-type:luminance" maskUnits="userSpaceOnUse" x="-441" y="-48" width="649" height="930">
<path d="M-440.23 -47.406H207.424V881.618H-440.23V-47.406Z" fill="white"/>
</mask>
<g mask="url(#mask0_95_311)">
<path fill-rule="evenodd" clip-rule="evenodd" d="M160.929 0.0410156V53.9384H76.5864V43.8365H80.0653V50.3555H157.501V3.57257H80.0653V10.1326H76.5864V0.0410156H160.929ZM6.98828 36.065H4.70273V21.0045H0.0810547V18.9615H11.6099V21.0045H6.98828V36.065ZM22.8658 26.4045V28.4475H15.7361V34.022H24.0086V36.065H13.4606V18.9615H24.0086V21.0045H15.7361V26.4045H22.8658ZM38.5309 24.8133C38.5309 20.8403 40.7052 18.633 44.5684 18.633C48.4822 18.633 50.6059 20.8403 50.6059 24.8133V30.1619C50.6059 34.1863 48.4822 36.3422 44.5684 36.3422C40.7052 36.3422 38.5309 34.1863 38.5309 30.1619V24.8133ZM40.8165 29.8847C40.8165 32.8619 42.0604 34.2992 44.5684 34.2992C47.127 34.2992 48.3204 32.8619 48.3204 29.8847V25.0904C48.3204 22.103 47.127 20.676 44.5684 20.676C42.0604 20.676 40.8165 22.103 40.8165 25.0904V29.8847ZM70.1747 18.9615V36.0547H67.8993V22.2159H67.8386L62.7315 36.0547H60.8302L55.6625 22.2159H55.6018V36.0547H53.3769V18.9615H56.8558L61.7505 32.5847H61.8011L66.7565 18.9615H70.1747ZM109.707 36.3319C105.732 36.3319 103.558 34.1247 103.558 30.049V24.9673C103.558 20.8916 105.732 18.6844 109.707 18.6844C113.671 18.6844 115.845 20.8916 115.845 24.9673V30.049C115.845 34.1247 113.671 36.3319 109.707 36.3319ZM109.707 21.3844C107.472 21.3844 106.501 22.5958 106.501 25.2444V29.7718C106.501 32.4205 107.472 33.6319 109.707 33.6319C111.932 33.6319 112.913 32.4205 112.913 29.7718V25.2444C112.913 22.5958 111.932 21.3844 109.707 21.3844ZM123.895 36.3319C120.093 36.3319 118.03 34.1863 118.03 30.2646V18.9615H120.963V30.049C120.963 32.5334 121.832 33.6319 123.895 33.6319C125.968 33.6319 126.838 32.5334 126.838 30.049V18.9615H129.771V30.2646C129.771 34.1863 127.647 36.3319 123.895 36.3319ZM132.431 36.0547V18.9615H137.821C141.897 18.9615 143.909 20.7273 143.909 24.3102C143.909 28.006 141.897 29.7718 137.821 29.7718H135.424V36.0547H132.431ZM137.76 27.0102C139.995 27.0102 140.916 26.2403 140.916 24.3615C140.916 22.4315 139.995 21.6615 137.76 21.6615H135.374V27.0102H137.76ZM99.1486 36.0547L95.5079 29.6076H93.4348V36.0547H90.4413V18.9615H95.6698C99.7959 18.9615 101.808 20.6657 101.808 24.2589C101.808 26.846 100.723 28.4988 98.552 29.2174L102.577 36.0547H99.1486ZM95.6596 26.8973C97.8946 26.8973 98.8149 26.1273 98.8149 24.2589C98.8149 22.4315 97.8946 21.6615 95.6596 21.6615H93.3842V26.8973H95.6596ZM82.2801 26.4558H88.3681V29.9874C88.3681 34.0733 86.1938 36.3319 82.2801 36.3319C78.3663 36.3319 76.192 34.1247 76.192 30.049V24.9159C76.192 20.8916 78.3663 18.6228 82.3913 18.6228C84.9398 18.6228 86.8512 19.6699 87.9838 21.7129L85.5971 23.1501C84.8892 21.9387 83.8577 21.3844 82.3306 21.3844C80.1563 21.3844 79.1753 22.5958 79.1753 25.1931V29.7718C79.1753 32.3589 80.1563 33.6319 82.3306 33.6319C84.4544 33.6319 85.4859 32.3589 85.4859 29.7205V29.2174H82.2801V26.4558ZM35.2442 32.3076L36.9836 33.3547C35.9319 35.3053 34.1924 36.2806 31.7653 36.2806C27.9021 36.2806 25.8289 34.1247 25.8289 30.1517V24.803C25.8289 20.7787 27.9021 18.6228 31.7653 18.6228C34.1924 18.6228 35.9319 19.598 36.9836 21.5486L35.1835 22.5958C34.4756 21.3228 33.3328 20.6657 31.7653 20.6657C29.3179 20.6657 28.1145 22.103 28.1145 25.0802V29.8231C28.1145 32.8003 29.3179 34.2889 31.7653 34.2889C33.3935 34.2889 34.5363 33.5703 35.2442 32.3076Z" fill="white"/>
<path fill-rule="evenodd" clip-rule="evenodd" d="M52.9926 4.3938L44.5583 18.633C44.5583 18.633 39.9366 10.5227 39.6636 10.2968L44.2347 14.5984L52.9926 4.3938Z" fill="white"/>
</g>
</g>
<defs>
<clipPath id="clip0_95_311">
<rect width="161" height="54" fill="white"/>
</clipPath>
</defs>
</svg>
