<svg width="92" height="94" viewBox="0 0 92 94" fill="none" xmlns="http://www.w3.org/2000/svg">
<g clip-path="url(#clip0_108_196)">
<path d="M91.0546 64.0121L87.1054 63.0121C86.6522 61.3988 86.0116 59.848 85.1874 58.3832L87.2733 54.8832C87.5584 54.4027 87.4842 53.7934 87.0897 53.3988L82.117 48.4261C81.7224 48.0315 81.1131 47.9573 80.6326 48.2425L77.1287 50.3284C75.6678 49.5041 74.117 48.8636 72.5037 48.4104L71.5037 44.4612C71.3669 43.9221 70.8826 43.5432 70.324 43.5432L68.1443 43.5393L70.3474 20.5943H72.9958C73.6676 20.5943 74.2146 20.0513 74.2146 19.3755V15.0864C74.2146 12.0512 71.7458 9.58249 68.7107 9.58249H53.5737V6.05519C53.5737 2.78569 51.2573 0.125488 48.4135 0.125488H25.8275C22.9837 0.125488 20.6673 2.78569 20.6673 6.05519V9.58639H5.53027C2.49507 9.58639 0.0263672 12.0552 0.0263672 15.0903V19.3794C0.0263672 20.0513 0.569337 20.5982 1.24517 20.5982H3.89357L9.67877 80.8792C10.046 84.719 13.46 87.6175 17.6124 87.6175H50.1204L51.4954 88.9925C51.8899 89.387 52.4993 89.4612 52.9798 89.1761L56.4837 87.0902C57.9446 87.9144 59.4954 88.555 61.1087 89.0082L62.1087 92.9574C62.2454 93.4964 62.7298 93.8753 63.2884 93.8753H70.3196C70.8782 93.8753 71.3626 93.4964 71.4993 92.9574L72.4993 89.0082C74.1126 88.5551 75.6634 87.9144 77.1282 87.0902L80.6282 89.1761C81.1086 89.4612 81.718 89.387 82.1126 88.9925L87.0853 84.0198C87.4798 83.6253 87.5579 83.0159 87.2689 82.5354L85.1869 79.0315C86.0111 77.5667 86.6517 76.0198 87.1049 74.4065L91.0541 73.4065C91.5931 73.2698 91.972 72.7854 91.972 72.2268V65.1956C91.972 64.6331 91.5936 64.1488 91.0546 64.0121ZM23.1016 6.05506C23.1016 4.16056 24.3477 2.55896 25.8243 2.55896H48.4103C49.8869 2.55896 51.133 4.16056 51.133 6.05506V9.58626H23.102L23.1016 6.05506ZM2.46056 15.0903C2.46056 13.3989 3.83946 12.02 5.53086 12.02H68.7069C70.3983 12.02 71.7772 13.3989 71.7772 15.0903V18.1606H2.46116L2.46056 15.0903ZM17.6126 85.1803C14.7181 85.1803 12.3509 83.2311 12.1009 80.6451L6.33916 20.5981H67.9012L65.6981 43.5431H63.2879C62.7293 43.5431 62.2449 43.922 62.1082 44.461L61.1082 48.4102C59.4949 48.8633 57.9441 49.504 56.4832 50.3282L55.1668 49.5431L56.8426 30.4531C56.9011 29.7851 56.4051 29.1914 55.7371 29.1328C55.0652 29.0742 54.4754 29.5703 54.4168 30.2383L52.8426 48.1723C52.3894 47.977 51.8543 48.0668 51.4988 48.4262L46.5261 53.3989C46.1315 53.7934 46.0573 54.4028 46.3425 54.8833L48.4284 58.3833C47.6041 59.8481 46.9636 61.3989 46.5104 63.0122L42.5612 64.0122C42.0221 64.1489 41.6432 64.6333 41.6432 65.1919V72.2231C41.6432 72.7817 42.0221 73.2661 42.5612 73.4028L46.5104 74.4028C46.9635 76.0161 47.6042 77.5669 48.4284 79.0317L46.3425 82.5317C46.0573 83.0121 46.1315 83.6215 46.5261 84.0161L47.6902 85.1802L17.6122 85.1841L17.6126 85.1803ZM89.5386 71.2783L85.812 72.2236C85.3745 72.3368 85.0346 72.6806 84.9291 73.1181C84.476 74.9814 83.7377 76.7626 82.7377 78.4072C82.5034 78.7939 82.4995 79.2744 82.7299 79.665L84.6987 82.9697L81.0659 86.6025L77.7612 84.6337C77.3745 84.4032 76.8901 84.4071 76.5034 84.6415C74.8589 85.6454 73.0815 86.3837 71.2143 86.8329C70.7768 86.9384 70.4331 87.2782 70.3198 87.7157L69.3745 91.4423H64.2378L63.2925 87.7157C63.1831 87.2782 62.8355 86.9384 62.398 86.8329C60.5347 86.3798 58.7535 85.6415 57.1089 84.6415C56.7221 84.4071 56.2417 84.4032 55.8511 84.6337L52.5464 86.6025L48.9136 82.9697L50.8824 79.665C51.1128 79.2783 51.1089 78.7939 50.8745 78.4072C49.8706 76.7627 49.1323 74.9853 48.6831 73.1181C48.5777 72.6806 48.2378 72.3368 47.8003 72.2236L44.0737 71.2783V66.1416L47.8003 65.1962C48.2378 65.0869 48.5777 64.7392 48.6831 64.3017C49.1363 62.4345 49.8745 60.6572 50.8745 59.0126C51.1089 58.6259 51.1128 58.1415 50.8824 57.7548L48.9136 54.4501L52.5464 50.8173L55.8511 52.7861C56.2378 53.0166 56.7221 53.0127 57.1089 52.7783C58.7534 51.7744 60.5308 51.04 62.398 50.5869C62.8355 50.4814 63.1831 50.1416 63.2925 49.7041L64.2378 45.9775H69.3745L70.3198 49.7041C70.4292 50.1416 70.7768 50.4814 71.2143 50.5869C73.0776 51.04 74.8588 51.7783 76.5034 52.7783C76.8902 53.0127 77.3706 53.0166 77.7612 52.7861L81.0659 50.8173L84.6987 54.4501L82.7299 57.7548C82.4995 58.1415 82.5034 58.6259 82.7377 59.0126C83.7416 60.6571 84.4799 62.4345 84.9291 64.3017C85.0346 64.7392 85.3745 65.083 85.812 65.1962L89.5386 66.1416L89.5347 71.2783H89.5386ZM52.0696 68.9892C52.0657 68.8759 52.0657 68.7626 52.0657 68.6493C52.0657 60.9266 58.0266 54.5713 65.5887 53.9343L64.6277 53.3796C64.0457 53.0437 63.8465 52.2976 64.1824 51.7155C64.5183 51.1335 65.2644 50.9343 65.8465 51.2702L70.6434 54.0397C71.0223 54.2585 71.2528 54.6608 71.2528 55.0944C71.2528 55.528 71.0223 55.9304 70.6434 56.1491L65.8465 58.9186C65.6551 59.028 65.4442 59.0827 65.241 59.0827C64.8191 59.0827 64.409 58.8639 64.1863 58.4733C63.8504 57.8913 64.0496 57.1452 64.6316 56.8092L65.327 56.4069C59.2372 57.1529 54.503 62.3561 54.503 68.6449C54.503 68.7386 54.503 68.8324 54.5069 68.9261C54.5225 69.598 53.9912 70.1566 53.3155 70.1722H53.2881C52.628 70.1761 52.0853 69.6493 52.0696 68.9892ZM74.9176 79.5942C75.2691 80.1684 75.0855 80.9184 74.5113 81.2661C72.2027 82.6723 69.5504 83.4145 66.8316 83.4145C61.9058 83.4145 57.4254 80.9887 54.7146 77.0981V78.1919C54.7146 78.8637 54.1716 79.4107 53.4958 79.4107C52.8239 79.4107 52.277 78.8677 52.277 78.1919V72.6528C52.277 72.2192 52.5075 71.8168 52.8864 71.5981C53.2653 71.3793 53.7262 71.3793 54.1052 71.5981L58.9021 74.3676C59.4841 74.7035 59.6833 75.4496 59.3474 76.0317C59.0115 76.6137 58.2654 76.8129 57.6833 76.477L56.9685 76.0668C59.2537 79.1059 62.8708 80.9848 66.8318 80.9848C69.1013 80.9848 71.3162 80.3637 73.242 79.1918C73.8201 78.8402 74.5699 79.0199 74.9176 79.5942ZM82.8238 74.8169C83.1597 75.3989 82.9605 76.145 82.3784 76.481L77.5816 79.2505C77.3941 79.3598 77.1831 79.4145 76.9722 79.4145C76.7612 79.4145 76.5503 79.3598 76.3628 79.2505C75.9839 79.0317 75.7534 78.6294 75.7534 78.1958V72.6567C75.7534 71.9848 76.2964 71.4379 76.9722 71.4379C77.6441 71.4379 78.191 71.9808 78.191 72.6567V73.4652C78.8316 71.9535 79.1715 70.3207 79.1715 68.6488C79.1715 64.141 76.7145 59.9965 72.7574 57.8248C72.1675 57.5006 71.9527 56.7623 72.2769 56.1725C72.6011 55.5827 73.3394 55.3679 73.9292 55.6921C78.6675 58.2898 81.6089 63.2546 81.6089 68.6531C81.6089 70.8445 81.1206 72.9812 80.2066 74.9265L81.1636 74.3757C81.7457 74.0359 82.4878 74.2348 82.8238 74.8169ZM38.3398 30.3439V75.4339C38.3398 76.1057 37.7968 76.6527 37.121 76.6527C36.4491 76.6527 35.9022 76.1097 35.9022 75.4339V30.3439C35.9022 29.672 36.4451 29.1251 37.121 29.1251C37.7928 29.1251 38.3398 29.6719 38.3398 30.3439ZM23.7848 75.3279C23.8434 75.9958 23.3473 76.5896 22.6793 76.6482C22.6441 76.6521 22.6089 76.6521 22.5699 76.6521C21.9449 76.6521 21.4137 76.1755 21.359 75.5427L17.3981 30.4527C17.3395 29.7847 17.8356 29.191 18.5036 29.1324C19.1715 29.0738 19.7653 29.5699 19.8239 30.2379L23.7848 75.3279Z" fill="url(#paint0_linear_108_196)"/>
</g>
<defs>
<linearGradient id="paint0_linear_108_196" x1="91.9721" y1="47.0004" x2="0.0263672" y2="47.0004" gradientUnits="userSpaceOnUse">
<stop stop-color="#3377FE"/>
<stop offset="1" stop-color="#04E9EC"/>
</linearGradient>
<clipPath id="clip0_108_196">
<rect width="92" height="94" fill="white"/>
</clipPath>
</defs>
</svg>
