<svg width="14" height="10" viewBox="0 0 14 10" fill="none" xmlns="http://www.w3.org/2000/svg">
<path d="M7.04462 0H7.1225C7.84175 0.002625 11.4861 0.0288751 12.4688 0.293125C12.7658 0.373773 13.0365 0.53097 13.2538 0.749007C13.471 0.967045 13.6273 1.23829 13.7069 1.53562C13.7952 1.86812 13.8574 2.30825 13.8994 2.76238L13.9081 2.85338L13.9274 3.08087L13.9344 3.17188C13.9913 3.97162 13.9982 4.72062 13.9991 4.88425V4.94988C13.9982 5.11963 13.9904 5.91937 13.9274 6.75237L13.9204 6.84425L13.9125 6.93525C13.8687 7.43575 13.804 7.93275 13.7069 8.2985C13.6275 8.59596 13.4714 8.86733 13.2541 9.0854C13.0367 9.30348 12.7659 9.46059 12.4688 9.541C11.4538 9.814 7.59587 9.83325 7.06125 9.83413H6.937C6.66662 9.83413 5.54837 9.82888 4.37587 9.78863L4.22712 9.78338L4.151 9.77988L4.00137 9.77375L3.85175 9.76763C2.8805 9.72475 1.95563 9.65563 1.5295 9.54013C1.23243 9.4598 0.961682 9.30281 0.744384 9.0849C0.527086 8.86699 0.370866 8.5958 0.291375 8.2985C0.19425 7.93363 0.1295 7.43575 0.08575 6.93525L0.07875 6.84337L0.07175 6.75237C0.0285666 6.15947 0.00463738 5.56533 0 4.97087L0 4.86325C0.00175 4.67513 0.00875 4.025 0.056 3.3075L0.062125 3.21738L0.06475 3.17188L0.07175 3.08087L0.091 2.85338L0.09975 2.76238C0.14175 2.30825 0.203875 1.86725 0.29225 1.53562C0.371607 1.23817 0.527767 0.966797 0.745074 0.748722C0.962381 0.530647 1.2332 0.373531 1.53037 0.293125C1.9565 0.179375 2.88137 0.109375 3.85262 0.0656249L4.00137 0.0595L4.15187 0.0542501L4.22712 0.0516251L4.37675 0.0455001C5.20949 0.0187029 6.04258 0.00382626 6.87575 0.000875041H7.04462V0ZM5.6 2.80875V7.0245L9.23738 4.9175L5.6 2.80875Z" fill="white"/>
</svg>
